<svg xmlns="http://www.w3.org/2000/svg" viewBox="0 0 572.41 606.02"><defs><style>.cls-1{fill:#fff;}.cls-2{fill:#364c6e;}</style></defs><title>bagRecurso 2</title><g id="Capa_2" data-name="Capa 2"><g id="Capa_1-2" data-name="Capa 1"><g id="Page-1"><path id="Shape" class="cls-1" d="M456.4,527.15C472.08,433.68,545,243,570.6,177.62a26.49,26.49,0,0,0-13.12-33.45l-20.61-10.09a5.65,5.65,0,0,0-7.52,2.51l-1.94,4c-80.32,148-305.17,37.94-237.86-116.44l1.94-4a5.65,5.65,0,0,0-2.31-7.33L268.57,2.74A26.49,26.49,0,0,0,234.11,12.9c-35.78,60.43-141.65,235-205.85,304.66-14.08,15.32-62.43,87.38,13,134.12s138.84,77.79,138.84,77.79l15.85,7.77s63.43,31,146.6,61.93S452.94,547.67,456.4,527.15Z"/><path class="cls-2" d="M527.53,140.91C413.06,358.5,188,248.35,289.67,24.48,222.2,178.78,447.05,288.85,527.53,140.91Z"/></g></g></g></svg>