<?xml version="1.0" encoding="utf-8"?>
<!-- Generator: Adobe Illustrator 24.1.1, SVG Export Plug-In . SVG Version: 6.00 Build 0)  -->
<svg version="1.1" id="Capa_1" xmlns="http://www.w3.org/2000/svg" xmlns:xlink="http://www.w3.org/1999/xlink" x="0px" y="0px"
	 viewBox="0 0 326.6 303.4" style="enable-background:new 0 0 326.6 303.4;" xml:space="preserve">
<style type="text/css">
	.st0{fill:#FF4633;}
	.st1{fill:#FFFFFF;}
	.st2{fill:#FF2000;}
</style>
<g id="Capa_2_1_">
	<g id="Capa_1-2">
		<path class="st0" d="M116.7,275.3L34,124.5L131.6,71l82.7,150.9L116.7,275.3z"/>
		<path class="st1" d="M119.1,279.8l-13.3,7.3c0,0,0,0,0,0c-12.3,6.7-27.6,2.2-34.3-10L8.2,161.7c0,0,0,0,0,0
			c-6.7-12.3-2.2-27.6,10-34.3l13.3-7.3c2.5-1.3,5.5-0.4,6.9,2l82.7,150.9C122.5,275.4,121.6,278.4,119.1,279.8z"/>
		<path class="st2" d="M122.7,138.9c12,1.5,22.5,8.8,28.1,19.6c6.1,10.5,6.6,23.3,1.4,34.2l26.7,48.6l-26.6,14.6l-26.6-48.5
			c-12-1.5-22.5-8.8-28.1-19.6c-6.1-10.5-6.6-23.3-1.4-34.2L69.5,105l26.6-14.6L122.7,138.9z"/>
		<path class="st1" d="M129,182.1c1.3-0.7,2.7-5.5-0.4-11.3c-0.1-0.1-0.1-0.2-0.2-0.3c-1.3-2.5-0.3-5.5,2.2-6.8
			c2.5-1.3,5.5-0.3,6.8,2.2c5.3,9.6,3.6,21.1-3.6,25.1c-2.5,1.3-5.5,0.4-6.9-2C125.7,186.5,126.6,183.4,129,182.1z"/>
		<path class="st1" d="M114.4,155.4c0.2-0.1,0.3-0.2,0.5-0.3c2.5-1.2,5.5-0.2,6.8,2.3c1.2,2.5,0.2,5.5-2.3,6.8
			c-1.3,0.7-2.7,5.5,0.4,11.3c1.2,2.4,0.4,5.3-1.9,6.7c-2.4,1.4-5.5,0.6-6.9-1.8C105.6,170.8,107.2,159.4,114.4,155.4z"/>
		<path class="st1" d="M147,56.8l-17.8,9.7c-2.4,1.3-3.3,4.4-2,6.9l82.7,150.9c1.3,2.4,4.4,3.3,6.9,2c18.2-10.1,66.6-36.5,85-87
			l8.8-4.9l-19.5-35.5l-8.8,4.9c-4.9,2.6-11,0.8-13.7-4.1l-4.9-8.8C240.9,49.2,188.6,34,147,56.8z M218.7,78.7
			c17.5,10.3,26.9,26,21.3,35.1c-5.7,9.1-24.5,8.2-41.9-2.1s-26.9-26-21.3-35.1C182.5,67.5,201.2,68.4,218.7,78.7z"/>
		<path class="st0" d="M324,127.1c1.3,2.4,0.5,5.5-2,6.9l-13.3,7.3c-2.5,1.3-5.5,0.4-6.9-2l-19.5-35.5c0,0,0,0,0-0.1
			c-1.3-2.5-0.4-5.5,2.1-6.8l13.3-7.3c2.5-1.3,5.5-0.4,6.9,2L324,127.1C324,127.1,324,127.1,324,127.1z"/>
	</g>
</g>
</svg>
