<svg xmlns="http://www.w3.org/2000/svg" viewBox="0 0 1921.01 441.85"><defs><style>.cls-1{fill:#041f4a;}</style></defs><title>fondo11Recurso 8</title><g id="Capa_2" data-name="Capa 2"><g id="Capa_1-2" data-name="Capa 1"><path class="cls-1" d="M188.77,16.74a9.08,9.08,0,0,0-.39,5.06c.49,3.15,3,6.29,4.78,8.13a83.52,83.52,0,0,1-2.79,11.75c-.76-2.29-2.26-5.8-4.74-7.69-3.89-3-8.79-4-10.39-2.11s.47,6.18,4.36,9.15c2.86,2.18,7.67,2.71,10,2.84a78.24,78.24,0,0,1-6.54,13.31c-1.36,2.36-2.74,4.74-4.06,7.45-.12-2.63-.63-6.67-2.53-9.48-3-4.46-7.59-7.31-9.69-6s-1.27,6.47,1.75,10.93c2.33,3.45,7.3,5.84,9.45,6.75a76.19,76.19,0,0,0-5.41,19c-.19,1.19-.36,2.33-.51,3.44-.54-2.35-1.94-7.15-4.84-9.92-3.94-3.75-9.05-5.63-10.84-4s.16,6.55,4.1,10.31c3.39,3.23,9.72,4.54,11.42,4.85a66.43,66.43,0,0,0,0,17.12c-1.46-2.46-4.07-6.12-7.39-7.72-5.25-2.54-11.18-2.6-12.56-.09s2.09,7,7.33,9.51c4.22,2,10.65,1.28,13,.91.33,2,.72,3.8,1.11,5.64a72.23,72.23,0,0,1,2,15.39c-1-2.58-2.66-5.9-5.14-7.84-4.51-3.51-10.13-4.79-11.93-2.67s.66,7.14,5.16,10.65c3.45,2.69,9.29,3.36,11.84,3.53a90.34,90.34,0,0,1-1.13,10.11c-.51,3.12-1.1,5.88-1.74,8.35-1.29-2.67-3.52-6.39-6.7-8.44-5.34-3.45-11.78-4.59-13.64-2.38s1.29,7.27,6.63,10.72c3.76,2.43,9.65,3.06,12.83,3.22a73.11,73.11,0,0,1-7.55,16.3c-.76,1.33-1.54,2.67-2.3,4.07-.22-3.12-.92-7.41-3-10.46-3.62-5.35-9.11-8.77-11.63-7.2s-1.52,7.76,2.1,13.11c2.61,3.86,8,6.62,10.79,7.86a70.39,70.39,0,0,0-5.87,18c-2.12-.69-4.1-1.39-5.91-2.09-.19-.21-.38-.43-.58-.63-3.84-3.66-8.61-5.84-11.42-5.44-1.13-.62-2.37-1.26-3.7-1.93,2.78-7.32,7-14.09,10.28-21.26a48.15,48.15,0,0,0,3.66-11.78c.5-2.88,1.83-8.62.23-11.16l-.06-.09c-1.86,2.55-1.85,6.55-2.74,9.45a52.26,52.26,0,0,1-4.37,9.88c-3.53,6.41-7.92,12.44-11.15,19-.39.79-.75,1.59-1.11,2.38-.07-.36-.15-.71-.22-1.07-2.26-12.59,1.11-29.73,3.56-42.3,2.66-13.58,8.66-26.42,12.45-39.72a113.43,113.43,0,0,0,4.5-34c-.05-2,.08-7.65-5.35-7.66-3.64,0-5.6,2.48-5.86,6-.37,5-1.81,9.91-3.22,14.77-5.31,18.36-16,34.62-24,52.1a104.58,104.58,0,0,0-7.21,22.42c-.29-1.84-.65-3.67-1.11-5.5-2.19-8.75-6.51-17.35-9.24-26.06a48,48,0,0,1-2.47-13.06c-.09-3.69,1.8-8.33,0-12l-.14.08c-3.79,2.38-4.31,9.52-4.86,13.05a42.53,42.53,0,0,0,.44,15c2.07,10.21,6.25,20.29,7,30.52-.21-.67-.43-1.33-.67-2-15.24-43-41.13-76.14-41.13-76.14s-15.82,34-8.89,75.05C19,147,.1,140.7.1,140.7L0,441.85l1920.43-.1.58-282c-2,.29-8.06.64-24,.92-.68-5.15-1.37-8.24-1.37-8.24a82.77,82.77,0,0,0-4.63,8.34l-5.45.07q.86-2.49,1.65-5C1902.1,108,1882.06,65,1882.06,65s-25.89,33.14-41.13,76.14c-.24.65-.46,1.32-.68,2,.73-10.23,4.91-20.31,7-30.52a42.58,42.58,0,0,0,.44-15c-.55-3.52-1.07-10.67-4.86-13l-.14-.09c-1.83,3.64.06,8.28,0,12a48.1,48.1,0,0,1-2.47,13.06c-2.73,8.71-7.06,17.3-9.24,26.05-.46,1.83-.82,3.67-1.11,5.51a104.22,104.22,0,0,0-7.21-22.42c-5.45-11.94-12.16-23.31-17.57-35.16a145.7,145.7,0,0,0,26.38-3.22,18.39,18.39,0,0,1,8.79.24l10.59,3.05L1850,72.37l-10,3.41a18.25,18.25,0,0,1-9.3.51,147.87,147.87,0,0,0-29.58-3h-.36q-1.21-3.31-2.21-6.72c-1.4-4.86-2.84-9.77-3.21-14.77-.26-3.53-2.23-6-5.86-6-5.43,0-5.3,5.7-5.35,7.66a107.59,107.59,0,0,0,1.45,20.35c-12.13.83-20.5,2.59-20.5,4.64s9.27,4,22.42,4.76c.35,1.42.72,2.84,1.13,4.25,3.79,13.3,9.79,26.14,12.44,39.71,2,10,4.49,23,4.29,34.15l-5.76.18c-2.47-4.1-5.14-8.12-7.44-12.3a52.83,52.83,0,0,1-4.37-9.88c-.89-2.91-.88-6.9-2.74-9.45l-.06.09c-1.6,2.54-.27,8.28.23,11.16a48.21,48.21,0,0,0,3.66,11.77c1.37,3,2.92,6,4.46,8.91-5.19.29-10.41.67-15.69,1.16a18.3,18.3,0,0,0,4.82-4.57c3.62-5.36,4.63-11.55,2.1-13.12s-8,1.85-11.63,7.21c-2.06,3.05-2.76,7.33-3,10.45-.77-1.4-1.54-2.74-2.31-4.06a73.12,73.12,0,0,1-7.54-16.3c3.18-.16,9.07-.8,12.83-3.22,5.34-3.46,8.49-8.51,6.63-10.73s-8.3-1.07-13.64,2.39c-3.18,2.05-5.41,5.76-6.7,8.44-.64-2.47-1.23-5.23-1.74-8.36a90.09,90.09,0,0,1-1.13-10.11c2.55-.16,8.39-.84,11.84-3.53,4.5-3.51,7-8.53,5.16-10.65s-7.43-.83-11.93,2.68c-2.48,1.94-4.15,5.25-5.14,7.84a71.6,71.6,0,0,1,2-15.4c.39-1.83.77-3.68,1.11-5.64,2.35.38,8.79,1.13,13-.9,5.24-2.54,8.72-7,7.33-9.52s-7.31-2.44-12.56.09c-3.32,1.61-5.93,5.27-7.39,7.73a67.36,67.36,0,0,0,0-17.12c1.7-.31,8-1.62,11.42-4.86,3.93-3.76,5.89-8.62,4.1-10.3s-6.9.19-10.84,4c-2.9,2.77-4.31,7.57-4.85,9.91-.14-1.1-.31-2.25-.5-3.44a76.66,76.66,0,0,0-5.41-19c2.15-.92,7.12-3.31,9.45-6.75,3-4.47,3.86-9.63,1.75-10.94s-6.68,1.54-9.7,6c-1.89,2.8-2.41,6.85-2.53,9.47-1.32-2.7-2.69-5.09-4-7.44a78.24,78.24,0,0,1-6.54-13.31c2.35-.13,7.16-.66,10-2.84,3.89-3,6-7.29,4.37-9.15s-6.5-.86-10.39,2.11c-2.48,1.89-4,5.39-4.74,7.69a82.48,82.48,0,0,1-2.79-11.75c1.75-1.84,4.29-5,4.78-8.13.76-4.9-1.15-7.25-3.72-7.66s-5.22,1.21-6,6.1c-.48,3.11.94,6.84,2,9.14a1,1,0,0,0,0,.38c.5,3.08,1.08,5.82,1.72,8.3a15,15,0,0,0-5.58-4.05c-3.7-1.27-7.51-1-8.07.52s2.27,4.06,6,5.32c2.79,1,6.51.36,8.17,0a65.52,65.52,0,0,0,4.35,11.39,17.2,17.2,0,0,0-5.62-2.7c-4.77-1.09-9.43-.43-9.86,1.43s3.46,4.48,8.23,5.58c3.14.72,7,0,9.21-.58.65,1.18,1.31,2.32,2,3.45a79.88,79.88,0,0,1,6.4,12.93,15.32,15.32,0,0,0-4.51-3c-4.73-1.91-9.71-1.91-10.55,0s2.68,5.37,7.41,7.28c3,1.2,6.83,1.08,9.31.82a89.52,89.52,0,0,1,2.11,9.74,83.36,83.36,0,0,1,1.19,12.15,21.8,21.8,0,0,0-5.94-7.39c-5.07-3.7-11.16-5.52-12.91-3.83s1.26,6.53,6.33,10.23c3.7,2.71,9.59,4,12.49,4.52a77.35,77.35,0,0,1-2,13.49l-.27,1.28c-1.52-2.37-4.26-5.84-7.9-7.32-5.79-2.36-12.49-2.29-14.18.17s2,6.76,7.78,9.11c4.21,1.72,10.6,1.16,13.76.74a66,66,0,0,0-.63,21.79c-1.94-2.62-4.85-6.08-7.82-7.84-5.16-3.06-10.26-3.6-10.78-1.12s3.66,7.42,8.83,10.48c3.52,2.08,7.87,2.22,10.28,2.09,0,.24.07.47.11.72a77.68,77.68,0,0,0,5,18.05,23.05,23.05,0,0,0-8.23-4.29c-5.83-1.34-11.53-.53-12.06,1.74s4.23,5.49,10.06,6.83c4.12.95,9.18-.13,11.81-.85,1.27,2.6,2.6,4.9,3.92,7.18.75,1.3,1.49,2.58,2.22,3.91-10.63,1.2-21.44,2.75-32.43,4.58a155.76,155.76,0,0,0-.32-30.55c-7.15-58.08-28-105.51-28-105.51S1675.61,84,1681.34,148.16a300.39,300.39,0,0,0,4.29,30l-4.67,1a127.79,127.79,0,0,0-4.54-15.92c-2.9-8.1-6.62-15.67-9.73-23.64a101.2,101.2,0,0,1-4-12.24c-.89-3.57-1.2-8.41-2.77-11.61a.49.49,0,0,0,0,.11c-1,3,.46,10,1.06,13.53a96,96,0,0,0,3.63,14.47c3.2,9.57,7.22,18.63,9.87,28.46.71,2.6,1.32,5.23,1.86,7.87l-7.5,1.67c-3.75-5-8-9.6-10.81-15.27a26.13,26.13,0,0,1-2.11-5.16,1.88,1.88,0,0,0-2.49-1.62c-1.94.57-1.53,2.67-1.42,3.41a41.62,41.62,0,0,0,3.8,12.16c1.4,2.87,3.11,5.58,4.63,8.39q-9.5,2.17-19.14,4.44c-.56-5.26.21-11,.82-15.6.92-7,4.4-13.64,6.2-20.5a39.59,39.59,0,0,0,.72-17.46c-.19-1-.54-3.91-4.59-3.84-2.72,0-4,1.35-3.91,3.16a25.57,25.57,0,0,1-1.25,7.6c-2.54,9.47-9.27,17.94-13.86,27a37.88,37.88,0,0,0-3.35,24.16c-17.06,4-34.48,8.1-52.23,12.06-4.21-6.05-9-11.93-11.12-18.37a18.16,18.16,0,0,1-1.25-6.35c.09-1.52-1.19-2.6-3.91-2.64-4-.06-4.4,2.37-4.59,3.21a27.72,27.72,0,0,0,.72,14.59c1.36,4.32,3.67,8.54,5.12,12.86q-5.23,1.13-10.49,2.23a28.44,28.44,0,0,0,1.68-5.81c.11-.61.52-2.37-1.42-2.85a1.9,1.9,0,0,0-2.49,1.36,19.94,19.94,0,0,1-2.11,4.3,32.82,32.82,0,0,1-3.32,4.59q-6.92,1.42-13.91,2.78c.25-.86.5-1.72.77-2.57,2.66-8.22,6.68-15.79,9.88-23.78a69.57,69.57,0,0,0,3.63-12.1c.6-2.94,2-8.81,1.06-11.3a.36.36,0,0,0,0-.09c-1.57,2.67-1.88,6.72-2.77,9.7a76,76,0,0,1-4,10.22c-3.11,6.66-6.83,13-9.73,19.76a93.57,93.57,0,0,0-4,11.16c-15.21,2.91-30.65,5.59-46.32,7.94,1.34-7.16,2.6-14.59,3.7-22.09a341.43,341.43,0,0,0,3.57-48.87c4.33.26,9.1.41,14.11.41a145.58,145.58,0,0,0,30.24-3.28,18.26,18.26,0,0,1,8.79.24l10.59,3.05-.77-11.17-10,3.41a18.14,18.14,0,0,1-9.3.5,148.66,148.66,0,0,0-29.58-3c-5.06,0-9.88.15-14.25.42-.39-13.22-1.47-21.09-1.47-21.09s-2.29,8.32-5.4,21.64c-7.46.78-12.76,1.94-14.39,3.29.79-2,1.54-3.93,2.21-5.91a83.06,83.06,0,0,0,4.26-20c3.76.19,7.8.29,12,.29a145.58,145.58,0,0,0,30.24-3.28,18.39,18.39,0,0,1,8.79.24l10.59,3-.77-11.17-10,3.41a18.25,18.25,0,0,1-9.3.51,147.78,147.78,0,0,0-29.58-3c-4.14,0-8.12.1-11.83.28-.17-2-1-5-5.29-5-3.63,0-5.6,2.08-5.86,5,0,.31-.07.62-.11.93-7.91.95-13,2.36-13,3.95s4.27,2.77,11.12,3.71c-.41,1.26-.84,2.51-1.27,3.76-5.32,15.33-16,28.92-24,43.53A77.41,77.41,0,0,0,1418.2,186a45.2,45.2,0,0,0-1.11-4.6c-2.18-7.31-6.51-14.49-9.24-21.77a34.31,34.31,0,0,1-2.47-10.91c-.09-3.08,1.8-7,0-10l-.14.07c-3.79,2-4.31,8-4.86,10.91a29.78,29.78,0,0,0,.44,12.52c2.08,8.53,6.26,17,7,25.51-.22-.56-.44-1.12-.68-1.67-8.92-21-21.49-39.23-30.38-50.72,2.79.1,5.71.15,8.72.15a144.89,144.89,0,0,0,30.24-3.28,18.39,18.39,0,0,1,8.79.25l10.58,3-.77-11.16-10,3.4a18,18,0,0,1-9.3.51,147.87,147.87,0,0,0-29.58-3c-6,0-11.56.21-16.51.57-1.86-2.16-3-3.34-3-3.34s-.74,1.34-1.83,3.77c-8.94.93-14.74,2.44-14.74,4.14,0,1.5,4.48,2.84,11.62,3.78-4.76,13.79-9.91,38.14-.18,64.2a176.71,176.71,0,0,0,17.8,34.29q-5.91.22-11.87.35c-.06-1.21-.15-2.44-.28-3.67-1.88-18.39-14.08-33.79-14.08-33.79a101.33,101.33,0,0,0-2.45,29.89,43.54,43.54,0,0,0,1.34,7.74c-180.16.11-304,41.21-438.8,20.16-57.88-9-230.43-22-376.11-25.6a76.32,76.32,0,0,0-1.47-7.54,69,69,0,0,0-4.88,7.38l-5.31-.12q.91-2.2,1.76-4.44c14.91-39.95-5.13-75.89-5.13-75.89s-25.89,27.69-41.13,63.62c-.24.55-.46,1.1-.68,1.66.74-8.55,4.92-17,7-25.5a29.83,29.83,0,0,0,.44-12.53c-.55-2.94-1.07-8.92-4.86-10.9l-.14-.07c-1.83,3,.06,6.91,0,10a34.37,34.37,0,0,1-2.47,10.91c-2.73,7.28-7.05,14.46-9.24,21.77a44.56,44.56,0,0,0-1.11,4.6,77.41,77.41,0,0,0-7.21-18.73c-8-14.61-18.68-28.2-24-43.53-1.4-4.07-2.84-8.17-3.21-12.35-.26-2.95-2.23-5-5.86-5-5.43,0-5.3,4.76-5.35,6.4a80,80,0,0,0,4.5,28.4c3.79,11.12,9.79,21.85,12.44,33.19,1.9,8.1,4.33,18.47,4.3,27.62l-6.59-.06c-2.23-3-4.57-6-6.62-9.16a40.49,40.49,0,0,1-4.37-8.26c-.89-2.42-.88-5.76-2.74-7.89l-.06.07a5.57,5.57,0,0,0-.75,3.48c-7.57-47-27.48-84.88-27.48-84.88s-31.13,43-25.39,96.67c.29,2.74.65,5.48,1.06,8.19-2.74-.11-5.47-.24-8.18-.36-2.44-5-5.17-9.92-7.53-15a74.71,74.71,0,0,1-4-10.22c-.89-3-1.2-7-2.77-9.7a.2.2,0,0,0,0,.08c-1,2.49.46,8.37,1.06,11.31A70.6,70.6,0,0,0,354,213c1.52,3.79,3.22,7.49,4.87,11.2q-11.29-.54-22.28-1.2c.41-1,.79-2.06,1.12-3.1a27.72,27.72,0,0,0,.72-14.59c-.19-.84-.54-3.27-4.59-3.22-2.72,0-4,1.13-3.91,2.64a18.21,18.21,0,0,1-1.25,6.36,43.7,43.7,0,0,1-5.91,11q-9.51-.63-18.69-1.34a38,38,0,0,0,2.33-38.11c-4.59-9.06-11.32-17.53-13.86-27a25.46,25.46,0,0,1-1.25-7.6c.09-1.81-1.19-3.11-3.91-3.16-4.05-.07-4.4,2.84-4.59,3.85a39.45,39.45,0,0,0,.72,17.46c1.8,6.86,5.28,13.51,6.2,20.49.86,6.47,2,15.29-.63,21.7A47.54,47.54,0,0,1,282.6,219q-9-.81-17.58-1.69c.26-4.72,2.36-10.23,4-14.36,1.82-4.77,4.8-8.91,7-13.46a41.43,41.43,0,0,0,3.8-12.16c.11-.73.52-2.83-1.42-3.4-1.31-.39-2.17.33-2.49,1.62a26.29,26.29,0,0,1-2.11,5.15c-3.08,6.26-8,11.19-12,16.85a39.07,39.07,0,0,0-6.65,18.72L253,216a104.68,104.68,0,0,1,.82-11.79,134.52,134.52,0,0,1,3.52-17.79c2.66-9.84,6.68-18.9,9.88-28.46a97.37,97.37,0,0,0,3.63-14.48c.6-3.52,2-10.55,1.06-13.53a.42.42,0,0,0,0-.1c-1.57,3.2-1.88,8-2.77,11.61a100.52,100.52,0,0,1-4,12.23c-3.1,8-6.82,15.54-9.72,23.65a125.19,125.19,0,0,0-6.79,30.3c-.24,2.6-.36,5.21-.4,7.82l-7.1-.85a326.52,326.52,0,0,0,9.37-52.35C256.15,98.05,225,46.57,225,46.57S204.18,94,197,152.07c-2.13,17.37-.29,37.57,3.07,56.66-17.6-3-32.25-6.23-43.27-9.61.21-1.1.43-2.15.66-3.16,2.68.48,8.32,1.19,12.41-.46,5.54-2.24,9.56-6.44,8.5-8.92s-7-2.67-12.51-.43c-3,1.21-5.65,3.88-7.46,6.08,2.23-8,5.09-12.94,8.07-18.1,1.31-2.27,2.64-4.58,3.92-7.18,2.63.72,7.69,1.8,11.81.86,5.83-1.34,10.59-4.56,10.06-6.83s-6.23-3.08-12.06-1.74a23,23,0,0,0-8.24,4.29,77.73,77.73,0,0,0,5-18.06c0-.24.07-.48.11-.72,2.41.13,6.76,0,10.28-2.09,5.17-3.06,9.34-8,8.82-10.48s-5.61-1.93-10.78,1.13c-3,1.75-5.87,5.21-7.81,7.83a66.53,66.53,0,0,0-.63-21.79c3.16.43,9.55,1,13.76-.73,5.79-2.36,9.48-6.65,7.78-9.11s-8.39-2.54-14.18-.18c-3.64,1.48-6.38,5-7.9,7.32l-.27-1.28a77.35,77.35,0,0,1-1.95-13.49c2.9-.5,8.78-1.81,12.49-4.52,5.07-3.7,8.07-8.52,6.33-10.22s-7.84.12-12.91,3.82a22.08,22.08,0,0,0-5.95,7.4,84.94,84.94,0,0,1,1.2-12.16,89.3,89.3,0,0,1,2.11-9.73c2.48.25,6.35.37,9.31-.82,4.73-1.91,8.24-5.35,7.41-7.29s-5.82-1.94-10.55,0a15.7,15.7,0,0,0-4.52,3,80.58,80.58,0,0,1,6.4-12.92c.66-1.14,1.32-2.28,2-3.46,2.24.58,6.06,1.31,9.21.58,4.77-1.09,8.66-3.72,8.23-5.58s-5.09-2.52-9.86-1.42a17.08,17.08,0,0,0-5.62,2.69,65.07,65.07,0,0,0,4.35-11.38c1.66.35,5.37,1,8.17,0,3.7-1.27,6.52-3.77,6-5.32s-4.36-1.79-8.06-.53a15,15,0,0,0-5.58,4.06c.63-2.48,1.22-5.23,1.72-8.31a1.15,1.15,0,0,0,0-.37c1.11-2.31,2.53-6,2.05-9.14a9,9,0,0,0-1.93-4.67A4.36,4.36,0,0,0,188.77,16.74ZM424.26,209.12c.12.56.24,1.08.33,1.51a35.68,35.68,0,0,0,3.66,9.84c1.1,2,2.32,4,3.55,6l-6.87-.11A100.43,100.43,0,0,0,424.26,209.12Zm1025.3,17.51c-1.09-2.22-2.12-4.48-3.06-6.82a48,48,0,0,1,1.66-4.81c2.74-6.67,7.42-12.73,10.92-19.18a35.74,35.74,0,0,0,3.66-9.83c.11-.52.25-1.15.4-1.84-.83,4.58-1.63,9.3-2.4,14.1-1.36,8.57-2.29,17.95-2.92,27.29C1455.07,225.91,1452.32,226.28,1449.56,226.63Zm-2.67-52.3c2.08-8.92,6.24-17.46,9.76-26.11.58,1.47,5.51,2.78,13,3.67-1.94,8.72-4.06,18.91-6.08,29.91.27-2,.29-4-.6-5.14l-.06-.08c-1.86,2.13-1.85,5.47-2.74,7.9a41,41,0,0,1-4.37,8.26c-3.52,5.35-7.92,10.39-11.15,15.84-.39.66-.75,1.33-1.11,2-.07-.31-.15-.6-.22-.9C1441.06,199.16,1444.43,184.84,1446.89,174.33Zm-30.83,33.2a65.07,65.07,0,0,0,4.91,22.25q-4.12.39-8.28.73a147.87,147.87,0,0,0,.1-16.86A37.4,37.4,0,0,0,1416.06,207.53Z"/></g></g></svg>