<svg xmlns="http://www.w3.org/2000/svg" viewBox="0 0 414.01 482.82"><defs><style>.cls-1{fill:#78a5ff;}.cls-2{fill:#ff2000;}.cls-3{fill:#ff4031;}.cls-4{fill:red;}.cls-5{fill:#ff4d33;}.cls-6{fill:#041f4a;}.cls-7{fill:#fff;}</style></defs><title>plantasRecurso 25</title><g id="Capa_2" data-name="Capa 2"><g id="Capa_1-2" data-name="Capa 1"><g id="Capa_1-2-2" data-name="Capa 1-2"><path class="cls-1" d="M170.52,236.66c2.33,4.66.21,15.12-.6,20.37a103.21,103.21,0,0,1-5.72,21.45c-5.42,14.06-12.58,27.22-16.85,41.76a143.08,143.08,0,0,0-5.18,26.5,132.49,132.49,0,0,0,.24,25.5q2.46,27.33,3.81,54.75c.23,4.69,4.14,22.72-4.22,21.81-3.27-.36-3.87-5.51-4-8-.69-16.71-.38-30.2-1.91-43-1.81-15.33-5-31.18-4.23-46.64a134.7,134.7,0,0,1,10.34-45c5-11.88,11.71-22.82,17.11-34.48a108.05,108.05,0,0,0,6.75-18c1.41-5.28,1.48-12.58,4.33-17.22Z"/><path class="cls-2" d="M358,212.62c1.39,5.46-1,18.27-1.91,24.68a208.32,208.32,0,0,1-5.72,26.38c-5,17.43-11.22,33.92-15.42,51.84A292.25,292.25,0,0,0,329.32,348a262.16,262.16,0,0,0-1.65,30.81q-.12,32.85-1.1,65.9c-.17,5.64,1.44,27.13-4.67,26.71-2.39-.17-2.47-6.36-2.37-9.3.68-20.16,1.91-36.49,1.68-51.87-.24-18.38-1.48-37.3.19-56a273.21,273.21,0,0,1,10.84-55.23c4.5-14.78,10.28-28.56,15.05-43.07a214.91,214.91,0,0,0,6.28-22.29c1.4-6.49,2-15.33,4.41-21.15Z"/><path class="cls-3" d="M353.38,443.64c-4.05-3.82-3.08-13.72-2.86-18.48a67.08,67.08,0,0,1,5.09-21.69C362.74,385.75,375.54,374,381.9,356c4.14-11.67,2.58-27.78,1.44-39.6-1.22-12.76-6.27-24.95-8.8-37.5a87.4,87.4,0,0,1-.68-31.88c.32-1.84.9-7.15,7-7,4.06.13,5.94,2.51,5.72,5.82-.23,4.69.75,9.31,1.7,13.89,3.58,17.32,13.45,32.87,20.11,49.46,9,22.37,7.69,51.2-6.89,73.77-5.76,9.11-14.1,17.7-21.2,26.28a223.93,223.93,0,0,0-19.2,27.08c-1,1.55-3.1,7.05-5.34,7.76A2.2,2.2,0,0,1,353.38,443.64Z"/><path class="cls-4" d="M412.94,353.39c-.15,1-6.83,2-15.13,1.66s-15-1.72-14.85-2.77l1-4.91c-.15,1,6.16,2.07,14.46,2.37s15-.28,15.19-1.33Z"/><path class="cls-4" d="M402.53,381.57c-.58.95-7.63.58-15.85-1.36s-14.76-4.52-14.25-5.52l3.82-6.39c-.51,1,5.62,3.31,13.84,5.25s15.22,2.75,15.72,1.75A69,69,0,0,1,402.53,381.57Z"/><path class="cls-4" d="M412.72,324.08c.13,1-5.72,3.07-13.56,4.25s-14.58,1-14.79-.09l-.39-4.57c.21,1,6.32.88,14.13-.3s13.88-2.65,13.6-3.82C411.71,319.55,412.52,322.59,412.72,324.08Z"/><path class="cls-4" d="M403.7,298.62c.32,1-4.21,3.3-10.39,4.77s-11.86,1.54-12.24.55l-1.13-4.36c.37.95,5.38.49,11.55-1s10.68-3.14,10.22-4.27A33.77,33.77,0,0,1,403.7,298.62Z"/><path class="cls-4" d="M393.69,276.75c.32,1-3.2,3.07-8.28,4.28s-10.05,1-10.42,0l-.86-4.29c.37.95,4.37.66,9.45-.55s8.86-2.66,8.41-3.81C392,272.43,393.22,275.3,393.69,276.75Z"/><path class="cls-4" d="M387.46,255.69c.09,1-2.7,2.58-6.47,3s-8.07-.48-8.16-2a32,32,0,0,1,.3-3.91c.13,1,3.93,1.36,7.21,1.21,3-.14,6.63-1.59,6.46-2.78C386.8,251.19,387.36,254.16,387.46,255.69Z"/><path class="cls-5" d="M167.79,376.29c4.6,2.78,8.39,8.25,11,13.09a143.31,143.31,0,0,1-1-34.19c-4-1-13.92-4.06-19.38-10.56-7-8.29-10.33-19-7.08-22.63s12.4.53,19.34,8.82c4.14,4.92,6.49,12.76,7.72,18.29.27-2.32.58-4.77,1-7.26,2.61-17.68,6.23-29.32,10.15-38.77-4.16-2.3-12.13-7.41-16-14.49-5.29-9.82-6.68-21.14-2.86-24s11.94,3.48,17.23,13.31c3,5.59,4,13.42,4.22,19.08,1.18-2.55,2.36-5,3.54-7.39C200,281,204,272.63,207.41,260c-4.77-.33-13.54-1.56-19.08-6-7.91-6.37-12.49-15.64-9.67-19.66s12.4-1.85,20.35,4.52c4.7,3.82,8,10.6,9.83,15.51,1-4.51,1.9-9.54,2.79-15.27,1-7,1.62-13,1.91-18.44-3.82-.34-12.52-1.64-17.61-6.59-6.68-6.47-10.21-15.68-7.47-19.51s11.11-1.43,17.76,5c3.68,3.57,6.09,9.65,7.52,14.38.07-11.16-1.26-19.5-2.63-28.13-.54-3.35-1.07-6.74-1.52-10.32-3.54.66-13.18,2-19.43-1.82-7.79-4.68-12.89-12.91-10.77-17.46s11-4.36,18.79.33c4.94,3,8.75,9.69,10.88,14.2a148.48,148.48,0,0,1,.42-31.26c-2.55-.58-12-3.07-17-9-5.8-6.91-8.58-15.81-5.89-18.86s10.31.44,16.12,7.36c4.27,5.08,6.26,13.86,7,18.12.24-2,.52-4.09.84-6.27,2.24-15.19,5.24-25.92,8.52-34.64-3.19-1.7-10.57-6.12-14-12.4-4.41-8.2-5.56-17.63-2.38-20s10,2.87,14.37,11.09c2.76,5.14,3.44,12.54,3.57,17.33,2-4.93,4.15-9.26,6.24-13.54,3.58-7.35,7-14.48,10.08-24.23-3.52-.25-10.7-1.28-14.92-5.3-5.73-5.48-8.75-13.36-6.32-16.76s9.74-1.48,15.5,4c3.66,3.49,5.82,9.91,6.91,14.11a182.13,182.13,0,0,0,4.44-21.42c-2.58-3.39-6.31-9.15-7-14.91C234.62,5.18,237.57,1,241.39.2s7.77,2.27,8.8,11.21c.64,5.72-1.57,12.46-3.27,16.67a2.58,2.58,0,0,1,0,.68c-.83,5.61-1.76,10.61-2.77,15.14,1.9-2.52,5.07-6,8.44-7.34,5.56-2.25,11.25-1.77,12,1.07s-3.49,7.37-9,9.63c-4.2,1.7-9.76.57-12.22-.1a137.14,137.14,0,0,1-6.76,20.73A24,24,0,0,1,245.07,63c7.16-1.9,14.11-.67,14.72,2.72s-5.27,8.15-12.4,10.1c-4.72,1.28-10.43-.1-13.76-1.19-1,2.15-2,4.22-3,6.28a161.66,161.66,0,0,0-9.87,23.53A23.91,23.91,0,0,1,227.56,99c7.12-3.42,14.57-3.36,15.78.2s-4.14,9.77-11.25,13.2c-4.46,2.14-10.24,1.91-13.94,1.38-1.24,5.13-2.39,10.95-3.39,17.75a187,187,0,0,0-2.06,22.17c2-4.38,5-9.88,9.05-13.41,7.64-6.68,16.82-10,19.4-6.83s-2,11.89-9.69,18.59c-5.6,4.89-14.44,7.2-18.78,8.09a167,167,0,0,0,2.61,24.64l.37,2.35c2.33-4.3,6.5-10.6,12-13.26,8.71-4.23,18.72-4,21.2.49s-3.13,12.31-11.84,16.54c-6.34,3.08-15.88,2-20.6,1.16a147,147,0,0,1,.44,39.8c3-4.77,7.4-11,11.87-14.21,7.8-5.51,15.43-6.45,16.15-1.91s-5.65,13.51-13.44,19c-5.31,3.76-11.81,3.95-15.42,3.69-.07.43-.12.86-.19,1.3a166.85,166.85,0,0,1-7.87,32.9c3.31-3,7.85-6.49,12.4-7.73,8.75-2.37,17.26-.83,18,3.33s-6.45,10-15.21,12.35c-6.17,1.68-13.72-.36-17.63-1.72-2,4.77-4,8.92-6,13.06-4.58,9.38-9,18.38-12.49,32.94,2.77-4,6.79-8.84,11.3-11,8.32-4,17.17-3.6,18.69,1S212.4,327,204.06,331c-6.15,3-14.57,1.6-18.57.69-.67,3.33-1.29,6.93-1.91,10.84-2.07,14-2.4,24.33-1.91,33.06,1.91-4.83,4.83-10.79,9-14.49,7.92-7.07,17.64-10.08,20.6-6.31s-1.54,13.46-9.45,20.48c-5.64,5-14.74,7-19.51,7.77.5,4.4,1.16,8.54,1.83,12.73.86,5.48,1.75,11,2.26,17.4,2.4-4.24,6.36-9.85,11.45-12.33,8.71-4.23,18.72-4,21.2.51s-3.13,12.3-11.84,16.53c-6.3,3.05-15.73,2-20.49,1.18a171.46,171.46,0,0,1-2.07,31.68,2.24,2.24,0,0,1-2.4,2.07h0a2.35,2.35,0,0,1-1.72-2.76c3.61-24.45,1.91-37.65-.14-50.84-4.9.79-15.27,1.79-22.18-2.38-9.33-5.63-15.45-15.49-12.9-21S158.45,370.67,167.79,376.29Z"/><path class="cls-2" d="M240.93,0c-3.86.73-6.68,4.91-5.64,13.86.66,5.73,4.38,11.52,7,14.9a181.74,181.74,0,0,1-4.45,21.42c-1.09-4.2-3.24-10.61-6.91-14.1-5.72-5.46-13.06-7.37-15.49-4s.57,11.29,6.32,16.76c4.22,4,11.44,5,14.91,5.31-3,9.75-6.5,16.87-10.09,24.23-2.09,4.27-4.19,8.58-6.23,13.53-.12-4.77-.8-12.18-3.56-17.32-4.42-8.2-11.19-13.45-14.37-11.1s-2,11.8,2.37,20c3.41,6.32,10.78,10.75,14,12.4-3.28,8.72-6.28,19.45-8.53,34.65-.31,2.18-.59,4.26-.83,6.27-.75-4.28-2.75-13.07-7-18.13-5.81-6.94-13.44-10.44-16.12-7.39s.09,12,5.9,18.87c5,5.94,14.42,8.43,17,9a150.43,150.43,0,0,0-.42,31.25c-2.11-4.51-5.93-11.22-10.86-14.19-7.79-4.7-16.66-4.88-18.79-.33s3,12.78,10.75,17.46c6.27,3.82,15.91,2.47,19.44,1.82.46,3.58.95,7,1.52,10.32,1.38,8.58,2.7,17,2.64,28.12-1.43-4.77-3.82-10.81-7.52-14.38-6.68-6.46-15-8.87-17.77-5s.82,13,7.47,19.51c5.09,5,13.81,6.26,17.62,6.59-.29,5.41-.88,11.45-1.91,18.44-.85,5.73-1.78,10.74-2.81,15.27-1.9-4.91-5.11-11.72-9.81-15.51-7.92-6.37-17.52-8.54-20.35-4.52s1.76,13.28,9.67,19.66c5.56,4.48,14.36,5.72,19.08,6-3.37,12.68-7.43,21-11.65,29.67-1.17,2.41-2.36,4.84-3.54,7.39-.25-5.72-1.2-13.53-4.21-19.13-5.3-9.83-13.42-16.13-17.23-13.3s-2.45,14.15,2.86,24c3.81,7.08,11.8,12.18,15.95,14.48-3.91,9.45-7.54,21.08-10.15,38.77q-.56,3.78-1,7.25c-1.24-5.53-3.59-13.35-7.72-18.29-7-8.29-16.09-12.48-19.34-8.82s.11,14.31,7.07,22.63c5.46,6.51,15.37,9.54,19.37,10.57a143.8,143.8,0,0,0,1,34.19c-2.66-4.84-6.44-10.32-11-13.09-9.34-5.62-20-5.84-22.53-.39s3.56,15.33,12.9,20.94c6.93,4.17,17.28,3.18,22.19,2.38,2.08,13.2,3.75,26.39.13,50.85a2.34,2.34,0,0,0,1.73,2.76s1.72-23.68,1.46-38-9.2-31.59-3.43-70.71c7.57-51.26,25.49-54.7,33-105.55,7.25-49.18-7.8-61.21-2.19-99.22,3-20.21,7.94-41,15.38-55.93,15.75-31.63,18.12-53.14,18.21-55Z"/><path class="cls-1" d="M26.94,116.9S-4,195.18,17.18,282.65C37.22,365.41,84.11,436,84.11,436s21.74-110.51,2.61-179.53C64.89,177.74,26.94,116.9,26.94,116.9Z"/><path class="cls-6" d="M84.11,436s21.74-110.51,2.61-179.53C64.89,177.74,26.94,116.9,26.94,116.9s-2.12,57.18,18.64,162.58S84.11,436,84.11,436Z"/><path class="cls-6" d="M80,418.83c-7.48-23.26-14.09-46.75-20.28-70.38-3.13-11.8-6-23.66-8.91-35.52C49.4,307,48,301.05,46.68,295.08s-2.72-11.91-3.93-17.9c-2.48-12-4.88-24-6.89-36-1-6.06-1.9-12.12-2.71-18.13-.44-3-.8-6.07-1.16-9.1s-.72-6.08-1-9.12c-1.37-12.25-2.33-24.47-3-36.66-.28-6.11-.55-12.22-.63-18.33s-.11-12.22.15-18.33q1.43,18.25,3.59,36.4C32.56,180,34.19,192,36,204.06c.43,3,.91,6,1.39,9l1.46,9c1,6,2.06,12,3.15,17.94L43.73,249c.57,3,1.13,6,1.76,8.94,1.27,6,2.44,11.92,3.76,17.83Q53,293.6,57,311.43l7.87,35.74C70.09,371,75.25,394.82,80,418.83Z"/><path class="cls-6" d="M29.86,194,16,173.38,33.56,191a2.4,2.4,0,1,1-3.4,3.38h0A2.52,2.52,0,0,1,29.86,194Z"/><path class="cls-6" d="M36.66,244.52,13.44,220.85l26.37,20.09A2.4,2.4,0,0,1,37,244.76Z"/><path class="cls-1" d="M37.42,241.2l30-32.26-26.3,35.3a2.39,2.39,0,0,1-3.81-2.86Z"/><path class="cls-1" d="M29.83,190.18l17.62-20L33.67,193a2.39,2.39,0,0,1-4.08-2.42A1.36,1.36,0,0,1,29.83,190.18Z"/><path class="cls-1" d="M47.21,291.06l34-39.12L51,294a2.39,2.39,0,0,1-3.88-2.79h0Z"/><path class="cls-1" d="M61.42,353.2l26.77-38.87L65.49,355.7a2.39,2.39,0,1,1-4.19-2.3Z"/><path class="cls-1" d="M71,395.33l18.3-24.2L75,397.92a2.4,2.4,0,0,1-4.33-2.05l.1-.19A2.71,2.71,0,0,1,71,395.33Z"/><path class="cls-6" d="M47.53,294.35l-29-27.78,32,24.14a2.39,2.39,0,0,1-2.87,3.82h0C47.65,294.48,47.59,294.41,47.53,294.35Z"/><path class="cls-6" d="M62.39,356.92l-28-30.11,31.26,26.71a2.39,2.39,0,1,1-3.1,3.63Z"/><path class="cls-6" d="M71.37,398.34,56.54,380.83l18.13,14.06a2.41,2.41,0,1,1-2.94,3.81h0A3.06,3.06,0,0,1,71.37,398.34Z"/><path class="cls-2" d="M85.19,153.13c-5.72,4.28-6.68,17.32-7.58,23.75a94.87,94.87,0,0,0,.32,27.39c2.86,18.7,8.92,37.2,9.75,56a127.73,127.73,0,0,1-2.76,32.92c-2.28,10.49-6.12,19.54-11.06,29.26q-15.44,30.36-29,61.31C42.52,389,28.63,408,42.53,410.8c5.45,1.12,8.59-4.55,9.77-7.32,8.1-18.93,13.26-34.61,21-48.65,9.32-16.81,21.14-33.6,26.36-51.76a121.86,121.86,0,0,0,2.11-56.66c-3.07-16-9.34-31.75-13.22-47.71a104.38,104.38,0,0,1-3.4-23.85c0-6.74,2.86-15.19.23-21.85Z"/><path class="cls-1" d="M289.88,59.81s45.37,94.39,35.3,211.52c-9.54,110.76-50,211.49-50,211.49S235,345,245.6,252.06C257.61,146.12,289.88,59.81,289.88,59.81Z"/><path class="cls-6" d="M275.19,482.82S235.06,345,245.62,252.06c12-105.9,44.27-192.25,44.27-192.25s10.89,73.21,3.95,213.36S275.19,482.82,275.19,482.82Z"/><path class="cls-2" d="M280.51,459.75c1.09-31.81,2.69-63.57,4.38-95.34l5.16-95.22c.45-7.94.82-15.87,1.2-23.8l1-23.8c.27-7.92.57-15.85.7-23.78l.23-11.91c.07-4,.14-7.93.16-11.9.1-15.87.09-31.76-.22-47.64s-.79-31.77-1.67-47.71c1.13,7.88,2,15.8,2.81,23.72s1.4,15.87,2,23.85c1.06,15.89,1.81,31.81,2.13,47.71.11,4,.16,8,.21,11.94s.12,8,.08,12c0,8-.11,15.94-.23,23.9-.32,16-1,31.85-1.77,47.75-.36,7.95-.86,15.9-1.34,23.86l-1.49,23.85c-1.16,15.87-2.27,31.74-3.64,47.6C287.5,396.48,284.44,428.16,280.51,459.75Z"/><path class="cls-2" d="M293.86,157.15l16.37-26.85-12.14,29a2.39,2.39,0,0,1-4.41-1.84A2.21,2.21,0,0,1,293.86,157.15Z"/><path class="cls-2" d="M294.4,222.9l25.67-32-21.78,34.75a2.39,2.39,0,0,1-4.05-2.53Z"/><path class="cls-2" d="M293.5,226.11,259.57,186.8l37.39,36a2.39,2.39,0,1,1-3.31,3.44Z"/><path class="cls-2" d="M294,158.57,275.5,132.75l22.11,22.76a2.39,2.39,0,0,1-3.43,3.33Z"/><path class="cls-2" d="M290.19,292.32l-39.26-47.13,42.81,43.89a2.39,2.39,0,1,1-3.43,3.33h0Z"/><path class="cls-2" d="M285,376.11,252.63,327l36.25,46.36a2.39,2.39,0,1,1-3.76,2.94Z"/><path class="cls-2" d="M290.05,289.3l31.3-38.38-27.49,41.21a2.38,2.38,0,0,1-4-2.52l.07-.12A1.46,1.46,0,0,1,290.05,289.3Z"/><path class="cls-2" d="M284.88,373.49,313,331.82,289,376a2.4,2.4,0,0,1-4.33-2.05,1.36,1.36,0,0,1,.13-.24Z"/><path class="cls-1" d="M4.67,276.37s17.82,33.8,20.15,74a293.64,293.64,0,0,1-5.33,71.77S1.25,373.48.18,341.64A320,320,0,0,1,4.67,276.37Z"/><path class="cls-6" d="M19.47,422.14S1.25,373.48.18,341.64a320,320,0,0,1,4.49-65.27S11.24,302,15.52,350.19,19.47,422.14,19.47,422.14Z"/><path class="cls-6" d="M19,414.25c-1.91-10.92-3.27-21.86-4.41-32.82s-2.06-21.94-2.86-32.84L10.51,332.2c-.42-5.44-1-10.91-1.43-16.37L6,282.94a235.93,235.93,0,0,1,8.06,32.21c1,5.44,1.91,10.89,2.59,16.41s1.27,11,1.72,16.5q1.34,16.51,1.57,33.06C20.05,392.12,19.93,403.2,19,414.25Z"/><path class="cls-6" d="M8.67,309.81l5.26-8.58-.71,10a2.46,2.46,0,0,1-4.9-.35A2.75,2.75,0,0,1,8.67,309.81Z"/><path class="cls-6" d="M11.94,332.28l7.68-9.81-3.39,12a2.43,2.43,0,0,1-4.67-1.35A2.32,2.32,0,0,1,11.94,332.28Z"/><path class="cls-1" d="M12,335,1.38,319.46l14.14,12.4a2.4,2.4,0,0,1-3.16,3.62A2.37,2.37,0,0,1,12,335Z"/><path class="cls-1" d="M9,311.62,3.68,301.2l9,7.43a2.44,2.44,0,1,1-3.1,3.76h0A2.42,2.42,0,0,1,9,311.62Z"/><path class="cls-1" d="M14,357.77,1.47,339.41l16.11,15.26a2.4,2.4,0,0,1-3.26,3.48A2.67,2.67,0,0,1,14,357.77Z"/><path class="cls-1" d="M15.65,386l-10-18.3,13.87,15.57A2.4,2.4,0,0,1,16,386.46,2.77,2.77,0,0,1,15.65,386Z"/><path class="cls-1" d="M16.55,405.63l-5.39-12.4L20.52,403A2.42,2.42,0,0,1,17,406.32,3.28,3.28,0,0,1,16.55,405.63Z"/><path class="cls-6" d="M13.66,355.08l9.06-11.87-4.85,14.13a2.41,2.41,0,0,1-4.55-1.61A2.69,2.69,0,0,1,13.66,355.08Z"/><path class="cls-6" d="M15.32,384,23.91,371l-4.25,15A2.41,2.41,0,0,1,15,384.68h0A2.69,2.69,0,0,1,15.32,384Z"/><path class="cls-6" d="M16.4,403.25l6.1-7.07-1.81,9.16a2.47,2.47,0,1,1-4.29-2.09Z"/><path class="cls-6" d="M160.12,481.12c6.18-7.17,6.95-26.48,7.63-35.75a179.5,179.5,0,0,0-2.29-42.56c-5.83-35-20.43-58.9-25.2-94.26-3.1-23,2.34-54.25,6.3-77.18,4.28-24.75,13.54-48.11,19.52-72.35a250.21,250.21,0,0,0,7.51-62c0-3.59.3-14-7.83-14.05-5.44-.06-8.43,4.46-8.9,10.9-.66,9.13-2.93,18.07-5.14,26.92-8.37,33.44-24.76,63-37.08,94.81-16.62,42.93-20.88,99.1-6.12,144.06,5.9,18,15.26,35.3,22.89,52.53a451.06,451.06,0,0,1,20,54.09c1,3.08,2.67,14,5.49,15.48A2.39,2.39,0,0,0,160.12,481.12Z"/><path class="cls-7" d="M99.43,301.11c0,2.05,8.7,4.32,19.83,4.35s20.36-2.3,20.38-4.35l-.34-9.62c0,2.05-8.63,3.6-19.76,3.57s-20-1.61-20-3.66Z"/><path class="cls-7" d="M107.46,356.72c.57,2,10,1.68,21.42-1.5s20.61-7.74,20.14-9.72l-3.82-12.72c.48,2-8.17,6-19.54,9.22s-20.85,4.27-21.33,2.28C104.32,344.28,105.91,351.45,107.46,356.72Z"/><path class="cls-7" d="M126.18,401.22c.8,1.86,8.33,2.48,19-1.14s17.53-10.56,17.09-12.56c-.61-2.77-2.86-10.42-2.86-10.42.57,2-7.44,6.33-18.13,10s-19.6,5.06-20.17,3.15C121.1,390.21,123.78,395.65,126.18,401.22Z"/><path class="cls-7" d="M105.8,244.09c-.39,2,7,6.4,17.17,9.25s19.25,2.86,19.75.89l1.46-8.86c-.5,2-8.59,1.27-18.79-1.6s-18-6.16-17.34-8.41C108.08,235.36,106.37,241.2,105.8,244.09Z"/><path class="cls-7" d="M123.09,195.14c-.63,1.91,4.93,6.74,12.86,10.06s15.5,3.82,16.22,1.91l2.41-8.4c-.71,1.91-7.27.57-15.2-2.75s-13.59-6.88-12.74-9.05A88,88,0,0,0,123.09,195.14Z"/><path class="cls-7" d="M141,153.35c-.64,1.9,3.63,6.2,10.15,8.94s13.19,2.76,13.91.85l2-8.3c-.7,1.91-6,1-12.49-1.72s-11.26-5.82-10.42-8C144.16,145.07,141.92,150.57,141,153.35Z"/><path class="cls-7" d="M153.68,112.74c-.33,2,3.06,5.2,8,6.27s10.84-.34,11.27-3.26c.33-2.15.41-7.64.41-7.64-.38,2-5.52,2.38-9.86,1.85-3.9-.49-8.5-3.58-8-5.88C155.52,104.09,154.18,109.84,153.68,112.74Z"/><path class="cls-6" d="M343.65,440.62c2.59-1.9,3.89-9,4.61-12.35a70.33,70.33,0,0,0,1.44-16.11c-.22-13.8-4.19-24.56-4-38.35.1-9,3.7-19.92,6.33-28,2.87-8.68,7.39-16.22,10.81-24.47a89.18,89.18,0,0,0,6-22.16c.18-1.33.84-5.17-2.06-6.24-1.9-.71-3.25.59-3.75,2.93a53.61,53.61,0,0,1-3.29,9.39c-4.77,11.4-12.17,20.32-18.27,30.61-8.2,13.87-12.71,34.27-9.8,52.91,1.15,7.45,3.58,15.11,5.4,22.51a208.2,208.2,0,0,1,4.29,22.7c.17,1.27.22,5.55,1.14,6.47a.83.83,0,0,0,1.15.16Z"/><path class="cls-4" d="M331.48,365.8c-.11.76,2.86,2.72,6.86,4.15s7.4,1.73,7.52.95l.38-3.62c-.11.76-3.27.23-7.25-1.2s-7.06-3.14-6.95-3.91Z"/><path class="cls-4" d="M331.41,387.54c.1.8,3.51,1.91,7.73,2.18s7.79-.26,7.72-1.06l-.7-5.22c.07.8-3.24,1.2-7.47.95s-7.68-1.08-7.74-1.91C331,382.51,331.13,385.38,331.41,387.54Z"/><path class="cls-4" d="M336.8,345.37c-.25.7,2.17,3.28,5.65,5.65s6.74,3.52,7,2.86l.95-3.11c-.28.68-3.15-.63-6.63-3s-6.1-4.59-5.73-5.35A27.88,27.88,0,0,0,336.8,345.37Z"/><path class="cls-4" d="M345.55,329.32c-.32.64,1.42,3.14,4.08,5.38s5.33,3.42,5.72,2.8l1.31-2.86c-.35.62-2.62-.72-5.29-3s-4.49-4.29-4.07-5A31.1,31.1,0,0,0,345.55,329.32Z"/><path class="cls-4" d="M354.17,316c-.33.64.95,2.78,3.15,4.63s4.57,2.7,4.92,2.07l1.16-2.86c-.35.63-2.18-.38-4.37-2.23s-3.72-3.61-3.3-4.32C355.73,313.34,354.65,315.11,354.17,316Z"/><path class="cls-4" d="M360.85,302.51c-.23.71.82,2.32,2.53,3.35s3.9,1.26,4.2.23c.23-.76.56-2.78.56-2.78-.25.69-2.1.18-3.63-.58-1.37-.68-2.86-2.42-2.56-3.21C362,299.52,361.18,301.48,360.85,302.51Z"/></g></g></g></svg>