<?xml version="1.0" encoding="utf-8"?>
<!-- Generator: Adobe Illustrator 24.1.1, SVG Export Plug-In . SVG Version: 6.00 Build 0)  -->
<svg version="1.1" id="Capa_1" xmlns="http://www.w3.org/2000/svg" xmlns:xlink="http://www.w3.org/1999/xlink" x="0px" y="0px"
	 viewBox="0 0 267.9 226.8" style="enable-background:new 0 0 267.9 226.8;" xml:space="preserve">
<style type="text/css">
	.st0{fill:#FF4633;}
	.st1{fill:#FFFFFF;}
</style>
<g id="Capa_2_1_">
	<g id="Capa_1-2">
		<path class="st0" d="M253.9,226.8L76.1,26.2c-2.1-2.4-5.1-3.9-8.4-4.1l0,0c-2.8-0.2-5.6,0.8-7.7,2.6L13.5,66L0,50.9L49.9,6.7
			C55,2.1,61.8-0.3,68.7,0.2l0,0C75.5,0.6,82,3.7,86.6,8.9l181.4,204.6L253.9,226.8z"/>
		<polygon class="st1" points="254.1,197.9 229.8,199.6 238.3,209.2 262.7,207.6 		"/>
		<polygon class="st1" points="32.1,22.6 33.9,48.1 43.6,39.5 41.8,13.9 		"/>
		<polygon class="st1" points="11.9,40.5 13.8,66 23.4,57.3 21.7,31.7 		"/>
		<polygon class="st1" points="236.3,177.7 211.9,179.4 220.4,189 244.9,187.4 		"/>
		<polygon class="st1" points="218.4,157.5 194.1,159.2 202.6,168.9 227,167.3 		"/>
		<polygon class="st1" points="200.6,137.4 176.2,139.1 184.8,148.7 209.2,147.1 		"/>
		<polygon class="st1" points="182.7,117.2 158.4,118.9 166.9,128.5 191.4,126.9 		"/>
		<polygon class="st1" points="164.9,97 140.6,98.8 149.1,108.4 173.5,106.8 		"/>
		<polygon class="st1" points="147.1,76.9 122.7,78.6 131.2,88.2 155.7,86.6 		"/>
		<polygon class="st1" points="127.3,54.2 102.9,55.9 111.4,65.6 135.9,63.9 		"/>
		<polygon class="st1" points="107.8,32.5 83.5,34.2 92,43.8 116.4,42.2 		"/>
		<path class="st1" d="M85.4,7.7L69.2,22.2c0,0,2.1,0.1,6,2.9c0.2,0.2,20.2-6.3,20.2-6.3L85.4,7.7z"/>
		<path class="st1" d="M54,3.6l3.2,23.7c2.1-2,4.5-3.6,7.1-4.8c0.3-0.2,6.1-22.2,6.1-22.2S63.9-1.6,54,3.6z"/>
	</g>
</g>
</svg>
