<?xml version="1.0" encoding="utf-8"?>
<!-- Generator: Adobe Illustrator 24.1.1, SVG Export Plug-In . SVG Version: 6.00 Build 0)  -->
<svg version="1.1" id="Capa_1" xmlns="http://www.w3.org/2000/svg" xmlns:xlink="http://www.w3.org/1999/xlink" x="0px" y="0px"
	 viewBox="0 0 147.3 245.4" style="enable-background:new 0 0 147.3 245.4;" xml:space="preserve">
<style type="text/css">
	.st0{fill:#FFFFFF;}
	.st1{fill:#FF4633;}
	.st2{fill:#FF2000;}
	.st3{fill:#F0F0E2;}
</style>
<g id="Capa_2_1_">
	<g id="Capa_1-2">
		<path class="st0" d="M57.6,54.6l42-28.4l31,11.9l12.3,49.2l-17.8,46.5l-15.2,16.4l0.3,22.4l-23.8,62.1c0,0,0,0,0,0
			c-3.3,8.6-12.9,12.8-21.5,9.6l-54.3-20.8c-7.1-2.7-11.5-9.9-10.6-17.4c0.1-1.4,0.5-2.8,1-4.1l23.8-62l15.2-16.4l-0.3-22.4
			L57.6,54.6z"/>
		<path class="st1" d="M138.4,41.1L91.8,23.3L100.7,0l46.6,17.8L138.4,41.1z"/>
		<path class="st2" d="M131.2,25l-7.8-3l4.4-11.6l7.8,3L131.2,25z"/>
		<path class="st2" d="M115.7,19.1l-7.8-3l4.5-11.6l7.8,3L115.7,19.1z"/>
		<path class="st2" d="M16.3,199.5c12.2-2,24.5,2.7,32.2,12.3c5.9,7.5,15.4,11.1,24.7,9.5c6-1.1,12.1-0.5,17.7,1.8l-3,7.8
			c-4.3-1.8-9.1-2.2-13.7-1.3c-6,1.1-12.1,0.5-17.8-1.8c-5.7-2.1-10.7-5.7-14.4-10.5c-5.9-7.5-15.4-11.1-24.7-9.5
			c-5.8,1.1-11.8,0.5-17.3-1.6c0.1-1.4,0.5-2.8,1-4.1l1.5-3.9C6.9,200,11.7,200.4,16.3,199.5z"/>
		<path class="st2" d="M11.5,174.9c4.3,1.8,9.1,2.3,13.7,1.3c12.2-2,24.4,2.7,32.2,12.3c2.8,3.8,6.7,6.6,11.1,8.1
			c4.3,1.8,9.1,2.3,13.7,1.3c6-1.1,12.1-0.5,17.8,1.8l-3,7.8c-4.3-1.8-9.1-2.2-13.7-1.3c-6,1.1-12.1,0.5-17.7-1.8
			c-5.7-2-10.7-5.7-14.4-10.5c-5.9-7.5-15.4-11.1-24.7-9.5c-6,1.1-12.1,0.5-17.7-1.8L11.5,174.9z"/>
		<path class="st2" d="M20.4,151.7c4.3,1.8,9.1,2.2,13.7,1.3c12.2-2,24.5,2.7,32.2,12.3c2.8,3.7,6.6,6.6,11,8.1
			c4.3,1.8,9.1,2.3,13.7,1.4c6-1.1,12.1-0.5,17.8,1.8l-3,7.8c-4.3-1.8-9.1-2.3-13.7-1.3c-6,1.1-12.1,0.5-17.7-1.8
			c-5.7-2.1-10.7-5.7-14.4-10.5c-5.9-7.5-15.4-11.1-24.7-9.5c-6,1.1-12.1,0.5-17.8-1.8L20.4,151.7z"/>
		<path class="st1" d="M125.1,133.9l-85.3-32.7l17.8-46.6l85.3,32.7L125.1,133.9z"/>
		<path class="st3" d="M97.3,78.7c0,0,6.7,17.4,4.2,23.8c-2.5,6.3-9.5,9.4-15.9,7.1c-6.5-2.4-9.8-9.5-7.4-16
			C80.7,87.3,97.3,78.7,97.3,78.7z"/>
	</g>
</g>
</svg>
