<svg xmlns="http://www.w3.org/2000/svg" viewBox="0 0 203.44 215.39"><defs><style>.cls-1{fill:#fff;}.cls-2{fill:#364c6e;}</style></defs><title>bagRecurso 6</title><g id="Capa_2" data-name="Capa 2"><g id="Capa_1-2" data-name="Capa 1"><g id="Capa_1-2-2" data-name="Capa 1-2"><g id="Page-1"><path id="Shape" class="cls-1" d="M162.21,187.36c5.57-33.22,31.49-101,40.59-124.23a9.42,9.42,0,0,0-4.67-11.89l-7.32-3.59a2,2,0,0,0-2.67.9L187.45,50C158.9,102.57,79,63.45,102.91,8.58l.69-1.42a2,2,0,0,0-.82-2.6L95.45,1A9.42,9.42,0,0,0,83.2,4.58C70.49,26.06,32.86,88.11,10,112.86c-5,5.45-22.19,31.06,4.62,47.67S64,188.18,64,188.18l5.63,2.76s22.54,11,52.1,22S161,194.65,162.21,187.36Z"/><path class="cls-2" d="M187.49,50.08C146.8,127.42,66.82,88.27,103,8.7,79,63.54,158.88,102.66,187.49,50.08Z"/></g></g></g></g></svg>