<svg xmlns="http://www.w3.org/2000/svg" viewBox="0 0 166.76 247.89"><defs><style>.cls-1{fill:#ff2000;}.cls-2{fill:#fff;}.cls-3{fill:#ff4633;}</style></defs><title>cleanerRecurso 11</title><g id="Capa_2" data-name="Capa 2"><g id="Capa_1-2" data-name="Capa 1"><path class="cls-1" d="M148.78,43.31H38A12.88,12.88,0,0,1,25.14,30.43h0A30.43,30.43,0,0,1,55.56,0h93.22Z"/><path class="cls-2" d="M101.55,89.11v-27H50.77v27a28.44,28.44,0,0,1-15.45,25.56A63.73,63.73,0,0,0,0,171.73V236a12,12,0,0,0,12,11.94H140.37A12,12,0,0,0,152.32,236V171.73A63.73,63.73,0,0,0,117,114.67a28.44,28.44,0,0,1-15.45-25.56Z"/><path class="cls-3" d="M38.64,43.31h75V54.12a8,8,0,0,1-8,8H46.6a8,8,0,0,1-8-8V43.31Z"/><path class="cls-3" d="M148.78,0h18V22.65h-18Z"/><path class="cls-3" d="M147.73,84.15a39.05,39.05,0,0,1-14.88-30.77V43.31h15.93V53.38a23.18,23.18,0,0,0,8.84,18.28Z"/><path class="cls-3" d="M108.11,132.49H44.21a43.61,43.61,0,0,0-24.29,39.23V228H132.41V171.73a43.58,43.58,0,0,0-24.3-39.24Z"/><path class="cls-2" d="M102.68,155.89h-53a3.49,3.49,0,0,1,0-7h53a3.49,3.49,0,0,1,0,7Z"/><path class="cls-2" d="M112.5,174.44H39.82a3.49,3.49,0,0,1,0-7H112.5a3.49,3.49,0,0,1,0,7Z"/><path class="cls-2" d="M112.5,193H39.82a3.49,3.49,0,0,1,0-7H112.5a3.49,3.49,0,0,1,0,7Z"/><path class="cls-2" d="M112.5,211.56H39.82a3.49,3.49,0,0,1,0-7H112.5a3.49,3.49,0,0,1,0,7Z"/></g></g></svg>