<svg xmlns="http://www.w3.org/2000/svg" viewBox="0 0 190.34 357.53"><defs><style>.cls-1{fill:#fff;}.cls-2{fill:#ffff83;}.cls-3{fill:#ff4633;}.cls-4{fill:#ff2000;}.cls-5{fill:#95d5a7;}.cls-6{fill:#80cb93;}</style></defs><title>oilRecurso 16</title><g id="Capa_2" data-name="Capa 2"><g id="Capa_1-2" data-name="Capa 1"><path class="cls-1" d="M189.39,148.34a51.16,51.16,0,0,0-40.48-60l9.76-50.24-50.23-9.75L98.68,78.6a51.18,51.18,0,0,0-60,40.48L.49,315.83a12.78,12.78,0,0,0,10.12,15l125.58,24.39a12.8,12.8,0,0,0,15-10.12l38.2-196.75Z"/><path class="cls-2" d="M177.71,209.3c.1-.53-166.06,51.24-166.06,51.24C10.56,261.27.26,317.82.24,317.92a12.79,12.79,0,0,0,10.12,15L135.94,357.3a12.81,12.81,0,0,0,15-10.12Z"/><rect class="cls-3" x="53.12" y="141.3" width="102.34" height="85.29" transform="translate(-96.16 251.26) rotate(-79.01)"/><path class="cls-3" d="M47.8,251.17a42.64,42.64,0,0,0,83.72,16.25l1.62-8.37L49.42,242.79Z"/><rect class="cls-3" x="118.12" y="-17.77" width="34.11" height="85.29" transform="translate(84.99 152.83) rotate(-79.01)"/><rect class="cls-4" x="75.85" y="165.79" width="34.11" height="153.51" transform="translate(-162.9 287.52) rotate(-79.01)"/><ellipse class="cls-5" cx="105.1" cy="179.75" rx="25.59" ry="17.06" transform="translate(-82.57 89.54) rotate(-34.01)"/><ellipse class="cls-6" cx="121.96" cy="168.38" rx="5.25" ry="6.5" transform="translate(-73.32 97.02) rotate(-34.01)"/></g></g></svg>