<svg xmlns="http://www.w3.org/2000/svg" viewBox="0 0 189.84 250.42"><defs><style>.cls-1{fill:#fff;}.cls-2{fill:#ff4633;}.cls-3{fill:#ff2000;}.cls-4{fill:#f9b859;}.cls-5{fill:#e7a64a;}</style></defs><title>peanutRecurso 5</title><g id="Capa_2" data-name="Capa 2"><g id="Capa_1-2" data-name="Capa 1"><path class="cls-1" d="M132.15,23.16l14.52,8.63,43.17,169.83L178.33,221,62.54,250.42,43.17,238.91,0,69.08,8.64,54.56Z"/><path class="cls-2" d="M4.91,88.38,151.57,51.09l33.37,131.23L38.27,219.61Z"/><path class="cls-2" d="M2.75,31.4,126.26,0l5.89,23.16L8.64,54.56Z"/><path class="cls-3" d="M44.94,197.37l7.72-2,2,7.72-7.72,2Z"/><path class="cls-3" d="M60.38,193.44l7.72-2,2,7.72-7.72,2Z"/><path class="cls-3" d="M160.73,167.93l7.72-2,2,7.72-7.72,2Z"/><path class="cls-3" d="M32,97.93l7.72-2,2,7.72-7.72,2Z"/><path class="cls-3" d="M47.43,94l92.63-23.54,2,7.71L49.39,101.72Z"/><path class="cls-3" d="M28.19,115.33,132.41,88.84l2,7.72L30.16,123.05Z"/><path class="cls-4" d="M123,140.55a18.66,18.66,0,0,0-12,9.28,18.72,18.72,0,0,0-15-2.41,17,17,0,0,0-13.44,19.85,17,17,0,0,0,21.29,11,18.76,18.76,0,0,0,12-9.28,18.7,18.7,0,0,0,15,2.41,17,17,0,0,0,13.45-19.86A17,17,0,0,0,123,140.55Z"/><path class="cls-5" d="M110.7,149.71a18.72,18.72,0,0,0-14.77-2.29,17,17,0,0,0-13.44,19.85,15.55,15.55,0,0,0,11.34,10.94c.43-.6.85-1.22,1.24-1.87a27.15,27.15,0,0,0,3.85-13.94,27.3,27.3,0,0,0,10.39-10A29,29,0,0,0,110.7,149.71Z"/><path class="cls-4" d="M75.09,132a18.64,18.64,0,0,0-1.93,15.05A18.72,18.72,0,0,0,60.85,156a17,17,0,0,0,4.53,23.55,17,17,0,0,0,22.85-7.27,18.66,18.66,0,0,0,1.93-15.06,18.65,18.65,0,0,0,12.31-8.88,17,17,0,0,0-4.53-23.54A17,17,0,0,0,75.09,132Z"/></g></g></svg>