<svg xmlns="http://www.w3.org/2000/svg" viewBox="0 0 175.75 254.21"><defs><style>.cls-1{fill:#ff4633;}.cls-2{fill:#fff;}</style></defs><title>trashRecurso 15</title><g id="Capa_2" data-name="Capa 2"><g id="Capa_1-2" data-name="Capa 1"><path class="cls-1" d="M93.67,48.8C111.41,40.92,125,0,125,0H50.78S64.34,40.92,82.07,48.8C36.25,54.94,0,132.46,0,187c0,56.84,39.34,67.2,87.87,67.2s87.88-10.36,87.88-67.2c0-54.55-36.25-132.07-82.08-138.21Z"/><path class="cls-2" d="M29.41,212.59c-4.6-7.3-6.94-16.61-6.94-27.67,0-12.45,2.93-26.88,8.25-40.63l8.89,5.37c-4.67,12.08-7.24,24.6-7.24,35.26,0,8.2,1.56,14.84,4.64,19.72Z"/><path class="cls-2" d="M95.32,99.39l.43-33.33,18,24,9-5-26-35.74a43.88,43.88,0,0,0-17.78,0L51.64,84.09l9.11,5,20-23-.33,33.33Z"/><path class="cls-2" d="M96.76,49.32a44.11,44.11,0,0,0-8.89-.91v51h7.45l.43-33.33,18,24,9.36-5Z"/></g></g></svg>