<svg xmlns="http://www.w3.org/2000/svg" viewBox="0 0 150.37 260.08"><defs><style>.cls-1{fill:#fff;}.cls-2{fill:#ff4633;}.cls-3{fill:#ff2000;}.cls-4{fill:#f4f4e6;}</style></defs><title>waterRecurso 6</title><g id="Capa_2" data-name="Capa 2"><g id="Capa_1-2" data-name="Capa 1"><path class="cls-1" d="M130.1,140.76l-15.59,17.77,1,23.62L92.06,248.37a16,16,0,0,1-2,3.95,17.51,17.51,0,0,1-20.4,6.75L11.71,238.59A17.56,17.56,0,0,1,1,216.18L24.42,150,40,132.19l-1-23.62L56.6,58.91l43.61-31.15,33.11,11.7,14.34,51.63Z"/><path class="cls-2" d="M100.71,0l49.66,17.56-8.78,24.83L91.93,24.83Z"/><path class="cls-3" d="M113.12,4.39l8.28,2.93L117,19.73l-8.28-2.92Z"/><path class="cls-3" d="M129.68,10.24,138,13.17l-4.39,12.41-8.28-2.92Z"/><path class="cls-3" d="M93.53,244.23l-1.47,4.14a16,16,0,0,1-2,3.95,33.85,33.85,0,0,1-15-10.52,27.21,27.21,0,0,0-26.36-9.32A33.75,33.75,0,0,1,29.88,231a33.47,33.47,0,0,1-15.49-10.69A25.17,25.17,0,0,0,2.47,212l2.93-8.27a33.47,33.47,0,0,1,15.49,10.69,27.33,27.33,0,0,0,26.41,9.33,36.13,36.13,0,0,1,34.31,12.13A25,25,0,0,0,93.53,244.23Z"/><path class="cls-3" d="M99.38,227.67A33.37,33.37,0,0,1,83.86,217a27.35,27.35,0,0,0-26.4-9.33,33.41,33.41,0,0,1-18.8-1.42,33.47,33.47,0,0,1-15.51-10.7,25,25,0,0,0-11.9-8.3l2.93-8.28a33.49,33.49,0,0,1,15.51,10.71,24.93,24.93,0,0,0,11.9,8.29,25,25,0,0,0,14.48,1A36.07,36.07,0,0,1,90.39,211.1a25.05,25.05,0,0,0,11.91,8.3Z"/><path class="cls-3" d="M108.16,202.84a33.4,33.4,0,0,1-15.52-10.71,27.35,27.35,0,0,0-26.4-9.33,33.41,33.41,0,0,1-18.8-1.42,33.49,33.49,0,0,1-15.51-10.71A24.93,24.93,0,0,0,20,162.38L23,154.1a33.4,33.4,0,0,1,15.52,10.71,24.89,24.89,0,0,0,11.9,8.29,25,25,0,0,0,14.48,1,36.1,36.1,0,0,1,34.32,12.13,24.91,24.91,0,0,0,11.91,8.3Z"/><path class="cls-2" d="M56.6,58.91l91.06,32.18L130.1,140.76l-91-32.19Z"/><path class="cls-4" d="M104.31,108.36a13.17,13.17,0,1,1-24.84-8.78c2.43-6.86,19.74-16.3,19.74-16.3S106.73,101.5,104.31,108.36Z"/></g></g></svg>