<svg xmlns="http://www.w3.org/2000/svg" viewBox="0 0 187.68 239.6"><defs><style>.cls-1{fill:#ff4633;}.cls-2{fill:#fff;}.cls-3{fill:#ff2000;}.cls-4{fill:#7dbd83;}</style></defs><title>yogurtRecurso 13</title><g id="Capa_2" data-name="Capa 2"><g id="Capa_1-2" data-name="Capa 1"><path class="cls-1" d="M8,83.86,32,239.6h99.83L159.73,83.86Z"/><polygon class="cls-2" points="147.32 115.81 12.9 115.81 28.26 215.64 136.08 215.64 154 115.81 147.32 115.81"/><path class="cls-3" d="M0,59.9H167.72v24H0Z"/><path class="cls-2" d="M115.81,59.9l31.38-31.67V20L162.91,4.28a14.43,14.43,0,0,1,20.52,0,14.66,14.66,0,0,1,0,20.65L167.72,40.62h-8.21L139.77,59.9Z"/><path class="cls-1" d="M104,169.39l-9.14,22.86a11.79,11.79,0,0,1-21.9,0l-9.14-22.86a15.78,15.78,0,0,1,14.65-21.64H89.3A15.78,15.78,0,0,1,104,169.39Z"/><path class="cls-4" d="M78.42,147.75H89.3a15.72,15.72,0,0,1,6.22,1.3l4.31-17.27-16,8-16-8,4.31,17.27A15.72,15.72,0,0,1,78.42,147.75Z"/><path class="cls-2" d="M71.88,159.73h8v8h-8Z"/><path class="cls-2" d="M87.85,159.73h8v8h-8Z"/><path class="cls-2" d="M79.87,175.71h8v8h-8Z"/></g></g></svg>