<svg xmlns="http://www.w3.org/2000/svg" viewBox="0 0 603.01 360.84"><defs><style>.cls-1{fill:#ff4633;}</style></defs><title>decoContactRecurso 58</title><g id="Capa_2" data-name="Capa 2"><g id="Capa_1-2" data-name="Capa 1"><path class="cls-1" d="M156,78.54c3.4-1.41,17.34,2.5,25.7,2.5,13.52,0,24.48-2.28,24.48-5.09s-11-5.08-24.48-5.08c-8.61,0-23.17,4.51-26.16,3.51-2.11-.7-7.54-3.52-7.54-3.52l.52,11S154.13,79.31,156,78.54Z"/><path class="cls-1" d="M400,62.54c3.4-1.41,17.34,2.5,25.7,2.5,13.52,0,24.48-2.28,24.48-5.09s-11-5.08-24.48-5.08c-8.61,0-23.17,4.51-26.16,3.51-2.11-.7-7.54-3.52-7.54-3.52l.52,11S398.13,63.31,400,62.54Z"/><path class="cls-1" d="M58.18,196c0-2.81-11-5.08-24.48-5.08-8.61,0-23.17,4.51-26.16,3.51-2.11-.7-7.54-3.52-7.54-3.52l.52,11s5.61-2.59,7.48-3.36c3.4-1.41,17.34,2.5,25.7,2.5C47.22,201,58.18,198.76,58.18,196Z"/><path class="cls-1" d="M97.18,240c0-2.81-11-5.08-24.48-5.08-8.61,0-23.17,4.51-26.16,3.51-2.11-.7-7.54-3.52-7.54-3.52l.52,11s5.61-2.59,7.48-3.36c3.4-1.41,17.34,2.5,25.7,2.5C86.22,245,97.18,242.76,97.18,240Z"/><path class="cls-1" d="M527.1,67.32c.15-1.27.29-2.54.42-3.85,2.44-.13,6.51-.67,9.31-2.64,4.24-3,7-7.44,5.8-9.44s-6-1.08-10.3,1.91a17.14,17.14,0,0,0-4.42,5.14,89.58,89.58,0,0,0-.41-14.76c1.78-.19,5.69-.83,8-3,3.13-2.79,4.87-6.72,3.69-8.31s-5-.5-8.16,2.29c-1.89,1.7-3.14,4.65-3.83,6.72-.39-3.11-1-6.5-1.72-10.25a1.65,1.65,0,0,0-.16-.44c.14-3.07,0-7.9-1.75-11.33-2.77-5.4-6-6.33-8.4-4.92s-3.28,4.82-.51,10.22c1.78,3.47,5.57,6.19,8.06,7.7A118.46,118.46,0,0,1,524.86,47c-1.7-2.39-4.62-5.91-7.84-7.21-5.06-2-10.3-1.45-11.11,1.29s3,7,8.07,9c3.72,1.5,8.67.38,11-.32a106.47,106.47,0,0,1-.95,17.79l0,.28q-2.92.57-5.86,1.19a14.09,14.09,0,0,0-1.44-1.45c-4.81-4.09-10.49-5.74-12-3.47-1,1.49-.08,4.43,2,7.43-3.67.85-7.36,1.73-11.07,2.67C480.07,30.66,456.75,0,456.75,0s6.09,36,14.37,81c-51.67,15.3-106.75,38.65-159.58,69.33-10.61,6.16-21.25,12.7-31.85,19.52a3.19,3.19,0,0,0-.84-1.14c-2.69-2.24-9.31.09-14,4.91-2.32,2.36-3.59,5.9-4.29,8.92l-1.33.9a107.43,107.43,0,0,1-7.42-14.81c2.65-1.63,7.9-5.27,10.44-9.74,3.46-6.12,4.43-12.8,2-14.13s-7.67,3-11.14,9.08c-1.83,3.25-2.54,7.46-2.8,10.71a122.71,122.71,0,0,1-3.84-14.52c-.93-4.53-1.54-8.5-1.93-12.05,2.55-.59,6.41-1.85,8.83-4.3,3.87-3.92,5.91-9.16,4.29-11.11s-6.52-.16-10.4,3.76a16.68,16.68,0,0,0-3.2,5.13,107.24,107.24,0,0,1,1-17.29c.17-1.55.35-3.11.51-4.72,2.44-.13,6.51-.67,9.31-2.64,4.24-3,7-7.44,5.8-9.44s-6-1.08-10.3,1.91a17.14,17.14,0,0,0-4.42,5.14,89.58,89.58,0,0,0-.41-14.76c1.78-.19,5.69-.83,8-3,3.13-2.79,4.87-6.72,3.69-8.31s-5-.5-8.16,2.29c-1.89,1.7-3.14,4.65-3.83,6.72-.39-3.11-1-6.5-1.72-10.25a1.65,1.65,0,0,0-.16-.44c.14-3.07,0-7.9-1.75-11.33-2.77-5.4-6-6.33-8.4-4.92s-3.28,4.82-.51,10.22c1.78,3.47,5.57,6.19,8.06,7.7A118.46,118.46,0,0,1,242.86,93c-1.7-2.39-4.62-5.91-7.84-7.21-5.06-2-10.3-1.45-11.11,1.29s3,7,8.07,9c3.72,1.5,8.67.38,11-.32a106.47,106.47,0,0,1-1,17.79c-.37,3.22-.74,6.48-.93,10.1-1.2-3-3.37-7.51-6.4-10.08-4.81-4.09-10.49-5.74-12-3.47s1.42,8,6.23,12c3.72,3.15,9.6,4.14,12.09,4.42a107.12,107.12,0,0,0,2.52,24c.29,1.46.6,2.84.91,4.17-1.5-2.52-4.86-7.58-8.85-9.74-5.43-2.94-11.24-3.28-12.31-.68s2.86,7.53,8.29,10.47c4.67,2.53,11.44,1.77,13.25,1.51a96.81,96.81,0,0,0,7,19.86c-2.45-2.33-6.52-5.63-10.46-6.3-5.55-.93-10.81.62-12.11,3.39A688,688,0,0,0,203.22,108s6.65,58.43,10.19,108.74l-4.4,3.41q-1.37-8.33-3.17-16.86C193.07,143.41,157.75,97,157.75,97s6.23,36.79,14.64,82.48a21.11,21.11,0,0,0-7.36,5.08c-3.33,3.47-5.07,9.68-5.9,13.74a174.28,174.28,0,0,1-5.4-20.3c2.3-3.33,5.57-9,5.9-14.5.51-8.59-2.51-12.55-6.26-13.09s-7.35,2.47-7.86,11.06c-.33,5.45,2.16,11.84,4,15.79a2.41,2.41,0,0,0,.05.65c1.09,5.34,2.26,10.08,3.47,14.36-2-2.33-5.2-5.5-8.51-6.68-5.46-1.94-10.91-1.26-11.53,1.49s3.75,6.91,9.21,8.85c4.13,1.47,9.4.16,11.74-.57a132.06,132.06,0,0,0,7.6,19.54,23.67,23.67,0,0,0-8.39-4.3c-7-1.58-13.6-.1-14,3.17s5.5,7.58,12.49,9.16c4.61,1,10-.5,13.16-1.67,1.08,2,2.16,4,3.24,5.89a169.36,169.36,0,0,1,9.41,18.74L176.24,247a18.78,18.78,0,0,0-4.29-2.66c-7-3-14.19-2.65-15.16.79-.84,3,3.24,7.8,9,11q-5.19,4.59-10.19,9.17c-21.35-52.91-48.07-84-48.07-84s.4,32.3,18.7,84.19a178.21,178.21,0,0,0,8.46,19.73C106.5,313,84.86,339.51,74,360.84H603v-301C580.19,59.55,554.53,62.1,527.1,67.32Zm-296,111.18a17.88,17.88,0,0,0,9.12,4.24c5,.84,11-2.35,13.18-3.64,1.12,2.12,2.25,4.1,3.37,6.06q-9.8,6.74-19.43,13.71C235.35,192,233.24,185.15,231.05,178.5Zm-70.58,23.56c3.37-.39,10.21-1.66,14.06-5.66.29-.3.56-.6.83-.91L176,199c1.27,6.8,3,14,4.92,21.29-.09.17-.18.34-.26.52-2.39,5-2.65,12.11-2.51,16.69-2.22-4.63-4.48-8.68-6.72-12.69A156.17,156.17,0,0,1,160.47,202.06Z"/></g></g></svg>