<svg xmlns="http://www.w3.org/2000/svg" viewBox="0 0 171.12 195.7"><defs><style>.cls-1{fill:#021d42;}.cls-2{fill:#ff4633;}.cls-3{fill:#041f4a;}</style></defs><title>verMapaRecurso 56</title><g id="Capa_2" data-name="Capa 2"><g id="Capa_1-2" data-name="Capa 1"><path class="cls-1" d="M92.55,149.21c45.29,0,75,9.4,75,21s-36.71,21-82,21-82-9.4-82-21,32.71-21,78-21"/><path class="cls-2" d="M92.55,149c3.57-.22,7.15-.39,10.74-.49s7.17,0,10.76.08a198.08,198.08,0,0,1,21.57,1.69A98,98,0,0,1,157,155.59a42.16,42.16,0,0,1,5.2,2.53,25.12,25.12,0,0,1,5,3.69,13,13,0,0,1,3.67,6.17,10.35,10.35,0,0,1,.28,2,8.84,8.84,0,0,1-.18,2.17,10.56,10.56,0,0,1-1.57,3.71,18.61,18.61,0,0,1-4.73,4.73,34.81,34.81,0,0,1-5.13,3,75.92,75.92,0,0,1-10.54,4.1,158.69,158.69,0,0,1-21.44,4.88,285.28,285.28,0,0,1-43.35,3.09q-10.85-.09-21.7-.92c-7.22-.59-14.45-1.37-21.63-2.64a144.35,144.35,0,0,1-21.39-5.31A60.49,60.49,0,0,1,9,182.22a27.15,27.15,0,0,1-5-3.71,15.17,15.17,0,0,1-2.26-2.69,10.72,10.72,0,0,1-1.55-3.73A10.15,10.15,0,0,1,2,164.37a18.31,18.31,0,0,1,4.73-4.53,43,43,0,0,1,10.4-5,117.2,117.2,0,0,1,21.4-4.73c7.18-.9,14.38-1.38,21.56-1.57,3.59-.1,7.17-.13,10.76-.08s7.16.25,10.73.46v.5A258.4,258.4,0,0,0,39,152.77a115.57,115.57,0,0,0-20.66,5.29,41.47,41.47,0,0,0-9.44,4.78,14.89,14.89,0,0,0-3.7,3.64A6.34,6.34,0,0,0,4,171.28a8.48,8.48,0,0,0,2.72,4.24,22.75,22.75,0,0,0,4.29,3,56.9,56.9,0,0,0,9.78,4.13A140.31,140.31,0,0,0,41.6,187.5a275.89,275.89,0,0,0,42.59,3.21,285.32,285.32,0,0,0,42.63-2.8,152.75,152.75,0,0,0,20.87-4.43,69.68,69.68,0,0,0,10-3.7,34,34,0,0,0,4.6-2.6,14.54,14.54,0,0,0,3.76-3.57,6.65,6.65,0,0,0,1-2.29,5.86,5.86,0,0,0,0-2.5,9.33,9.33,0,0,0-2.56-4.38,28.72,28.72,0,0,0-8.86-5.66,95.71,95.71,0,0,0-20.47-5.86,241.76,241.76,0,0,0-42.58-3.46Z"/><path class="cls-2" d="M77,169.23,33,90.62C10.79,50.91,38.36,1.17,83.84,0l1.71,0h0l1.71,0c45.49,1.15,73.05,50.89,50.83,90.6l-44,78.61A9.77,9.77,0,0,1,77,169.23Z"/><circle class="cls-3" cx="85.55" cy="61.74" r="39.42"/><path class="cls-2" d="M75.37,51.94h3.75l-4,18.74H70.4L66.25,51.94H70l2.2,12c.2,1.05.33,2.12.43,3.2a15.36,15.36,0,0,1,.15,1.55h0A15.36,15.36,0,0,1,73,67.16c.1-1.08.22-2.15.42-3.2Z"/><path class="cls-2" d="M81.23,70.68V51.94h9.85v2.75H84.73v4.72h5.85v2.75H84.73v5.77h6.35v2.75Z"/><path class="cls-2" d="M97.28,62.61v8.07h-3.5V51.94h6.62c3,0,5.32,1.05,5.32,4.5,0,2.05-.52,4.2-2.87,4.52v0c2.07.28,2.7,1.6,2.7,3.4,0,.77-.1,5.37.75,5.92v.35h-3.85a18.87,18.87,0,0,1-.37-4.75c0-1.15,0-2.72-1.2-3.07a11,11,0,0,0-3-.25Zm0-2.75H100c1.15-.07,2-.82,2-2.7,0-2.1-.88-2.45-2.2-2.47h-2.6Z"/></g></g></svg>