<?xml version="1.0" encoding="utf-8"?>
<!-- Generator: Adobe Illustrator 24.1.1, SVG Export Plug-In . SVG Version: 6.00 Build 0)  -->
<svg version="1.1" id="Capa_1" xmlns="http://www.w3.org/2000/svg" xmlns:xlink="http://www.w3.org/1999/xlink" x="0px" y="0px"
	 viewBox="0 0 146 146" style="enable-background:new 0 0 146 146;" xml:space="preserve">
<style type="text/css">
	.st0{fill:none;}
	.st1{fill:#FFFFFF;}
	.st2{fill:#041F4A;}
	.st3{fill:url(#SVGID_1_);}
	.st4{fill:url(#SVGID_2_);}
	.st5{fill:url(#SVGID_3_);}
	.st6{fill:url(#SVGID_4_);}
	.st7{clip-path:url(#SVGID_6_);fill:#FF4D33;}
	.st8{fill:url(#SVGID_7_);}
</style>
<pattern  y="146" width="1922" height="354.3" patternUnits="userSpaceOnUse" id="Nueva_muestra_de_motivo_1" viewBox="0 -354.3 1922 354.3" style="overflow:visible;">
	<g>
		<rect y="-354.3" class="st0" width="1922" height="354.3"/>
		<rect x="0" y="-354.3" class="st0" width="1922" height="354.3"/>
		<rect x="0" y="-354.3" class="st1" width="1922" height="354.3"/>
	</g>
</pattern>
<g>
	<path class="st2" d="M127.9,145.9H18.1c-10,0-18.1-8.1-18.1-18.1V18.1C0,8.1,8.1-0.1,18.1-0.1h109.7c10,0,18.1,8.1,18.1,18.1v109.7
		C146,137.8,137.9,145.9,127.9,145.9z"/>
	<g>
		
			<pattern  id="SVGID_1_" xlink:href="#Nueva_muestra_de_motivo_1" patternTransform="matrix(1.2814 0 0 -1.2814 1440.3063 -18301.1211)">
		</pattern>
		<path class="st3" d="M33.3,102.3c0-2-0.9-4.6-3.2-4.6c-2.7,0-3.8,2.8-3.8,9.6c0,6.6,0.6,10.8,3.8,10.8c2.1-0.3,3.6-2.2,3.4-4.4
			v-2.8H30v-4.1h9v14.8h-4.1V119h-0.1c-1.2,2-3.4,3.2-5.8,3.1c-6.8,0-8.2-5.1-8.2-14.6c0-9.2,2.2-14,9.2-14c6.1,0,8.5,3.1,8.5,8.7
			L33.3,102.3z"/>
		
			<pattern  id="SVGID_2_" xlink:href="#Nueva_muestra_de_motivo_1" patternTransform="matrix(1.2814 0 0 -1.2814 1440.3063 -18301.1211)">
		</pattern>
		<path class="st4" d="M42.3,107.2v-0.5c0-4.8,3.3-6.4,7.3-6.4c6.3,0,7.5,2.6,7.5,6.4v10.9c-0.1,1.4,0.1,2.7,0.7,4h-5.1
			c-0.3-0.7-0.5-1.4-0.7-2.2h-0.1c-1.3,2.2-2.7,2.7-5.3,2.7c-3.7,0-5-3.2-5-5.9c0-3.8,1.6-5.5,5.2-6.4l3.1-0.9
			c1.6-0.4,2.1-1,2.1-2.4c0-1.6-0.7-2.6-2.5-2.6c-1.3-0.1-2.4,0.9-2.5,2.3c0,0.1,0,0.3,0,0.4v0.6L42.3,107.2z M52,111.2
			c-0.7,0.5-1.5,0.8-2.3,1c-2.2,0.5-3,1.5-3,3.3c0,1.6,0.6,2.9,2,2.9c1.7,0.1,3.2-1.3,3.3-3c0-0.1,0-0.1,0-0.2L52,111.2z"/>
		
			<pattern  id="SVGID_3_" xlink:href="#Nueva_muestra_de_motivo_1" patternTransform="matrix(1.2814 0 0 -1.2814 1440.3063 -18301.1211)">
		</pattern>
		<path class="st5" d="M60.9,100.9H66v2.1h0.1c1.1-1.7,3.1-2.8,5.2-2.7c2.2-0.2,4.2,1.2,4.8,3.3h0.1c0.8-2.1,2.9-3.5,5.2-3.3
			c3.5,0,5.1,2.2,5.1,6.2v15h-5.3v-14.5c0-1.7-0.6-2.7-2.1-2.7s-2.8,1.2-2.8,3.5v13.6H71v-14.5c0-1.7-0.6-2.7-2.1-2.7
			c-1.5,0-2.8,1.2-2.8,3.5v13.6h-5.3V100.9z"/>
		
			<pattern  id="SVGID_4_" xlink:href="#Nueva_muestra_de_motivo_1" patternTransform="matrix(1.2814 0 0 -1.2814 1440.3063 -18301.1211)">
		</pattern>
		<path class="st6" d="M94.5,112v1.7c0,2.4,0.7,4.8,2.6,4.8c1.8,0,2.6-1.3,2.8-3.8h4.8c-0.2,4.8-2.6,7.5-7.5,7.5
			c-7.7,0-8-5.9-8-11.1c0-5.5,1.1-10.7,8.2-10.7c6.2,0,7.6,4.2,7.6,10.5v1.2L94.5,112z M99.9,108.9c-0.1-3.2-0.5-4.9-2.7-4.9
			s-2.7,2.2-2.7,4.1v0.8H99.9z"/>
		<g>
			<g>
				<defs>
					<rect id="SVGID_5_" x="11.5" y="23.6" width="123.1" height="57.4"/>
				</defs>
				<clipPath id="SVGID_6_">
					<use xlink:href="#SVGID_5_"  style="overflow:visible;"/>
				</clipPath>
				<path class="st7" d="M51.9,77.4c0,1.8-1.5,3.3-3.3,3.3s-3.3-1.5-3.3-3.3c0-1.8,1.5-3.3,3.3-3.3c0,0,0,0,0,0
					C50.4,74.1,51.9,75.6,51.9,77.4"/>
				<path class="st7" d="M51.5,52.3c0-3.9,0.2-7.7,0.6-11.5c0.3-3.2,1.2-6.3,2.6-9.1c1.3-2.5,3.2-4.5,5.7-5.9
					c3.1-1.6,6.5-2.3,10-2.1c3.5-0.2,6.9,0.6,10,2.1c2.4,1.4,4.4,3.4,5.7,5.9c1.4,2.8,2.3,5.9,2.6,9.1c0.4,3.8,0.6,7.7,0.6,11.5
					c0,3.9-0.2,7.7-0.6,11.5C88.3,67,87.4,70.1,86,73c-1.3,2.5-3.3,4.5-5.7,5.9c-3.1,1.6-6.5,2.3-10,2.1c-3.5,0.2-6.9-0.6-10-2.1
					c-2.4-1.4-4.4-3.4-5.7-5.9c-1.4-2.8-2.3-5.9-2.6-9.1C51.7,60,51.5,56.2,51.5,52.3 M62.6,52.3c0,3.7,0.1,6.9,0.3,9.5
					c0.1,2.2,0.5,4.3,1.1,6.3c0.4,1.4,1.2,2.6,2.3,3.6c2.4,1.5,5.5,1.5,8,0c1.1-0.9,1.9-2.2,2.3-3.6c0.6-2.1,1-4.2,1.1-6.3
					c0.2-2.6,0.3-5.8,0.3-9.5c0-3.7-0.1-6.9-0.3-9.4c-0.1-2.2-0.5-4.3-1.1-6.4c-0.4-1.4-1.2-2.6-2.4-3.5c-2.4-1.5-5.5-1.5-8,0
					c-1.1,0.9-1.9,2.2-2.3,3.6c-0.6,2.1-1,4.2-1.1,6.4C62.8,45.5,62.7,48.7,62.6,52.3"/>
				<path class="st7" d="M103.1,62.7v1.6c0,1.2,0.1,2.4,0.3,3.5c0.2,1,0.6,1.9,1.2,2.7c0.6,0.7,1.4,1.3,2.2,1.7
					c1.2,0.5,2.4,0.7,3.6,0.6c1.7,0,3.3-0.6,4.6-1.7c1.4-1.3,2.2-3.2,2.1-5.1c0-1.1-0.2-2.2-0.6-3.2c-0.4-0.9-0.9-1.8-1.7-2.4
					c-0.9-0.8-1.9-1.5-3-2c-1.5-0.7-3.1-1.3-4.7-1.8c-2.2-0.7-4.4-1.6-6.4-2.8c-1.7-0.9-3.2-2.1-4.5-3.4c-1.2-1.3-2.1-2.8-2.7-4.5
					c-0.6-2-0.9-4-0.9-6c0-5.4,1.5-9.5,4.6-12.2s7.2-4.1,12.5-4.1c2.3,0,4.6,0.3,6.8,0.8c2,0.5,3.8,1.3,5.4,2.6
					c1.5,1.2,2.8,2.8,3.5,4.6c0.9,2.1,1.3,4.5,1.3,6.8V40h-10.7c0.1-2.1-0.4-4.2-1.4-6.1c-1.1-1.5-2.8-2.3-4.6-2.1
					c-1.1,0-2.1,0.2-3.1,0.6c-0.8,0.3-1.4,0.8-2,1.4c-0.5,0.6-0.8,1.3-1,2.1c-0.2,0.8-0.3,1.6-0.3,2.4c0,1.5,0.4,3,1.2,4.3
					c1.2,1.5,2.8,2.6,4.6,3.2l8.6,3.7c1.8,0.8,3.5,1.8,5.1,2.9c1.3,0.9,2.4,2,3.3,3.2c0.8,1.2,1.4,2.5,1.7,3.8
					c0.3,1.5,0.5,3.1,0.5,4.6c0,5.8-1.7,10.1-5.1,12.8c-3.4,2.7-8.1,4.1-14.1,4.1c-6.3,0-10.8-1.4-13.5-4.2C93.4,74,92,70,92,64.9
					v-2.2H103.1z"/>
				<path class="st7" d="M45.9,59.4c-0.3-1.4-0.9-2.7-1.7-3.8c-0.9-1.3-2-2.3-3.3-3.2c-1.6-1.1-3.3-2.1-5.1-2.9l-8.6-3.7
					c-1.8-0.6-3.4-1.7-4.6-3.2c-0.8-1.3-1.1-2.8-1.1-4.3c0-0.8,0.1-1.6,0.3-2.4c0.2-0.8,0.5-1.5,1-2.1c0.5-0.6,1.2-1.1,2-1.4
					c1-0.4,2-0.6,3.1-0.6c1.8-0.2,3.6,0.6,4.6,2.1c1,1.9,1.5,4,1.4,6.1h10.7v-1.5c0.1-2.3-0.4-4.6-1.3-6.8c-0.8-1.8-2-3.4-3.6-4.6
					c-1.6-1.2-3.5-2.1-5.4-2.6c-2.2-0.6-4.5-0.8-6.8-0.8c-5.3,0-9.5,1.3-12.5,4c-1.6,1.4-2.8,3.2-3.4,5.2l6.7,20.7
					c0.1,0.1,0.2,0.1,0.3,0.2c2,1.1,4.2,2,6.4,2.8c1.6,0.5,3.2,1.1,4.7,1.8c1.1,0.5,2.1,1.2,3,2c0.7,0.7,1.3,1.5,1.7,2.5
					c0.4,1,0.5,2.1,0.5,3.2c0.1,1.9-0.6,3.8-2.1,5.1c-1.3,1.1-2.9,1.7-4.6,1.7c-1.2,0-2.5-0.2-3.6-0.6c-0.1-0.1-0.3-0.1-0.4-0.2
					l2.9,9h0.2c6,0,10.7-1.4,14.1-4.1c3.4-2.7,5.1-7,5.1-12.8C46.4,62.6,46.2,61,45.9,59.4"/>
				<path class="st7" d="M92.8,77.6c0,1.9-1.5,3.4-3.4,3.4S86,79.5,86,77.6c0-1.9,1.5-3.4,3.4-3.4S92.8,75.7,92.8,77.6L92.8,77.6"/>
				<path class="st7" d="M134.5,77.6c0,1.9-1.5,3.4-3.4,3.4c-1.9,0-3.4-1.5-3.4-3.4c0-1.9,1.5-3.4,3.4-3.4
					C133,74.2,134.5,75.7,134.5,77.6L134.5,77.6"/>
			</g>
			
				<pattern  id="SVGID_7_" xlink:href="#Nueva_muestra_de_motivo_1" patternTransform="matrix(1.2814 0 0 -1.2814 1440.3063 -18301.0449)">
			</pattern>
			<path class="st8" d="M111.7,114.9v0.7c-0.2,1.5,0.8,2.8,2.3,3c0.2,0,0.3,0,0.5,0c1.6,0,2.7-0.8,2.7-2.5c0-1.1-0.8-2.1-1.9-2.3
				l-3.7-1.3c-2.9-1-4.4-2.8-4.4-5.8c0-3.4,2.2-6.2,7.6-6.2c4.8,0,7.1,2.2,7.1,5.9v0.8H117c0-2.1-0.6-3.1-2.3-3.1
				c-1.2-0.1-2.4,0.8-2.5,2c0,0.1,0,0.2,0,0.2c0,1,0.5,1.8,2.3,2.4l3.2,1.1c3.3,1.1,4.6,2.8,4.6,5.9c0,4.3-3.2,6.5-7.7,6.5
				c-6,0-7.6-2.6-7.6-6.6V115L111.7,114.9z"/>
		</g>
	</g>
</g>
</svg>
