<svg xmlns="http://www.w3.org/2000/svg" viewBox="0 0 312.1 38.47"><defs><style>.cls-1{fill:#fff;}.cls-2{fill:#ff4d33;}</style></defs><title>logo2Recurso 18</title><g id="Capa_2" data-name="Capa 2"><g id="Capa_1-2" data-name="Capa 1"><path class="cls-1" d="M0,.73H13.07a10.73,10.73,0,0,1,4.79,1A8.63,8.63,0,0,1,21,4.2a9.68,9.68,0,0,1,1.71,3.55,15.94,15.94,0,0,1,.52,4.07,13.26,13.26,0,0,1-.86,5A9,9,0,0,1,20,20.27a10,10,0,0,1-3.71,2,16.23,16.23,0,0,1-4.82.67h-4V37.75H0ZM7.47,17.47h3.31a4.93,4.93,0,0,0,3.61-1.34,5.69,5.69,0,0,0,1.37-4.2A6.62,6.62,0,0,0,14.57,7.7a4.84,4.84,0,0,0-4-1.48H7.47Z"/><path class="cls-1" d="M25.87,37.75V.73h7.47v30.9H46.56v6.12Z"/><path class="cls-1" d="M57,.73h9.23l9.8,37H68.2l-1.71-7.83H56.63l-1.71,7.83H47.15Zm1,23.07h7.26L61.61,7.16h-.1Z"/><path class="cls-1" d="M83.55,26.19v1.08a12.15,12.15,0,0,0,.2,2.36,4.13,4.13,0,0,0,.78,1.79A3.75,3.75,0,0,0,86,32.56a6,6,0,0,0,2.44.42,4.76,4.76,0,0,0,3.09-1.12,4.19,4.19,0,0,0,1.37-3.45,6.1,6.1,0,0,0-.34-2.15,4.17,4.17,0,0,0-1.11-1.63,8.06,8.06,0,0,0-2-1.32,27.74,27.74,0,0,0-3.14-1.22A25.34,25.34,0,0,1,82,20.25a12.6,12.6,0,0,1-3-2.31,7.94,7.94,0,0,1-1.79-3,12.83,12.83,0,0,1-.57-4q0-5.45,3.06-8.17T88.06,0a18.4,18.4,0,0,1,4.59.54,9.77,9.77,0,0,1,3.63,1.77,8.32,8.32,0,0,1,2.38,3.11A11,11,0,0,1,99.52,10v1H92.36a7.45,7.45,0,0,0-.93-4.07A3.43,3.43,0,0,0,88.32,5.5a5.24,5.24,0,0,0-2.08.36,3.47,3.47,0,0,0-1.32,1,3.26,3.26,0,0,0-.67,1.37,6.63,6.63,0,0,0-.19,1.61,5.4,5.4,0,0,0,.73,2.88,6.49,6.49,0,0,0,3.11,2.15l5.76,2.49a19.36,19.36,0,0,1,3.45,1.94,9.32,9.32,0,0,1,2.17,2.18A7.22,7.22,0,0,1,100.4,24a14.18,14.18,0,0,1,.31,3.11c0,3.91-1.13,6.77-3.4,8.61s-5.42,2.74-9.46,2.74c-4.22,0-7.23-.94-9-2.82s-2.72-4.54-2.72-8v-1.5Z"/><path class="cls-1" d="M125.08.73V6.84H117V37.75h-7.47V6.84h-8.08V.73Z"/><path class="cls-1" d="M127.62,37.75V.73h7.47v37Z"/><path class="cls-1" d="M139.6.73h20.69V6.84H147.07v8.72h12.44v6.11H147.07V37.75H139.6Z"/><path class="cls-1" d="M162.93,37.75V.73h7.47v37Z"/><path class="cls-1" d="M190.72,13.22a13.4,13.4,0,0,0-1-5.88,3.58,3.58,0,0,0-3.5-1.84,3.48,3.48,0,0,0-2.3.75,5,5,0,0,0-1.43,2.44,20.61,20.61,0,0,0-.72,4.4q-.21,2.73-.21,6.67a65,65,0,0,0,.28,6.79,15.39,15.39,0,0,0,.88,4,3.69,3.69,0,0,0,1.51,1.92,4.4,4.4,0,0,0,2.1.49,4.86,4.86,0,0,0,1.84-.34,3.1,3.1,0,0,0,1.48-1.35,8.77,8.77,0,0,0,1-2.85,26.1,26.1,0,0,0,.37-4.85h7.46A33.61,33.61,0,0,1,198,29.3,13.27,13.27,0,0,1,196.3,34a8.87,8.87,0,0,1-3.58,3.24,13,13,0,0,1-6,1.19A13.46,13.46,0,0,1,180,37.05a9.53,9.53,0,0,1-3.81-4A17.17,17.17,0,0,1,174.52,27a71.29,71.29,0,0,1-.39-7.75,71.16,71.16,0,0,1,.39-7.75,17.29,17.29,0,0,1,1.71-6.1,9.56,9.56,0,0,1,3.81-4A13.35,13.35,0,0,1,186.73,0,12.85,12.85,0,0,1,193,1.3a8.78,8.78,0,0,1,3.45,3.29,11.39,11.39,0,0,1,1.43,4.3,35.38,35.38,0,0,1,.28,4.33Z"/><path class="cls-1" d="M208,.73h9.23l9.8,37h-7.78l-1.71-7.83h-9.85L206,37.75h-7.78Zm1,23.07h7.26L212.66,7.16h-.1Z"/><path class="cls-2" d="M256.53,19.24a73.91,73.91,0,0,1,.38-7.75,17.08,17.08,0,0,1,1.72-6.1,9.56,9.56,0,0,1,3.81-4,16.36,16.36,0,0,1,13.38,0,9.69,9.69,0,0,1,3.81,4,17.29,17.29,0,0,1,1.71,6.1,71.16,71.16,0,0,1,.39,7.75,71.29,71.29,0,0,1-.39,7.75,17.17,17.17,0,0,1-1.71,6.09,9.65,9.65,0,0,1-3.81,4,16.47,16.47,0,0,1-13.38,0,9.53,9.53,0,0,1-3.81-4A17,17,0,0,1,256.91,27,74.05,74.05,0,0,1,256.53,19.24Zm7.46,0c0,2.49.06,4.6.18,6.35a17.76,17.76,0,0,0,.73,4.25,4.68,4.68,0,0,0,1.56,2.39,5.13,5.13,0,0,0,5.34,0,4.73,4.73,0,0,0,1.55-2.39,17.76,17.76,0,0,0,.73-4.25c.12-1.75.18-3.86.18-6.35s-.06-4.6-.18-6.33a18,18,0,0,0-.73-4.25,4.71,4.71,0,0,0-1.55-2.41,5.13,5.13,0,0,0-5.34,0,4.66,4.66,0,0,0-1.56,2.41,18,18,0,0,0-.73,4.25Q264,15.51,264,19.24Z"/><path class="cls-2" d="M291.11,26.19v1.08a12.11,12.11,0,0,0,.21,2.36,4.13,4.13,0,0,0,.78,1.79,3.75,3.75,0,0,0,1.5,1.14A6,6,0,0,0,296,33a4.72,4.72,0,0,0,3.08-1.12,4.16,4.16,0,0,0,1.38-3.45,6.34,6.34,0,0,0-.34-2.15A4.3,4.3,0,0,0,299,24.63a8,8,0,0,0-2-1.32,28.51,28.51,0,0,0-3.14-1.22,25.34,25.34,0,0,1-4.3-1.84,12.66,12.66,0,0,1-3-2.31,8.07,8.07,0,0,1-1.79-3,12.83,12.83,0,0,1-.57-4q0-5.45,3.06-8.17T295.62,0a18.4,18.4,0,0,1,4.59.54,9.77,9.77,0,0,1,3.63,1.77,8.24,8.24,0,0,1,2.39,3.11,11,11,0,0,1,.85,4.54v1h-7.15A7.45,7.45,0,0,0,299,6.92a3.43,3.43,0,0,0-3.11-1.42,5.19,5.19,0,0,0-2.07.36,3.33,3.33,0,0,0-1.32,1,3.27,3.27,0,0,0-.68,1.37,7.16,7.16,0,0,0-.18,1.61,5.31,5.31,0,0,0,.73,2.88,6.49,6.49,0,0,0,3.11,2.15l5.75,2.49a19,19,0,0,1,3.45,1.94,9.38,9.38,0,0,1,2.18,2.18A7.2,7.2,0,0,1,308,24a14.18,14.18,0,0,1,.31,3.11c0,3.91-1.13,6.77-3.39,8.61s-5.42,2.74-9.46,2.74q-6.33,0-9.05-2.82t-2.73-8v-1.5Z"/><circle class="cls-2" cx="254.53" cy="36.05" r="2.23"/><circle class="cls-2" cx="281.75" cy="36.05" r="2.23"/><circle class="cls-2" cx="309.87" cy="36.05" r="2.23"/><path class="cls-2" d="M253,11.3a16.1,16.1,0,0,0-1.79-5.67A9,9,0,0,0,247.45,2,13.3,13.3,0,0,0,241.18.73H228.94V23.27l3.88,14.48h7.89a14.56,14.56,0,0,0,6.17-1.14,9,9,0,0,0,3.89-3.48,16.1,16.1,0,0,0,2-5.91,52.13,52.13,0,0,0,.6-8.5A53.87,53.87,0,0,0,253,11.3Zm-7.23,14a13.07,13.07,0,0,1-.94,4.1,4.5,4.5,0,0,1-1.92,2.23,6.43,6.43,0,0,1-3.13.67h-3.32v-26h3.16A6.27,6.27,0,0,1,243,7a5,5,0,0,1,1.92,2.41,14.06,14.06,0,0,1,.85,4c.14,1.58.21,3.42.21,5.53Q246,22.71,245.72,25.25Z"/></g></g></svg>