<svg xmlns="http://www.w3.org/2000/svg" viewBox="0 0 273.67 33.74"><defs><style>.cls-1{fill:#041f4a;}.cls-2{fill:#ff4d33;}</style></defs><title>logoRecurso 15</title><g id="Capa_2" data-name="Capa 2"><g id="Capa_1-2" data-name="Capa 1"><path class="cls-1" d="M0,.64H11.46a9.44,9.44,0,0,1,4.2.84,7.55,7.55,0,0,1,2.75,2.2,8.53,8.53,0,0,1,1.5,3.12,13.76,13.76,0,0,1,.46,3.57,11.57,11.57,0,0,1-.75,4.38,8,8,0,0,1-2.09,3,8.73,8.73,0,0,1-3.25,1.77,14.46,14.46,0,0,1-4.23.59H6.55v13H0ZM6.55,15.32H9.46a4.33,4.33,0,0,0,3.16-1.18,5,5,0,0,0,1.2-3.68,5.83,5.83,0,0,0-1-3.71,4.27,4.27,0,0,0-3.5-1.29H6.55Z"/><path class="cls-1" d="M22.69,33.1V.64h6.54v27.1h11.6V33.1Z"/><path class="cls-1" d="M49.93.64H58L66.62,33.1H59.8l-1.5-6.87H49.66l-1.5,6.87H41.34Zm.87,20.23h6.36L54,6.27h-.09Z"/><path class="cls-1" d="M73.26,23v1A10.9,10.9,0,0,0,73.44,26a3.58,3.58,0,0,0,.68,1.57,3.27,3.27,0,0,0,1.32,1,5.2,5.2,0,0,0,2.14.37,4.18,4.18,0,0,0,2.7-1,3.64,3.64,0,0,0,1.21-3,5.35,5.35,0,0,0-.3-1.89,3.67,3.67,0,0,0-1-1.43,6.75,6.75,0,0,0-1.79-1.16,25.32,25.32,0,0,0-2.75-1.07,21.77,21.77,0,0,1-3.78-1.62,11,11,0,0,1-2.66-2,7.06,7.06,0,0,1-1.56-2.64,11,11,0,0,1-.5-3.54q0-4.77,2.68-7.16A10.69,10.69,0,0,1,77.21,0a16,16,0,0,1,4,.48A8.5,8.5,0,0,1,84.42,2a7.31,7.31,0,0,1,2.09,2.73,9.62,9.62,0,0,1,.75,4v.91H81a6.55,6.55,0,0,0-.82-3.57,3,3,0,0,0-2.73-1.25,4.6,4.6,0,0,0-1.82.32A3.08,3.08,0,0,0,74.46,6a2.94,2.94,0,0,0-.59,1.2,6.62,6.62,0,0,0-.16,1.41,4.68,4.68,0,0,0,.64,2.53A5.63,5.63,0,0,0,77.08,13l5,2.19a16.44,16.44,0,0,1,3,1.7,8.23,8.23,0,0,1,1.91,1.91,6.28,6.28,0,0,1,1,2.25,12.12,12.12,0,0,1,.28,2.73c0,3.42-1,5.94-3,7.55s-4.75,2.41-8.3,2.41q-5.55,0-7.93-2.48a9.66,9.66,0,0,1-2.39-7V23Z"/><path class="cls-1" d="M109.68.64V6h-7.1V33.1H96V6h-7.1V.64Z"/><path class="cls-1" d="M111.9,33.1V.64h6.55V33.1Z"/><path class="cls-1" d="M122.41.64h18.14V6H129v7.64h10.91V19H129V33.1h-6.55Z"/><path class="cls-1" d="M142.87,33.1V.64h6.55V33.1Z"/><path class="cls-1" d="M167.24,11.59a11.82,11.82,0,0,0-.84-5.16,3.16,3.16,0,0,0-3.07-1.61,3.08,3.08,0,0,0-2,.66,4.42,4.42,0,0,0-1.25,2.14,18.31,18.31,0,0,0-.63,3.86q-.18,2.38-.18,5.84a56,56,0,0,0,.25,6,12.83,12.83,0,0,0,.77,3.52,3.24,3.24,0,0,0,1.32,1.69,3.88,3.88,0,0,0,1.84.43,4.31,4.31,0,0,0,1.61-.3,2.79,2.79,0,0,0,1.3-1.18,7.77,7.77,0,0,0,.86-2.5,23,23,0,0,0,.32-4.25h6.55a29.6,29.6,0,0,1-.41,5,11.53,11.53,0,0,1-1.52,4.16A7.87,7.87,0,0,1,169,32.69a11.4,11.4,0,0,1-5.25,1.05,11.85,11.85,0,0,1-5.87-1.25A8.48,8.48,0,0,1,154.53,29a15.23,15.23,0,0,1-1.5-5.34,62.21,62.21,0,0,1-.34-6.8,62.08,62.08,0,0,1,.34-6.8,15.11,15.11,0,0,1,1.5-5.34,8.36,8.36,0,0,1,3.34-3.48A11.85,11.85,0,0,1,163.74,0a11.29,11.29,0,0,1,5.52,1.14,7.74,7.74,0,0,1,3,2.88,10.22,10.22,0,0,1,1.25,3.78,32.38,32.38,0,0,1,.25,3.79Z"/><path class="cls-1" d="M182.38.64h8.09l8.6,32.46h-6.82l-1.51-6.87h-8.63l-1.5,6.87h-6.82Zm.86,20.23h6.37l-3.14-14.6h-.09Z"/><path class="cls-2" d="M224.94,16.87a62.08,62.08,0,0,1,.34-6.8,14.71,14.71,0,0,1,1.5-5.34,8.3,8.3,0,0,1,3.34-3.48,14.38,14.38,0,0,1,11.73,0,8.3,8.3,0,0,1,3.34,3.48,14.71,14.71,0,0,1,1.5,5.34,62.08,62.08,0,0,1,.34,6.8,62.21,62.21,0,0,1-.34,6.8,14.82,14.82,0,0,1-1.5,5.34,8.42,8.42,0,0,1-3.34,3.48,14.38,14.38,0,0,1-11.73,0A8.42,8.42,0,0,1,226.78,29a14.82,14.82,0,0,1-1.5-5.34A62.21,62.21,0,0,1,224.94,16.87Zm6.54,0c0,2.18.06,4,.16,5.57a15.62,15.62,0,0,0,.64,3.73,4.18,4.18,0,0,0,1.36,2.09,4.5,4.5,0,0,0,4.69,0,4.18,4.18,0,0,0,1.36-2.09,15.62,15.62,0,0,0,.64-3.73c.1-1.53.16-3.39.16-5.57s-.06-4-.16-5.55a15.91,15.91,0,0,0-.64-3.73,4.15,4.15,0,0,0-1.36-2.11,4.5,4.5,0,0,0-4.69,0,4.15,4.15,0,0,0-1.36,2.11,15.91,15.91,0,0,0-.64,3.73C231.54,12.84,231.48,14.69,231.48,16.87Z"/><path class="cls-2" d="M255.26,23v1a10.1,10.1,0,0,0,.19,2.06,3.47,3.47,0,0,0,.68,1.57,3.27,3.27,0,0,0,1.32,1,5.12,5.12,0,0,0,2.13.37,4.22,4.22,0,0,0,2.71-1,3.67,3.67,0,0,0,1.2-3A5.6,5.6,0,0,0,263.2,23a3.78,3.78,0,0,0-1-1.43,6.82,6.82,0,0,0-1.8-1.16,24.53,24.53,0,0,0-2.75-1.07,22,22,0,0,1-3.77-1.62,10.76,10.76,0,0,1-2.66-2,7.08,7.08,0,0,1-1.57-2.64,11.32,11.32,0,0,1-.5-3.54q0-4.77,2.68-7.16A10.71,10.71,0,0,1,259.22,0a15.88,15.88,0,0,1,4,.48A8.54,8.54,0,0,1,266.43,2a7.31,7.31,0,0,1,2.09,2.73,9.62,9.62,0,0,1,.75,4v.91H263a6.46,6.46,0,0,0-.82-3.57,3,3,0,0,0-2.72-1.25,4.57,4.57,0,0,0-1.82.32,3,3,0,0,0-1.16.84,2.82,2.82,0,0,0-.59,1.2,6,6,0,0,0-.16,1.41,4.77,4.77,0,0,0,.63,2.53A5.74,5.74,0,0,0,259.08,13l5.05,2.19a16.32,16.32,0,0,1,3,1.7,8,8,0,0,1,1.91,1.91,6.3,6.3,0,0,1,1,2.25,12.76,12.76,0,0,1,.27,2.73q0,5.13-3,7.55c-2,1.6-4.75,2.41-8.29,2.41q-5.55,0-7.94-2.48t-2.38-7V23Z"/><circle class="cls-2" cx="223.19" cy="31.61" r="1.96"/><circle class="cls-2" cx="247.06" cy="31.61" r="1.96"/><circle class="cls-2" cx="271.71" cy="31.61" r="1.96"/><path class="cls-2" d="M221.8,9.91a14.16,14.16,0,0,0-1.57-5A7.9,7.9,0,0,0,217,1.75a11.73,11.73,0,0,0-5.5-1.11H200.75V20.4l3.4,12.7h6.92a12.75,12.75,0,0,0,5.41-1,7.85,7.85,0,0,0,3.41-3.05,14.14,14.14,0,0,0,1.8-5.18,47.09,47.09,0,0,0,.52-7.46A47.42,47.42,0,0,0,221.8,9.91Zm-6.34,12.23a11.4,11.4,0,0,1-.82,3.59,4,4,0,0,1-1.68,2,5.72,5.72,0,0,1-2.75.59H207.3V5.46h2.77a5.55,5.55,0,0,1,3,.7,4.37,4.37,0,0,1,1.68,2.11,12.17,12.17,0,0,1,.75,3.48c.12,1.38.18,3,.18,4.85C215.66,18.81,215.59,20.66,215.46,22.14Z"/></g></g></svg>