<?xml version="1.0" encoding="utf-8"?>
<!-- Generator: Adobe Illustrator 24.1.1, SVG Export Plug-In . SVG Version: 6.00 Build 0)  -->
<svg version="1.1" id="Capa_1" xmlns="http://www.w3.org/2000/svg" xmlns:xlink="http://www.w3.org/1999/xlink" x="0px" y="0px"
	 viewBox="0 0 59.5 47.4" style="enable-background:new 0 0 59.5 47.4;" xml:space="preserve">
<style type="text/css">
	.st0{fill:#FF4633;}
</style>
<g id="Capa_2_1_">
	<g id="Capa_1-2">
		<path class="st0" d="M30,0.9c-0.6-0.3-1.3-0.2-1.8,0.2l-10,8l-6.3,5H4.3c-1,0-1.9,0.4-2.5,1.2C1.3,15.9,1,16.6,1,17.4v13.4
			c0,1.8,1.5,3.3,3.3,3.3H12l16.2,13c0.3,0.2,0.6,0.3,1,0.4c0.3,0,0.5-0.1,0.7-0.2c0.6-0.3,1-0.8,1-1.5V2.4C31,1.8,30.6,1.2,30,0.9z
			"/>
		<path class="st0" d="M38.8,5.1c-0.8,0-1.5,0.7-1.5,1.5s0.7,1.5,1.5,1.5c9.2,0,16.7,7.5,16.7,16.7S48,41.4,38.8,41.4c0,0,0,0,0,0
			c-0.8,0-1.5,0.7-1.5,1.5s0.7,1.5,1.5,1.5c10.9,0,19.7-8.8,19.7-19.7S49.7,5.1,38.8,5.1C38.8,5.1,38.8,5.1,38.8,5.1z"/>
		<path class="st0" d="M49.4,24.8c0-6.3-5.1-11.4-11.4-11.4c-0.8,0-1.5,0.7-1.5,1.5s0.7,1.5,1.5,1.5c4.6,0,8.4,3.8,8.4,8.4
			s-3.8,8.4-8.4,8.4c-0.8,0-1.5,0.7-1.5,1.5s0.7,1.5,1.5,1.5C44.3,36.2,49.4,31.1,49.4,24.8z"/>
	</g>
</g>
</svg>
