<svg xmlns="http://www.w3.org/2000/svg" xmlns:xlink="http://www.w3.org/1999/xlink" viewBox="0 0 46.6 46.61"><defs><style>.cls-1{fill:none;}.cls-2{fill:#fff;}.cls-3{fill:url(#Nueva_muestra_de_motivo_1);}</style><pattern id="Nueva_muestra_de_motivo_1" data-name="Nueva muestra de motivo 1" width="1922" height="354.28" patternTransform="translate(-2432 3)" patternUnits="userSpaceOnUse" viewBox="0 0 1922 354.28"><rect class="cls-1" width="1922" height="354.28"/><rect class="cls-2" width="1922" height="354.28"/></pattern></defs><title>soundOffRecurso 19</title><g id="Capa_2" data-name="Capa 2"><g id="Capa_1-2" data-name="Capa 1"><path class="cls-3" d="M36.62,1.67a1.68,1.68,0,0,0-.94-1.5,1.61,1.61,0,0,0-1.76.2L19.17,12.13,36.62,29.57Z"/><path class="cls-3" d="M46.12,43.77,2.84.49A1.67,1.67,0,0,0,.49,2.85L11,13.32H10a3.25,3.25,0,0,0-2.53,1.2,3.29,3.29,0,0,0-.79,2.13V30A3.33,3.33,0,0,0,10,33.3h7.73l16.21,13a1.72,1.72,0,0,0,1,.36,1.88,1.88,0,0,0,.73-.16,1.68,1.68,0,0,0,.94-1.5V39l7.14,7.14a1.65,1.65,0,0,0,1.18.49,1.66,1.66,0,0,0,1.18-2.84Z"/></g></g></svg>