<svg xmlns="http://www.w3.org/2000/svg" viewBox="0 0 277.83 76"><defs><style>.cls-1{fill:#ff4633;}</style></defs><title>controlesRecurso 15</title><g id="Capa_2" data-name="Capa 2"><g id="Capa_1-2" data-name="Capa 1"><path class="cls-1" d="M46.08,4.58H10a10,10,0,0,0-10,10V50.67a10,10,0,0,0,10,9.95H46.08a10,10,0,0,0,10-9.95V14.54A10,10,0,0,0,46.08,4.58ZM43.89,34.19a2.25,2.25,0,0,1-3.17,0L30.5,24V49.41a2.24,2.24,0,1,1-4.48,0V24L15.31,34.75a2.2,2.2,0,0,1-1.58.65,2.24,2.24,0,0,1-1.59-3.82L26.71,17a2.23,2.23,0,0,1,3.17,0l14,14A2.23,2.23,0,0,1,43.89,34.19Z"/><path class="cls-1" d="M96.36,62.5h36.13a10,10,0,0,0,9.95-10V16.42a10,10,0,0,0-9.95-10H96.36a10,10,0,0,0-10,10V52.54A10,10,0,0,0,96.36,62.5Zm2.19-29.6a2.23,2.23,0,0,1,3.17,0l10.22,10.22V17.67a2.24,2.24,0,1,1,4.48,0V43l10.71-10.7a2.23,2.23,0,0,1,3.17,0,2.25,2.25,0,0,1,0,3.17L115.73,50.08a2.25,2.25,0,0,1-3.17,0l-14-14A2.23,2.23,0,0,1,98.55,32.9Z"/><polyline class="cls-1" points="196.87 13 209.87 0 222.37 12.5"/><polyline class="cls-1" points="222.8 63 209.8 76 197.3 63.5"/><path class="cls-1" d="M238.87,12.44a5.1,5.1,0,0,1-5.26-4.91V7.42a5.1,5.1,0,0,1,5.25-4.91c9.48,0,10.41,0,24.58,0,7.95,0,14.39,6,14.39,13.45V31.91a13.33,13.33,0,0,1-7.39,11.75L243.13,57.88l-1.23-1.49A7.06,7.06,0,0,1,242.68,46l4.84-4-34.31,0A5.1,5.1,0,0,1,208,37.11h0a5.09,5.09,0,0,1,5.26-4.91h21.16a5.09,5.09,0,0,1-5.13-4.91v-.11a5.1,5.1,0,0,1,5.26-4.91h1.7A5.09,5.09,0,0,1,231,17.36h0a5.09,5.09,0,0,1,5.26-4.91Z"/></g></g></svg>