<svg id="Capa_1" data-name="Capa 1" xmlns="http://www.w3.org/2000/svg" viewBox="0 0 273.67 33.74"><defs><style>.cls-1{fill:#fff;}.cls-2{fill:#ff4d33;}</style></defs><g id="Capa_2" data-name="Capa 2"><g id="Capa_1-2" data-name="Capa 1-2"><path class="cls-1" d="M0,.64H11.46a9.35,9.35,0,0,1,4.2.84,7.56,7.56,0,0,1,2.75,2.2,8.51,8.51,0,0,1,1.5,3.12,13.82,13.82,0,0,1,.46,3.57,11.52,11.52,0,0,1-.75,4.38,8.06,8.06,0,0,1-2.09,3,8.6,8.6,0,0,1-3.25,1.77,14.75,14.75,0,0,1-4.23.59H6.55v13H0ZM6.55,15.32H9.46a4.35,4.35,0,0,0,3.16-1.18,5,5,0,0,0,1.2-3.68,5.83,5.83,0,0,0-1-3.71,4.29,4.29,0,0,0-3.5-1.29H6.55Z"/><path class="cls-1" d="M22.69,33.1V.64h6.54v27.1h11.6V33.1Z"/><path class="cls-1" d="M49.93.64H58L66.62,33.1H59.8l-1.5-6.87H49.66l-1.5,6.87H41.34Zm.87,20.23h6.36L54,6.27h-.09Z"/><path class="cls-1" d="M73.26,23v1a11.19,11.19,0,0,0,.18,2,3.62,3.62,0,0,0,.68,1.57,3.25,3.25,0,0,0,1.32,1,5.23,5.23,0,0,0,2.14.37,4.17,4.17,0,0,0,2.7-1,3.64,3.64,0,0,0,1.21-3,5.54,5.54,0,0,0-.3-1.89,3.68,3.68,0,0,0-1-1.43,6.79,6.79,0,0,0-1.79-1.16,24.83,24.83,0,0,0-2.75-1.07,21.73,21.73,0,0,1-3.78-1.62,11.05,11.05,0,0,1-2.66-2,7.09,7.09,0,0,1-1.56-2.64,10.87,10.87,0,0,1-.5-3.54q0-4.77,2.68-7.16A10.7,10.7,0,0,1,77.21,0a15.87,15.87,0,0,1,4,.48A8.34,8.34,0,0,1,84.42,2a7.37,7.37,0,0,1,2.09,2.73,9.62,9.62,0,0,1,.75,4v.91H81a6.55,6.55,0,0,0-.82-3.57,3,3,0,0,0-2.73-1.25,4.54,4.54,0,0,0-1.82.32A3.1,3.1,0,0,0,74.46,6a2.87,2.87,0,0,0-.59,1.2,6.7,6.7,0,0,0-.16,1.41,4.68,4.68,0,0,0,.64,2.53A5.57,5.57,0,0,0,77.08,13l5,2.19a16.43,16.43,0,0,1,3,1.7A8.24,8.24,0,0,1,87,18.8a6.24,6.24,0,0,1,1,2.25,11.94,11.94,0,0,1,.28,2.73q0,5.13-3,7.55c-2,1.61-4.75,2.41-8.3,2.41q-5.55,0-7.93-2.48a9.68,9.68,0,0,1-2.39-7V23Z"/><path class="cls-1" d="M109.68.64V6h-7.1V33.1H96V6H88.9V.64Z"/><path class="cls-1" d="M111.9,33.1V.64h6.55V33.1Z"/><path class="cls-1" d="M122.41.64h18.14V6H129v7.64h10.91V19H129V33.1h-6.55Z"/><path class="cls-1" d="M142.87,33.1V.64h6.55V33.1Z"/><path class="cls-1" d="M167.24,11.59a11.84,11.84,0,0,0-.84-5.16,3.17,3.17,0,0,0-3.07-1.61,3.09,3.09,0,0,0-2,.66,4.4,4.4,0,0,0-1.25,2.14,18,18,0,0,0-.63,3.86c-.12,1.59-.18,3.53-.18,5.84a57.22,57.22,0,0,0,.25,6,12.89,12.89,0,0,0,.77,3.52,3.26,3.26,0,0,0,1.32,1.69,3.92,3.92,0,0,0,1.84.43,4.42,4.42,0,0,0,1.61-.3,2.81,2.81,0,0,0,1.3-1.18,7.65,7.65,0,0,0,.86-2.5,22.42,22.42,0,0,0,.32-4.25h6.55a28.84,28.84,0,0,1-.41,5,11.53,11.53,0,0,1-1.52,4.16,7.91,7.91,0,0,1-3.16,2.8,11.44,11.44,0,0,1-5.25,1.05,11.94,11.94,0,0,1-5.87-1.25A8.47,8.47,0,0,1,154.53,29a15.27,15.27,0,0,1-1.5-5.34,61.81,61.81,0,0,1-.34-6.8,61.81,61.81,0,0,1,.34-6.8,15.06,15.06,0,0,1,1.5-5.34,8.42,8.42,0,0,1,3.34-3.48A11.82,11.82,0,0,1,163.74,0a11.31,11.31,0,0,1,5.52,1.14,7.76,7.76,0,0,1,3,2.88,10.16,10.16,0,0,1,1.25,3.78,32,32,0,0,1,.25,3.79Z"/><path class="cls-1" d="M182.38.64h8.09l8.6,32.46h-6.82l-1.51-6.87h-8.63l-1.5,6.87h-6.82Zm.86,20.23h6.37l-3.14-14.6h-.09Z"/><path class="cls-2" d="M224.94,16.87a61.81,61.81,0,0,1,.34-6.8,14.86,14.86,0,0,1,1.5-5.34,8.24,8.24,0,0,1,3.34-3.48,14.36,14.36,0,0,1,11.73,0,8.24,8.24,0,0,1,3.34,3.48,14.86,14.86,0,0,1,1.5,5.34,61.81,61.81,0,0,1,.34,6.8,61.81,61.81,0,0,1-.34,6.8,14.86,14.86,0,0,1-1.5,5.34,8.42,8.42,0,0,1-3.34,3.48,14.36,14.36,0,0,1-11.73,0A8.45,8.45,0,0,1,226.78,29a14.86,14.86,0,0,1-1.5-5.34A61.63,61.63,0,0,1,224.94,16.87Zm6.54,0c0,2.18.06,4,.16,5.57a15.75,15.75,0,0,0,.64,3.73,4.14,4.14,0,0,0,1.36,2.09,4.5,4.5,0,0,0,4.69,0,4.14,4.14,0,0,0,1.36-2.09,15.75,15.75,0,0,0,.64-3.73c.1-1.53.16-3.39.16-5.57s-.06-4-.16-5.55a15.75,15.75,0,0,0-.64-3.73,4.13,4.13,0,0,0-1.36-2.11,4.5,4.5,0,0,0-4.69,0,4.13,4.13,0,0,0-1.36,2.11,15.75,15.75,0,0,0-.64,3.73C231.54,12.84,231.48,14.69,231.48,16.87Z"/><path class="cls-2" d="M255.26,23v1a10.19,10.19,0,0,0,.19,2.06,3.51,3.51,0,0,0,.68,1.57,3.25,3.25,0,0,0,1.32,1,5.18,5.18,0,0,0,2.13.37,4.22,4.22,0,0,0,2.71-1,3.66,3.66,0,0,0,1.2-3,5.43,5.43,0,0,0-.29-2,3.78,3.78,0,0,0-1-1.43,6.84,6.84,0,0,0-1.8-1.16,24.08,24.08,0,0,0-2.75-1.07,21.64,21.64,0,0,1-3.77-1.62,10.61,10.61,0,0,1-2.66-2,7,7,0,0,1-1.57-2.64,11.48,11.48,0,0,1-.5-3.54q0-4.77,2.68-7.16A10.71,10.71,0,0,1,259.22,0a15.87,15.87,0,0,1,4,.48A8.56,8.56,0,0,1,266.43,2a7.37,7.37,0,0,1,2.09,2.73,9.62,9.62,0,0,1,.75,4v.91H263a6.47,6.47,0,0,0-.82-3.57,3,3,0,0,0-2.72-1.25,4.54,4.54,0,0,0-1.82.32,2.94,2.94,0,0,0-1.16.84,2.87,2.87,0,0,0-.59,1.2,6.1,6.1,0,0,0-.16,1.41,4.76,4.76,0,0,0,.63,2.53A5.76,5.76,0,0,0,259.08,13l5.05,2.19a16.43,16.43,0,0,1,3,1.7A7.88,7.88,0,0,1,269,18.8a6.24,6.24,0,0,1,1,2.25,12.52,12.52,0,0,1,.27,2.73q0,5.13-3,7.55c-2,1.6-4.75,2.41-8.29,2.41q-5.55,0-7.94-2.48a9.64,9.64,0,0,1-2.38-7V23Z"/><circle class="cls-2" cx="223.19" cy="31.61" r="1.96"/><circle class="cls-2" cx="247.06" cy="31.61" r="1.96"/><circle class="cls-2" cx="271.71" cy="31.61" r="1.96"/><path class="cls-2" d="M221.8,9.91a14.18,14.18,0,0,0-1.57-5A7.93,7.93,0,0,0,217,1.75,11.73,11.73,0,0,0,211.5.64H200.75V20.4l3.4,12.7h6.92a12.88,12.88,0,0,0,5.41-1,7.93,7.93,0,0,0,3.41-3.05,14.22,14.22,0,0,0,1.8-5.18,47.73,47.73,0,0,0,.52-7.46A47.08,47.08,0,0,0,221.8,9.91Zm-6.34,12.23a11.37,11.37,0,0,1-.82,3.59,4,4,0,0,1-1.68,2,5.69,5.69,0,0,1-2.75.59H207.3V5.46h2.77a5.59,5.59,0,0,1,3,.7,4.36,4.36,0,0,1,1.68,2.11,12.23,12.23,0,0,1,.75,3.48c.12,1.38.18,3,.18,4.85C215.66,18.81,215.59,20.66,215.46,22.14Z"/></g></g></svg>