<svg xmlns="http://www.w3.org/2000/svg" viewBox="0 0 537.38 631.72"><defs><style>.cls-1{fill:#78abff;}.cls-2{fill:#ff2000;}.cls-3{fill:#ff4031;}.cls-4{fill:red;}.cls-5{fill:#ff4d33;}.cls-6{fill:#041f4a;}.cls-7{fill:#13235c;}.cls-8{fill:#fff;}</style></defs><title>plantsRecurso 8</title><g id="Capa_2" data-name="Capa 2"><g id="Capa_1-2" data-name="Capa 1"><path class="cls-1" d="M220,325.22c-4.13,5.45-3.34,19.21-3.3,26.07a125,125,0,0,0,3.54,28.49c4.56,19,11.68,37.28,14.6,56.69a173.06,173.06,0,0,1,1.68,34.79c-.59,11.34-2.63,21.44-5.47,32.41q-8.86,34.27-16.2,68.9c-1.25,5.91-10.24,28,1.36,28.64,4.55.23,6.42-6.21,7.05-9.3,4.3-21.13,6.6-38.36,11.24-54.37,5.55-19.12,13.12-38.64,15.18-58.47a163,163,0,0,0-5.07-59.45c-4.4-16.16-11.37-31.5-16.43-47.46a133.67,133.67,0,0,1-5.6-24.31c-.85-7,.51-16.33-2.43-22.82Z"/><path class="cls-2" d="M447.24,247.49c3,6.66,2.42,23.45,2.39,31.82a252.23,252.23,0,0,1-2.57,34.78c-3.32,23.22-8.49,45.51-10.61,69.2a353.59,353.59,0,0,0-1.22,42.47,316.62,316.62,0,0,0,4,39.56q6.45,41.83,11.78,84.11c.91,7.22,7.44,34.24-1,35-3.31.28-4.66-7.58-5.12-11.35-3.13-25.8-4.8-46.84-8.17-66.37-4-23.35-9.54-47.17-11-71.38a329.9,329.9,0,0,1,3.68-72.56c3.2-19.74,8.26-38.46,11.94-57.94a259.43,259.43,0,0,0,4.07-29.68c.62-8.57-.37-19.93,1.77-27.85Z"/><path class="cls-3" d="M474.19,593.57c-6.29-4-7-16.82-7.61-22.93A81.74,81.74,0,0,1,469.17,542c6.17-24.06,21.29-41.74,26.37-65.9,3.3-15.71-2.09-35.9-6-50.71-4.24-16-13.6-30.45-19.59-45.89A105,105,0,0,1,462.58,339c.05-2.4-.22-9.28,8.09-10.32,5.58-.69,8.63,2,9.07,6.2.62,6,2.9,11.7,5.12,17.34,8.38,21.29,25,39,37.45,58.75,16.78,26.6,20.84,63.56,5.46,95.33-6.15,12.7-15.85,25.4-23.77,37.8a289.65,289.65,0,0,0-20.79,38.48c-1,2.16-2.81,9.62-5.72,11A3.23,3.23,0,0,1,474.19,593.57Z"/><path class="cls-4" d="M537.38,466.2c0,1.37-8.94,3.93-20.34,5.29s-20.84.93-20.85-.44l.4-6.46c0,1.37,8.82,1.37,20.22,0s20.51-3.49,20.5-4.86Z"/><path class="cls-4" d="M528.85,504.26c-.6,1.37-10.31,2.33-21.94,1.57s-21.08-2.67-20.58-4.05l4-8.94c-.5,1.38,8.34,3,20,3.8s21.34.32,21.84-1.06C532.13,495.58,530.48,500.55,528.85,504.26Z"/><path class="cls-4" d="M531.17,429c.4,1.29-7.23,5.11-17.67,8.24s-19.74,4.24-20.24,3l-1.44-5.73c.5,1.26,8.82-.2,19.26-3.33s18.43-6.27,17.8-7.7C528.88,423.4,530.6,427.09,531.17,429Z"/><path class="cls-4" d="M513.72,398.39c.63,1.22-5.1,5.09-13.24,8.26s-15.91,4.43-16.62,3.24l-2.42-5.31c.71,1.19,7.44-.5,15.58-3.67s14-6.22,13.1-7.56A43.69,43.69,0,0,1,513.72,398.39Z"/><path class="cls-4" d="M495.62,372.68c.65,1.21-3.75,4.57-10.45,7.18s-13.52,3.41-14.23,2.22l-2-5.29c.71,1.19,6.1-.05,12.81-2.66s11.56-5.24,10.71-6.59C492.43,367.54,494.69,370.93,495.62,372.68Z"/><path class="cls-4" d="M482.85,347.13c.34,1.3-3.16,3.83-8.24,5.14s-11.11,1.08-11.54-.81a39.29,39.29,0,0,1-.37-5c.38,1.3,5.64.92,10.09,0,4-.79,8.74-3.41,8.26-4.88C481.05,341.58,482.37,345.25,482.85,347.13Z"/><path class="cls-5" d="M252.28,494.54c6.84,2.56,13.11,8.74,17.71,14.35a173,173,0,0,1-8.2-43.32c-5.68-.45-19.83-2.26-28.61-9.4-11.18-9.1-17.93-22-14.22-27.33s17-1.91,28.2,7.19c6.65,5.41,11.44,14.88,14.24,21.67-.11-3-.16-6.14-.16-9.44,0-23.05,2.61-38.61,6.06-51.47-6.15-2.05-18.08-6.88-24.72-15.1-9.22-11.4-13.37-25.52-8.73-29.92s17,1.93,26.23,13.33c5.25,6.5,8.12,16.26,9.62,23.46,1.09-3.48,2.22-6.83,3.35-10.15,4-11.89,7.89-23.34,9.94-40.18-6.55.56-18.82.83-27.32-3.71-12.1-6.46-20.25-17.3-17.19-23s16.62-4.95,28.72,1.51c7.19,3.84,13,11.83,16.55,17.68.48-5.95.75-12.54.75-20a237.14,237.14,0,0,0-1.11-23.87c-5.27.36-17.44.53-25.4-4.72-10.4-6.85-17.1-17.81-14.14-23.27s14.9-4.15,25.29,2.7c5.74,3.78,10.26,11,13.17,16.73-2.15-14.22-5.65-24.56-9.26-35.26-1.41-4.15-2.83-8.35-4.17-12.81-4.69,1.57-17.6,5.24-26.92,1.74-11.58-4.34-20.21-13.75-18.22-20s14.15-7.85,25.73-3.51c7.35,2.76,13.91,10.51,17.73,15.81a178.88,178.88,0,0,1-5.73-39.88c-3.6-.2-17-1.39-25-7.92-9.32-7.59-15-18.33-11.86-22.78s14.19-1.59,23.51,6c6.87,5.59,11.35,16.35,13.25,21.65-.08-2.62-.12-5.33-.12-8.16,0-19.81,1.93-34.09,4.66-45.88-4.71-1.49-15.68-5.58-21.61-12.92-7.68-9.5-11.14-21.27-7.27-24.94s14.19,1.61,21.87,11.12c4.82,6,7.23,15.23,8.36,21.31,1.79-6.7,3.81-12.65,5.8-18.54,3.41-10.11,6.72-19.89,8.89-32.93-4.85.39-14.87.58-21.45-3.65-9-5.77-14.65-15.2-12-20s13-3.91,22,1.85c5.7,3.67,10,11.38,12.28,16.5a218.67,218.67,0,0,0,1.75-28.19C280.28,33.13,274,26.57,272,19.39c-3.2-11.18-.09-17.21,5-18.94s11.08,1.27,14.28,12.44c2,7.1.38,16.19-1.1,21.89a3.58,3.58,0,0,1,.12.87c0,7.33-.26,13.89-.73,19.85,2.15-3.6,5.73-8.65,10.05-11.09,7.14-4,15-4.61,16.68-1.17S313,53.36,305.89,57.4c-5.39,3-13.2,2.75-16.7,2.42a167.28,167.28,0,0,1-5.07,27.8c3-3.12,6.65-6.28,10.58-7.94,9.39-4,19.15-3.81,20.66.39s-5.57,11.47-14.95,15.44c-6.2,2.62-14.27,2-19,1.37-.94,2.94-1.91,5.79-2.86,8.62-3.34,9.87-6.57,19.43-8.74,32a32.12,32.12,0,0,1,8.21-8.38c9-5.85,19.24-7.32,21.6-3s-3.67,13.3-12.71,19.16c-5.66,3.66-13.61,4.52-18.76,4.66-.67,6.79-1.06,14.44-1.06,23.29a223.53,223.53,0,0,0,1.66,28.66c1.79-6,4.83-13.61,9.67-19,9.12-10.13,21-16.17,25.13-12.73s-.38,15.56-9.5,25.68c-6.68,7.4-18.27,12.18-24,14.22,2.17,12,5.3,21.27,8.54,30.83.32,1,.65,1.93,1,2.9,2.32-6,6.74-14.85,13.7-19.38,11.05-7.2,24.77-9,29.07-3.79s-1.8,16.32-12.85,23.52c-8.05,5.24-21.3,5.84-27.91,5.78,4.12,12.94,7.78,27.69,8.62,50.56,3.09-6.68,7.88-15.59,13.36-20.56,9.54-8.65,19.78-11.43,21.68-5.81s-5,18.37-14.53,27c-6.5,5.89-15.35,7.49-20.33,7.91,0,.57,0,1.12,0,1.7,0,18.51-1.68,32.2-4.13,43.53,3.91-4.55,9.43-9.91,15.4-12.43,11.49-4.85,23.42-4.66,25.27.48s-6.81,14-18.29,18.88c-8.1,3.43-18.83,2.41-24.44,1.51-1.74,6.43-3.69,12.19-5.61,17.88-4.36,12.89-8.54,25.25-10.42,44.52,3-5.66,7.5-12.66,13.21-16.35,10.58-6.85,22.73-8.17,25.75-2.71s-3.81,16.43-14.4,23.28c-7.8,5.05-19.58,5.08-25.23,4.75-.24,4.38-.37,9.09-.37,14.19,0,18.27,1.63,31.46,4.05,42.48,1.59-6.54,4.43-14.73,9.35-20.31,9.39-10.65,22.07-16.51,26.86-12.34s.62,17.42-8.77,28.08c-6.7,7.58-18.72,12-25.08,13.94,1.56,5.52,3.29,10.64,5.05,15.84,2.29,6.78,4.62,13.67,6.59,21.66,2.44-5.89,6.71-13.86,13.18-18.07,11.05-7.2,24.77-9,29.07-3.79s-1.8,16.32-12.85,23.52c-8,5.2-21.08,5.83-27.75,5.79,2.14,10.78,3.56,23.71,3.56,40.74a2.91,2.91,0,1,1-5.81,0c0-31.89-4.94-48.33-10.44-64.69-6.54,2-20.49,5.46-30.79,1.6-13.9-5.21-24.24-16.49-21.85-24S238.38,489.33,252.28,494.54Z"/><path class="cls-2" d="M276.34.3c-5.13,1.72-8.11,7.64-4.91,18.82,2.06,7.18,8.31,13.74,12.52,17.51a220.48,220.48,0,0,1-1.75,28.19c-2.33-5.12-6.58-12.83-12.29-16.5-9-5.76-19.33-6.67-22-1.85s3.05,14.25,12,20c6.58,4.24,16.6,4,21.45,3.65-2.17,13.05-5.48,22.83-8.89,32.94-2,5.89-4,11.84-5.8,18.54-1.13-6.08-3.54-15.35-8.36-21.32-7.68-9.5-18-14.78-21.87-11.11s-.41,15.44,7.27,24.94c5.93,7.34,16.9,11.43,21.61,12.92-2.73,11.79-4.66,26.07-4.66,45.88,0,2.83,0,5.54.12,8.16-1.9-5.3-6.39-16.06-13.25-21.65-9.32-7.58-20.42-10.45-23.51-6s2.54,15.19,11.86,22.78c8,6.53,21.41,7.72,25,7.92A179.4,179.4,0,0,0,266.66,224c-3.82-5.3-10.38-13.05-17.73-15.81-11.58-4.34-23.73-2.72-25.73,3.51s6.64,15.64,18.22,20c9.32,3.5,22.23-.17,26.92-1.74,1.34,4.46,2.76,8.66,4.17,12.81,3.61,10.7,7.1,21,9.26,35.26-2.91-5.73-7.43-13-13.17-16.73-10.39-6.85-22.33-8.16-25.29-2.7s3.74,16.42,14.14,23.27c8,5.24,20.13,5.08,25.4,4.72A237.14,237.14,0,0,1,284,310.46c0,7.43-.27,14-.75,20-3.54-5.85-9.36-13.84-16.55-17.68-12.1-6.46-25.66-7.21-28.72-1.51s5.09,16.54,17.19,23c8.5,4.54,20.77,4.27,27.32,3.71-2.05,16.84-5.92,28.29-9.94,40.18-1.13,3.32-2.26,6.67-3.35,10.15-1.5-7.2-4.37-17-9.62-23.46-9.21-11.4-21.58-17.73-26.23-13.33S232.82,370,242,381.42c6.65,8.22,18.58,13.05,24.73,15.1-3.45,12.86-6.06,28.42-6.06,51.47,0,3.3.05,6.44.15,9.44-2.79-6.79-7.59-16.26-14.23-21.67-11.19-9.1-24.5-12.54-28.2-7.19s3,18.23,14.22,27.33c8.78,7.14,22.93,9,28.61,9.4a173,173,0,0,0,8.2,43.32c-4.6-5.61-10.87-11.79-17.72-14.35-13.89-5.21-28.46-3.27-30.85,4.2s8,18.76,21.85,24c10.3,3.86,24.25.43,30.79-1.6C279,537.2,284,553.64,284,585.53a3,3,0,0,0,2.9,3.14s-2.4-30.5-5.65-48.62-18.94-38.28-18.94-89.28c0-66.83,23.81-74.95,23.81-141.23,0-64.12-23-76.3-23-125.81,0-26.34,2.59-53.84,9.74-74.4C288,65.77,286.89,37.9,286.62,35.47Z"/><path class="cls-2" d="M414.76,542.27,383,505.94l35.39,32.84a2.5,2.5,0,1,1-3.41,3.67Z"/><path class="cls-2" d="M414.34,539.37l20.5-33.93-16.07,36.24a2.51,2.51,0,1,1-4.43-2.31Z"/><path class="cls-1" d="M7.51,193.77s-26.52,106.1,20.1,213C71.69,507.88,150,587.93,150,587.93s7.41-145.19-32.64-229C71.65,263.28,7.51,193.77,7.51,193.77Z"/><path class="cls-6" d="M150,587.93s7.41-145.19-32.64-229C71.65,263.28,7.51,193.77,7.51,193.77s8.55,73.22,58.23,203S150,587.93,150,587.93Z"/><path class="cls-6" d="M140.85,567c-14.43-28.11-27.94-56.65-41-85.41C93.31,467.19,87,452.71,80.73,438.22c-3.08-7.27-6.17-14.53-9.18-21.84s-6.08-14.58-9-21.94C56.77,379.75,51.08,365,45.84,350.05c-2.54-7.51-5.12-15-7.46-22.56-.59-1.88-1.21-3.76-1.78-5.65l-1.69-5.69c-1.13-3.79-2.26-7.58-3.32-11.39-4.38-15.2-8.26-30.54-11.76-46-1.71-7.72-3.37-15.45-4.8-23.22s-2.78-15.56-3.8-23.39C14.73,227.58,18.72,242.84,23,258s8.84,30.23,13.63,45.23c1.18,3.75,2.42,7.48,3.67,11.21s2.5,7.47,3.77,11.19c2.47,7.48,5.19,14.84,7.86,22.22l4.2,11c1.38,3.68,2.75,7.36,4.21,11,2.87,7.33,5.73,14.66,8.71,22l4.39,11,4.45,10.95c2.94,7.31,6,14.58,9,21.86s6,14.58,9,21.87l4.55,10.91,4.5,10.94C117.05,508.48,129.13,537.62,140.85,567Z"/><path class="cls-6" d="M27.67,291,4,267.94l26.92,19.17A2.51,2.51,0,0,1,28,291.19,2.31,2.31,0,0,1,27.67,291Z"/><path class="cls-6" d="M47,353.72,10,328.89l39.56,20.53a2.5,2.5,0,1,1-2.31,4.44Z"/><path class="cls-1" d="M47.6,350l33.72-47.54L51.8,352.7a2.5,2.5,0,0,1-4.31-2.53A1.74,1.74,0,0,1,47.6,350Z"/><path class="cls-1" d="M27,286.6l19.31-29.28-15,31.73a2.5,2.5,0,1,1-4.53-2.13A2,2,0,0,1,27,286.6Z"/><path class="cls-1" d="M71,411.39l37.84-57L75.29,414a2.5,2.5,0,1,1-4.36-2.45A1.4,1.4,0,0,1,71,411.39Z"/><path class="cls-1" d="M103,487.48l28-55.21-23.43,57.28a2.5,2.5,0,1,1-4.63-1.89Z"/><path class="cls-1" d="M124.6,539.11,144,504.31l-14.85,36.95a2.51,2.51,0,0,1-4.65-1.87Z"/><path class="cls-6" d="M71.92,414.87,26.2,386l48.19,24.48A2.5,2.5,0,0,1,72.13,415Z"/><path class="cls-6" d="M104.88,491.44,60.06,459.39l47.54,27.85a2.5,2.5,0,1,1-2.53,4.32Z"/><path class="cls-6" d="M125.5,542.28l-24.34-18.74,27.06,14.54a2.51,2.51,0,1,1-2.38,4.42A3.26,3.26,0,0,1,125.5,542.28Z"/><path class="cls-2" d="M96.4,244.72c-7,6.65-5.62,23.45-5.55,31.82a113.23,113.23,0,0,0,6,34.78c7.69,23.22,19.69,45.51,24.6,69.19A153.66,153.66,0,0,1,124.24,423c-1,13.84-4.43,26.17-9.22,39.57q-14.94,41.83-27.3,84.1c-2.11,7.22-17.26,34.24,2.29,35,7.68.28,10.82-7.58,11.88-11.35,7.25-25.79,11.12-46.83,19-66.37,9.34-23.34,22.11-47.17,25.57-71.37s.32-49-8.53-72.57c-7.43-19.73-19.16-38.46-27.69-57.94-4.24-9.69-7.77-19.58-9.45-29.67-1.42-8.58.87-19.94-4.09-27.86Z"/><path class="cls-1" d="M333.29,90.21s81,110.67,90.91,261.86c9.35,143-25.69,279.65-25.69,279.65s-82.63-167.08-87-287.56C306.61,206.81,333.29,90.21,333.29,90.21Z"/><path class="cls-6" d="M398.51,631.72s-82.63-167.08-87-287.56c-4.94-137.35,21.74-254,21.74-254S362.93,181.12,381.71,361,398.51,631.72,398.51,631.72Z"/><path class="cls-2" d="M401.11,601.25c-4.43-40.78-8.42-81.58-12.33-122.38l-5.95-61.18q-2.88-30.58-6.06-61.15c-1-10.19-2.1-20.37-3.19-30.55-.52-5.09-1.13-10.17-1.72-15.25l-1.72-15.26c-1.25-10.14-2.46-20.3-3.92-30.43q-1-7.59-2.13-15.19c-.72-5.07-1.45-10.13-2.25-15.19-3.13-20.22-6.47-40.42-10.23-60.55-.9-5-1.89-10.06-2.85-15.09l-3-15.07c-1-5-2.08-10-3.16-15s-2.18-10-3.37-15c3,9.8,5.75,19.7,8.32,29.63s5,19.91,7.27,29.91c4.54,20,8.66,40.13,12.23,60.35.93,5.05,1.79,10.11,2.64,15.17s1.72,10.12,2.47,15.2c1.61,10.14,3,20.32,4.42,30.49,2.71,20.36,5,40.76,7.13,61.15,1.11,10.2,2,20.42,3,30.63l2.8,30.63c1.67,20.44,3.38,40.87,4.79,61.33C397.2,519.31,399.65,560.25,401.11,601.25Z"/><path class="cls-2" d="M359.1,213.38l16.19-37.7L363.8,215.07a2.5,2.5,0,1,1-4.8-1.41A1.33,1.33,0,0,1,359.1,213.38Z"/><path class="cls-2" d="M373.09,297,401,250.78l-23.5,48.63a2.5,2.5,0,0,1-4.5-2.18A2.12,2.12,0,0,1,373.09,297Z"/><path class="cls-2" d="M372.34,300.74l-54.86-42.55,57.78,38.49a2.5,2.5,0,1,1-2.77,4.16Z"/><path class="cls-2" d="M359.37,214.67l-31-28.61,34.19,24.74a2.51,2.51,0,0,1-2.94,4.06A1.92,1.92,0,0,1,359.37,214.67Z"/><path class="cls-2" d="M381.19,385.68l-63.71-51.4,66.73,47.42a2.5,2.5,0,1,1-2.9,4.08Z"/><path class="cls-2" d="M391,493.49,336.25,438l58.2,51.82a2.5,2.5,0,0,1-3.33,3.74Z"/><path class="cls-2" d="M380.52,382.46l34.29-55.59-29.94,58.05a2.5,2.5,0,1,1-4.44-2.29Z"/><path class="cls-2" d="M390.45,490.65l29.3-59L395,492.7a2.5,2.5,0,1,1-4.64-1.88A.89.89,0,0,1,390.45,490.65Z"/><path class="cls-1" d="M9.22,401.4s31.16,39.3,42.43,90c10.66,47.94,7.19,92.47,7.19,92.47s-34.71-58.15-42.59-98.45A384.91,384.91,0,0,1,9.22,401.4Z"/><path class="cls-6" d="M58.84,583.86s-34.71-58.15-42.59-98.45a384.91,384.91,0,0,1-7-84s14.14,31.18,29.72,91.7S58.84,583.86,58.84,583.86Z"/><path class="cls-6" d="M56.62,573.92c-4.38-13.6-8.16-27.31-11.75-41.06s-7-27.51-10.38-41.27L29.42,471l-1.31-5.13-1.36-5.13c-.91-3.42-1.79-6.85-2.75-10.26-3.74-13.66-7.64-27.29-11.65-41A321.61,321.61,0,0,1,29,448.9a414.35,414.35,0,0,1,12.27,41q5.15,20.74,9,41.74C52.91,545.64,55.17,559.7,56.62,573.92Z"/><path class="cls-6" d="M22.23,443.14l4.67-12L27.15,444a2.55,2.55,0,1,1-5.09.1A2.61,2.61,0,0,1,22.23,443.14Z"/><path class="cls-6" d="M31.19,471.14,39,456.94,35.9,472.83a2.53,2.53,0,0,1-5-.95A2.6,2.6,0,0,1,31.19,471.14Z"/><path class="cls-1" d="M31.58,474.09,13.43,456.93l21.21,13.2A2.51,2.51,0,1,1,32,474.39,2.32,2.32,0,0,1,31.58,474.09Z"/><path class="cls-1" d="M22.84,445l-9.95-11.76,13.19,8a2.53,2.53,0,0,1-2.62,4.34A2.45,2.45,0,0,1,22.84,445Z"/><path class="cls-1" d="M38.92,502.65,17.56,482.3l24.49,16.45a2.51,2.51,0,0,1-2.8,4.17A2.27,2.27,0,0,1,38.92,502.65Z"/><path class="cls-1" d="M47,538.31,29,517.44l21.45,17.28a2.51,2.51,0,0,1-3.15,3.91A3.22,3.22,0,0,1,47,538.31Z"/><path class="cls-1" d="M52.19,563.09,41.67,548.81l14.09,10.78a2.53,2.53,0,0,1-3.07,4A3,3,0,0,1,52.19,563.09Z"/><path class="cls-6" d="M38.15,499.81l9.22-17.1L42.82,501.6a2.53,2.53,0,1,1-4.91-1.19A2.89,2.89,0,0,1,38.15,499.81Z"/><path class="cls-6" d="M46.26,536.26l8.32-18.48-3.54,20a2.52,2.52,0,0,1-5-.88A2.88,2.88,0,0,1,46.26,536.26Z"/><path class="cls-6" d="M51.6,560.54l6.14-10.35-1.4,11.95a2.56,2.56,0,1,1-5.08-.6A2.76,2.76,0,0,1,51.6,560.54Z"/><path class="cls-7" d="M262.93,629.57c7-10.42,4.15-35.16,3.21-47.11a216.61,216.61,0,0,0-11.72-53.69c-15-43.36-39.82-70.69-53.47-114.71-8.87-28.64-7.75-69.55-7-99.56.86-32.39,8.81-64.06,12.09-96.16a300.94,300.94,0,0,0-2.24-80.49c-.76-4.56-2.41-17.84-13.52-16.25-7.45,1.06-10.64,7.44-10,15.73.94,11.77-.36,23.62-1.6,35.35C174.06,217,157.62,258,147.2,301.1c-14,58.06-8.56,130.49,20.68,184.64,11.69,21.66,28,41.78,41.91,62.09A560.86,560.86,0,0,1,248,612.5c1.88,3.72,6.46,17.2,10.63,18.55A3.42,3.42,0,0,0,262.93,629.57Z"/><path class="cls-8" d="M143.7,413.11c.4,2.61,12.76,3.68,28,1.39s27.36-7.17,27-9.78l-2.4-12.19c.39,2.61-11.07,6.4-26.28,8.68s-27.66,2.12-28.05-.49Z"/><path class="cls-8" d="M165.88,482.22c1.18,2.36,14.07,0,29-6.39s26.62-14.15,25.57-16.58l-7.79-15.38c1,2.42-10,9.38-24.84,15.81s-27.65,9.79-28.7,7.36C159.08,467,162.68,475.83,165.88,482.22Z"/><path class="cls-8" d="M200.43,535c1.47,2.19,11.9,1.41,25.72-5.43S248,512.43,247,510c-1.4-3.4-6-12.68-6-12.68,1.17,2.37-8.89,9.62-22.71,16.46s-25.81,10.57-27,8.2C191.28,522,196,528.36,200.43,535Z"/><path class="cls-8" d="M140.91,339.2c-.14,2.64,10.89,6.67,25.37,8.19s26.89-.37,27.16-3l.2-11.59c-.27,2.63-11.51,3.42-26,1.9s-25.78-4.09-25.39-7.09C142.26,327.61,141.11,335.4,140.91,339.2Z"/><path class="cls-8" d="M154.69,273.28c-.47,2.6,8.1,7.55,19.61,10.11s22,1.66,22.54-.92l1.6-11.19c-.58,2.58-9.82,2.24-21.33-.33s-20-5.92-19.22-8.86A110.65,110.65,0,0,0,154.69,273.28Z"/><path class="cls-8" d="M170.71,216.35c-.49,2.59,6.2,7.14,15.68,9.25s18.56.72,19.14-1.86l1.1-11c-.58,2.58-7.95,2.52-17.43.4s-16.55-5.05-15.83-8C173.37,205.16,171.41,212.61,170.71,216.35Z"/><path class="cls-8" d="M179.86,162c-.06,2.64,5.23,6,12.21,6.31s14.76-2.7,14.76-6.51c0-2.79-1-9.78-1-9.78-.13,2.64-7.07,4.18-13.11,4.4-5.44.19-12.35-2.79-12.16-5.8C180.58,150.63,179.94,158.22,179.86,162Z"/><path class="cls-6" d="M483,587.72c3.16-2.94,3.5-12.25,3.82-16.69a85.22,85.22,0,0,0-1.3-20.86c-3.1-17.52-10.68-30.39-13.23-48-1.66-11.45,1-26.14,3-36.92,2.13-11.64,6.82-22.17,9.83-33.41a107.69,107.69,0,0,0,3.69-29.44c0-1.74.11-6.75-4.07-7.51-2.79-.5-4.32,1.43-4.54,4.52a67.09,67.09,0,0,1-2.57,12.62c-4.21,15.5-12.55,28.41-18.8,42.77-8.42,19.36-10.46,46.27-2.74,69.39,3.08,9.25,7.95,18.49,11.93,27.52a251.56,251.56,0,0,1,10.43,28c.49,1.57,1.41,7,2.87,8A1.21,1.21,0,0,0,483,587.72Z"/><path class="cls-4" d="M451.28,495c0,1,4.48,2.86,10.2,3.86s10.47.67,10.47-.33l-.2-4.7c0,1-4.43,1-10.15,0s-10.29-2.54-10.29-3.53Z"/><path class="cls-4" d="M455.56,522.71c.3,1,5.17,1.69,11,1.14s10.58-1.94,10.33-3l-2-6.5c.25,1-4.18,2.21-10,2.76s-10.71.24-11-.77C453.91,516.39,454.74,520,455.56,522.71Z"/><path class="cls-4" d="M454.39,467.88c-.2.94,3.63,3.72,8.87,6s9.91,3.09,10.16,2.17l.72-4.18c-.25.92-4.42-.14-9.66-2.42s-9.25-4.57-8.94-5.6C455.54,463.85,454.68,466.53,454.39,467.88Z"/><path class="cls-4" d="M463.15,445.64c-.31.89,2.56,3.7,6.65,6s8,3.23,8.34,2.36l1.21-3.86c-.36.86-3.73-.37-7.82-2.67s-7-4.54-6.57-5.51A34.14,34.14,0,0,0,463.15,445.64Z"/><path class="cls-4" d="M472.23,426.92c-.32.88,1.89,3.33,5.25,5.23s6.79,2.48,7.14,1.61l1-3.85c-.35.87-3.06,0-6.43-1.93s-5.8-3.82-5.37-4.8C473.84,423.18,472.7,425.65,472.23,426.92Z"/><path class="cls-4" d="M478.64,408.32c-.17.95,1.59,2.79,4.14,3.75s5.58.79,5.79-.59c.16-1,.19-3.67.19-3.67-.2.94-2.84.67-5.07,0-2-.58-4.38-2.49-4.14-3.56C479.55,404.28,478.89,407,478.64,408.32Z"/></g></g></svg>