<svg xmlns="http://www.w3.org/2000/svg" viewBox="0 0 148.02 72.53"><defs><style>.cls-1{opacity:0.5;}.cls-2{fill:#ff4d33;}</style></defs><title>starRecurso 16</title><g id="Capa_2" data-name="Capa 2"><g id="Capa_1-2" data-name="Capa 1"><path class="cls-1" d="M146.38,30.46c-7.35-.56-11.94,1.45-16.38,3.4s-8.49,3.71-15.27,2.69c-8.26-1.24-11.4-4.14-14.17-6.7a19.47,19.47,0,0,0-3.9-3,4.93,4.93,0,0,0,1.26-3.17c0-2.41-2-4.57-5.29-6C94.27,16,97.51,14,103.68,13.56c10.92-.76,20-4.6,20.64-8.75.18-1.15-.15-3.29-4.43-4.74a1.23,1.23,0,0,0-1.54.63,1,1,0,0,0,.7,1.39c1.16.4,3.09,1.23,2.9,2.42-.37,2.37-7.57,6.14-18.45,6.89-7.59.53-11.39,3.32-13.18,5.36a26.76,26.76,0,0,0-7.78-1.11,28,28,0,0,0-3.48.22c-.12-1.14.86-3,3.61-3.68,2.26-.61,3.54-1.56,3.79-2.84.38-2-2-3.6-2.24-3.78a1.27,1.27,0,0,0-1.67.23,1,1,0,0,0,.25,1.51c.52.34,1.39,1.19,1.3,1.67-.06.28-.64.74-2.11,1.13-3.85,1-5.64,3.86-5.28,6.14A23.57,23.57,0,0,0,74.1,17l-.13-.1C71,14.56,67,11.4,61,10.53c-4.58-.66-15.9,1.85-25.88,4.06-6.13,1.36-13.75,3-15,2.75a1.25,1.25,0,0,0-1.58.54,1.05,1.05,0,0,0,.61,1.43c1.53.61,5.74-.23,16.51-2.62,9.28-2.06,20.84-4.62,24.94-4,4.9.71,8.32,3.15,11.08,5.3-2.45,1.26-4.09,3-4.47,4.83a24.79,24.79,0,0,0-5.89-.58c-5.38.11-9.61,1.88-11.91,5-2.75,3.71-10.79,7.89-16.94,7.69-2.66-.08-4.55-1-5.6-2.63C21.48,23.72,2.53,29.83,1.73,30.1A1.59,1.59,0,0,0,.66,32.18a1.84,1.84,0,0,0,2.3,1c4.69-1.53,17.57-4.4,20.83.75,1.69,2.67,4.66,4.14,8.6,4.26h.5c6.87,0,15.88-4.19,19.55-9.15,2.2-3,6.58-3.5,9-3.55a19.92,19.92,0,0,1,6.73,1,10.42,10.42,0,0,0,3.79,3c-1.46.89-3.83,2-5.72,2.88-6.16,2.88-13.83,6.45-17.32,12.12-6.32,10.27-4.09,17.69-4,18A2.38,2.38,0,0,0,47.22,64a2.46,2.46,0,0,0,.65-.08,2.15,2.15,0,0,0,1.65-2.67c0-.06-1.71-6.14,3.58-14.73,2.79-4.52,9.74-7.76,15.33-10.37,3.62-1.69,6.94-3.25,8.56-5.06a28.38,28.38,0,0,0,4.64.52,2.41,2.41,0,0,0,.51.44c3.77,2.36,11.12,8.43,9.76,12.11-.71,1.94-2.81,3.06-5.25,4.35C82.8,50.6,78,53.16,78,59.94c0,9.11,6.16,12.21,9.42,12.58h.3a2.31,2.31,0,0,0,2.35-1.86,2.24,2.24,0,0,0-2-2.44c-.54-.07-5.26-1-5.26-8.29,0-4.31,2.78-5.8,6.3-7.68,2.85-1.52,6.08-3.24,7.36-6.71,2-5.46-3.88-11.25-8-14.5a19.6,19.6,0,0,0,5.28-1.9c1.6.49,2.74,1.55,4.28,3,2.84,2.62,6.74,6.21,16.15,7.63a29.19,29.19,0,0,0,4.4.34c5.44,0,9.28-1.68,13-3.32,4.19-1.83,8.15-3.57,14.51-3.08A1.73,1.73,0,0,0,148,32.21,1.67,1.67,0,0,0,146.38,30.46Z"/><path class="cls-2" d="M117.65,36.64a29.32,29.32,0,0,1-4.41-.34C104,34.91,100,32,97.11,29.89s-4.14-3-9-2.13a2.4,2.4,0,0,1-2.82-1.7,2.18,2.18,0,0,1,1.88-2.54c7.1-1.28,10,.8,13,3,2.77,2,5.9,4.3,13.9,5.51,6.58,1,10.46-.77,15-2.8,4.34-2,9.27-4.18,16.8-3.62A2.25,2.25,0,0,1,148,28a2.34,2.34,0,0,1-2.59,2c-6.2-.47-10.11,1.3-14.26,3.17C127.25,34.85,123.28,36.64,117.65,36.64Z"/><path class="cls-2" d="M86.62,70a14.46,14.46,0,0,1-8.93-2.8A10.32,10.32,0,0,1,74,58.73c0-7,5.48-10.37,9.88-13.06,2.56-1.58,5-3.06,5.66-4.87,1.21-3.29-5-7.91-8.17-9.64a2.55,2.55,0,0,1-1-3.71,3.17,3.17,0,0,1,4.1-.92c1.42.77,13.81,7.76,10.77,16-1.31,3.54-4.7,5.62-8,7.63-4.51,2.76-7.25,4.71-7.25,8.59a5.37,5.37,0,0,0,1.74,4.46c2.07,1.67,5.55,1.4,5.59,1.4A2.92,2.92,0,0,1,90.57,67a2.78,2.78,0,0,1-2.64,3C87.77,70,87.3,70,86.62,70Z"/><path class="cls-2" d="M37.37,35.15h-.69C31,35,26.4,32.67,24,28.85c-3.17-5-16.67-4-21.14-3.22A2.4,2.4,0,0,1,0,23.9,2.19,2.19,0,0,1,2,21.38C4.06,21,22.72,18.15,28.14,26.7c1.58,2.5,4.75,4,8.7,4.12,4.57.14,8.92-1.56,10.9-4.24,3.41-4.63,10.77-6.81,16.54-6.92,2.5-.05,7,.25,9.1,2.81a2,2,0,0,1-.53,3A2.57,2.57,0,0,1,69.5,25c-.34-.43-2-1.1-5.12-1-4.38.09-10.21,1.68-12.66,5C48.92,32.77,43.34,35.15,37.37,35.15Z"/><path class="cls-2" d="M47.36,64.64a3.09,3.09,0,0,1-2.6-1.36c-.22-.36-5.49-8.92,1.17-19.73C49.59,37.6,58,34.1,64.8,31.29a45.91,45.91,0,0,0,6.8-3.2,2.65,2.65,0,0,1,1.64-2.73,3.15,3.15,0,0,1,4,1.21,3.73,3.73,0,0,1,.23,3.19c-1,2.63-4.67,4.14-10.19,6.43-6,2.49-13.43,5.58-16.14,10-5,8.18-1.24,14.36-1.2,14.43a2.56,2.56,0,0,1-1.11,3.68A3.27,3.27,0,0,1,47.36,64.64ZM71.9,29h0Z"/><path class="cls-2" d="M91.38,21.86a3.73,3.73,0,0,1-3-1.26,3.84,3.84,0,0,1-.13-4.26c.7-1.39,3.84-6,14.61-6.72,11.36-.79,18.74-3.81,19-5.62.06-.42-.63-1.17-2.79-1.9a1,1,0,0,1-.7-1.39A1.23,1.23,0,0,1,120,.08c3.91,1.32,4.51,3,4.32,4.22-.63,4-11.15,6.78-21.22,7.47-7.52.53-11.45,3.17-12.62,5.47a2,2,0,0,0-.11,2.08,1.54,1.54,0,0,0,1.37.36,1.18,1.18,0,0,1,1.34.94,1.1,1.1,0,0,1-1,1.2A4.44,4.44,0,0,1,91.38,21.86Z"/><path class="cls-2" d="M80.37,16.18c-2.61,0-3.93-1.47-4.27-2.85C75.53,11,77.33,8,81.34,6.9c1.47-.39,2.06-.86,2.11-1.14.09-.47-.78-1.32-1.3-1.67a1,1,0,0,1-.25-1.51,1.28,1.28,0,0,1,1.67-.23c.27.18,2.63,1.81,2.24,3.78C85.56,7.41,84.29,8.37,82,9c-2.91.77-3.86,2.78-3.59,3.89.23.9,1.2,1.3,2.66,1.1a1.19,1.19,0,0,1,1.36.91,1.1,1.1,0,0,1-1,1.23A8.46,8.46,0,0,1,80.37,16.18Z"/><path class="cls-2" d="M74.84,18.71c-2.3,0-4.29-1.44-6.37-3-3.13-2.27-6.65-4.84-12.73-4.55A71.13,71.13,0,0,0,44.81,13C35.54,15,25,17.24,17.66,10.22a1.51,1.51,0,0,1,.07-2.29A1.94,1.94,0,0,1,20.27,8C26.21,13.65,34.84,11.8,44,9.84A75.18,75.18,0,0,1,55.55,8c7.41-.35,11.9,2.9,15.17,5.27,2.23,1.61,3.54,2.5,4.68,2.13a1.87,1.87,0,0,1,2.3,1,1.58,1.58,0,0,1-1.09,2.07A5.65,5.65,0,0,1,74.84,18.71Z"/><ellipse class="cls-2" cx="82.86" cy="21.91" rx="15.38" ry="8.01"/></g></g></svg>