<?xml version="1.0" encoding="utf-8"?>
<!-- Generator: Adobe Illustrator 24.1.1, SVG Export Plug-In . SVG Version: 6.00 Build 0)  -->
<svg version="1.1" id="Capa_1" xmlns="http://www.w3.org/2000/svg" xmlns:xlink="http://www.w3.org/1999/xlink" x="0px" y="0px"
	 viewBox="0 0 273.7 33.7" style="enable-background:new 0 0 273.7 33.7;" xml:space="preserve">
<style type="text/css">
	.st0{fill:#FFFFFF;}
	.st1{opacity:0.6;fill:#FFFFFF;enable-background:new    ;}
	.st2{opacity:0.8;fill:#FFFFFF;enable-background:new    ;}
</style>
<g id="Capa_2_1_">
	<g id="Capa_1-2">
		<path class="st0" d="M0,0.6h11.5c1.4,0,2.9,0.2,4.2,0.8c1.1,0.5,2,1.3,2.8,2.2c0.7,0.9,1.2,2,1.5,3.1c0.3,1.2,0.5,2.4,0.5,3.6
			c0,1.5-0.2,3-0.8,4.4c-0.5,1.1-1.2,2.2-2.1,3s-2.1,1.4-3.3,1.8c-1.4,0.4-2.8,0.6-4.2,0.6H6.6v13H0V0.6z M6.6,15.3h2.9
			c1.2,0,2.3-0.4,3.2-1.2c0.9-1,1.3-2.3,1.2-3.7c0.1-1.3-0.3-2.6-1-3.7C12,5.8,10.7,5.3,9.4,5.4H6.6V15.3z"/>
		<path class="st0" d="M22.7,33.1V0.6h6.5v27.1h11.6v5.4C40.8,33.1,22.7,33.1,22.7,33.1z"/>
		<path class="st0" d="M49.9,0.6H58l8.6,32.5h-6.8l-1.5-6.9h-8.6l-1.5,6.9h-6.8L49.9,0.6z M50.8,20.9h6.4L54,6.3h-0.1L50.8,20.9z"/>
		<path class="st0" d="M73.3,23v1c0,0.7,0.1,1.3,0.2,2c0.1,0.6,0.3,1.1,0.7,1.6c0.3,0.4,0.8,0.8,1.3,1c0.7,0.3,1.4,0.4,2.1,0.4
			c1,0,1.9-0.4,2.7-1c0.8-0.8,1.3-1.9,1.2-3c0-0.6-0.1-1.3-0.3-1.9c-0.2-0.6-0.6-1-1-1.4c-0.5-0.5-1.1-0.9-1.8-1.2
			c-0.9-0.4-1.8-0.8-2.8-1.1c-1.3-0.4-2.6-1-3.8-1.6c-1-0.5-1.9-1.2-2.7-2c-0.7-0.8-1.2-1.7-1.6-2.6c-0.4-1.1-0.5-2.3-0.5-3.5
			c0-3.2,0.9-5.6,2.7-7.2c2.1-1.7,4.7-2.6,7.4-2.4c1.3,0,2.7,0.2,4,0.5c1.2,0.3,2.3,0.8,3.2,1.5c0.9,0.7,1.6,1.7,2.1,2.7
			c0.5,1.3,0.8,2.6,0.8,4v0.9H81c0.1-1.2-0.2-2.5-0.8-3.6c-0.6-0.9-1.7-1.4-2.7-1.3c-0.6,0-1.2,0.1-1.8,0.3
			c-0.5,0.2-0.9,0.5-1.2,0.9c-0.3,0.3-0.5,0.8-0.6,1.2c-0.1,0.5-0.2,0.9-0.2,1.4c0,0.9,0.2,1.8,0.6,2.5C75,12,76,12.6,77,13l5,2.2
			c1.1,0.5,2.1,1,3,1.7c0.7,0.5,1.4,1.2,1.9,1.9c0.5,0.7,0.8,1.4,1,2.3s0.3,1.8,0.3,2.7c0,3.4-1,5.9-3,7.6c-2,1.7-4.8,2.4-8.3,2.4
			c-3.7,0-6.3-0.8-7.9-2.5c-1.7-1.9-2.6-4.4-2.4-7V23H73.3z"/>
		<path class="st0" d="M109.7,0.6V6h-7.1v27.1H96V6h-7.1V0.6H109.7z"/>
		<path class="st0" d="M111.9,33.1V0.6h6.6v32.5H111.9z"/>
		<path class="st0" d="M122.4,0.6h18.1V6H129v7.6h10.9V19H129v14.1h-6.6V0.6z"/>
		<path class="st0" d="M142.9,33.1V0.6h6.6v32.5H142.9z"/>
		<path class="st0" d="M167.2,11.6c0.1-1.8-0.2-3.5-0.8-5.2c-0.6-1.1-1.8-1.7-3.1-1.6c-0.7,0-1.4,0.2-2,0.7c-0.6,0.6-1,1.3-1.3,2.1
			c-0.3,1.3-0.6,2.6-0.6,3.9c-0.1,1.6-0.2,3.5-0.2,5.8c0,2,0.1,4,0.3,6c0.1,1.2,0.3,2.4,0.8,3.5c0.2,0.7,0.7,1.3,1.3,1.7
			c0.6,0.3,1.2,0.4,1.8,0.4s1.1-0.1,1.6-0.3c0.5-0.2,1-0.7,1.3-1.2c0.4-0.8,0.7-1.6,0.9-2.5c0.2-1.4,0.3-2.8,0.3-4.3h6.6
			c0,1.7-0.1,3.3-0.4,5c-0.2,1.5-0.7,2.9-1.5,4.2c-0.8,1.2-1.9,2.2-3.2,2.8c-1.6,0.8-3.4,1.1-5.3,1c-2,0.1-4.1-0.3-5.9-1.3
			c-1.4-0.8-2.6-2-3.4-3.5c-0.8-1.7-1.3-3.5-1.5-5.3c-0.2-2.3-0.4-4.5-0.3-6.8c0-2.3,0.1-4.5,0.3-6.8c0.2-1.9,0.7-3.7,1.5-5.3
			c0.7-1.5,1.9-2.7,3.3-3.5c1.8-0.9,3.8-1.3,5.9-1.2c1.9-0.1,3.8,0.3,5.5,1.1c1.2,0.7,2.3,1.7,3,2.9s1.1,2.5,1.3,3.8
			s0.2,2.5,0.3,3.8L167.2,11.6L167.2,11.6z"/>
		<path class="st0" d="M182.4,0.6h8.1l8.6,32.5h-6.8l-1.5-6.9h-8.6l-1.5,6.9h-6.8L182.4,0.6z M183.2,20.9h6.4l-3.1-14.6h-0.1
			L183.2,20.9z"/>
		<path class="st1" d="M224.9,16.9c0-2.3,0.1-4.5,0.3-6.8c0.2-1.9,0.7-3.7,1.5-5.3c0.7-1.5,1.9-2.7,3.3-3.5c3.7-1.7,8-1.7,11.7,0
			c1.4,0.8,2.6,2,3.3,3.5c0.8,1.7,1.3,3.5,1.5,5.3c0.2,2.3,0.4,4.5,0.3,6.8c0,2.3-0.1,4.5-0.3,6.8c-0.2,1.9-0.7,3.7-1.5,5.3
			c-0.8,1.5-1.9,2.7-3.3,3.5c-3.7,1.7-8,1.7-11.7,0c-1.4-0.8-2.6-2-3.3-3.5c-0.8-1.7-1.3-3.5-1.5-5.3
			C225,21.4,224.9,19.1,224.9,16.9z M231.5,16.9c0,2.2,0.1,4,0.2,5.6c0.1,1.3,0.3,2.5,0.6,3.7c0.2,0.8,0.7,1.5,1.4,2.1
			c1.4,0.9,3.3,0.9,4.7,0c0.7-0.5,1.1-1.3,1.4-2.1c0.4-1.2,0.6-2.5,0.6-3.7c0.1-1.5,0.2-3.4,0.2-5.6s-0.1-4-0.2-5.6
			c-0.1-1.3-0.3-2.5-0.6-3.7c-0.2-0.8-0.7-1.6-1.4-2.1c-1.4-0.9-3.3-0.9-4.7,0c-0.7,0.5-1.1,1.3-1.4,2.1c-0.4,1.2-0.6,2.5-0.6,3.7
			C231.5,12.8,231.5,14.7,231.5,16.9z"/>
		<path class="st1" d="M255.3,23v1c0,0.7,0.1,1.4,0.2,2.1c0.1,0.6,0.3,1.1,0.7,1.6c0.3,0.4,0.8,0.8,1.3,1c0.7,0.3,1.4,0.4,2.1,0.4
			c1,0,2-0.4,2.7-1c0.8-0.8,1.3-1.9,1.2-3c0-0.7-0.1-1.4-0.3-2c-0.2-0.5-0.6-1-1-1.4c-0.5-0.5-1.1-0.9-1.8-1.2
			c-0.9-0.4-1.8-0.8-2.8-1.1c-1.3-0.4-2.6-1-3.8-1.6c-1-0.5-1.9-1.2-2.7-2c-0.7-0.8-1.2-1.7-1.6-2.6c-0.4-1.1-0.5-2.3-0.5-3.5
			c0-3.2,0.9-5.6,2.7-7.2c2.1-1.7,4.7-2.5,7.4-2.4c1.3,0,2.7,0.2,4,0.5c1.2,0.3,2.3,0.8,3.2,1.5c0.9,0.7,1.6,1.7,2.1,2.7
			c0.5,1.3,0.8,2.6,0.8,4v0.9H263c0.1-1.2-0.2-2.5-0.8-3.6c-0.6-0.9-1.7-1.3-2.7-1.3c-0.6,0-1.2,0.1-1.8,0.3
			c-0.4,0.2-0.8,0.5-1.2,0.8c-0.3,0.3-0.5,0.8-0.6,1.2c-0.1,0.5-0.2,0.9-0.2,1.4c0,0.9,0.2,1.8,0.6,2.5c0.7,0.9,1.6,1.5,2.7,1.9
			l5,2.2c1.1,0.5,2.1,1,3,1.7c0.7,0.5,1.4,1.2,1.9,1.9c0.5,0.7,0.8,1.4,1,2.3s0.3,1.8,0.3,2.7c0,3.4-1,5.9-3,7.6
			c-2,1.6-4.8,2.4-8.3,2.4c-3.7,0-6.3-0.8-7.9-2.5c-1.6-1.7-2.4-4-2.4-7V23H255.3z"/>
		<circle class="st2" cx="223.2" cy="31.6" r="2"/>
		<circle class="st2" cx="247.1" cy="31.6" r="2"/>
		<circle class="st2" cx="271.7" cy="31.6" r="2"/>
		<path class="st1" d="M221.8,9.9c-0.2-1.7-0.7-3.4-1.6-5c-0.7-1.3-1.9-2.4-3.2-3.2c-1.7-0.8-3.6-1.2-5.5-1.1h-10.8v19.8l3.4,12.7
			h6.9c1.9,0.1,3.7-0.3,5.4-1c1.4-0.7,2.6-1.7,3.4-3c0.9-1.6,1.5-3.4,1.8-5.2c0.4-2.5,0.5-5,0.5-7.5
			C222.2,14.2,222.1,12.1,221.8,9.9z M215.5,22.1c-0.1,1.2-0.4,2.4-0.8,3.6c-0.3,0.8-0.9,1.5-1.7,2c-0.9,0.4-1.8,0.6-2.8,0.6h-2.9
			V5.5h2.8c1-0.1,2.1,0.2,3,0.7c0.8,0.5,1.4,1.2,1.7,2.1c0.4,1.1,0.7,2.3,0.8,3.5c0.1,1.4,0.2,3,0.2,4.9
			C215.7,18.8,215.6,20.7,215.5,22.1z"/>
	</g>
</g>
</svg>
