<svg xmlns="http://www.w3.org/2000/svg" viewBox="0 0 180.74 83.65"><defs><style>.cls-1{fill:#ff4d33;}</style></defs><title>sosRecurso 1</title><g id="Capa_2" data-name="Capa 2"><g id="Capa_1-2" data-name="Capa 1"><path class="cls-1" d="M59.91,41.83A156.58,156.58,0,0,1,60.75,25a37.67,37.67,0,0,1,3.72-13.25A20.86,20.86,0,0,1,72.76,3.1Q78.18,0,87.3,0t14.55,3.1a20.78,20.78,0,0,1,8.28,8.62A37.46,37.46,0,0,1,113.86,25a156.58,156.58,0,0,1,.84,16.86,156.39,156.39,0,0,1-.84,16.85,37.4,37.4,0,0,1-3.73,13.25,20.72,20.72,0,0,1-8.28,8.62q-5.41,3.11-14.55,3.1t-14.54-3.1a20.8,20.8,0,0,1-8.29-8.62,37.61,37.61,0,0,1-3.72-13.25A156.39,156.39,0,0,1,59.91,41.83Zm16.23,0q0,8.12.4,13.81a38.18,38.18,0,0,0,1.58,9.24,10.19,10.19,0,0,0,3.38,5.19,9.47,9.47,0,0,0,5.8,1.63,9.49,9.49,0,0,0,5.81-1.63,10.25,10.25,0,0,0,3.38-5.19,38.18,38.18,0,0,0,1.58-9.24q.39-5.7.4-13.81t-.4-13.76a38.82,38.82,0,0,0-1.58-9.24,10.31,10.31,0,0,0-3.38-5.25A9.55,9.55,0,0,0,87.3,12a9.54,9.54,0,0,0-5.8,1.63,10.25,10.25,0,0,0-3.38,5.25,38.82,38.82,0,0,0-1.58,9.24Q76.13,33.71,76.14,41.83Z"/><path class="cls-1" d="M135.11,56.94V59.3a26.91,26.91,0,0,0,.45,5.13,8.91,8.91,0,0,0,1.69,3.89,8.39,8.39,0,0,0,3.27,2.48,13.2,13.2,0,0,0,5.3.9,10.37,10.37,0,0,0,6.71-2.42q3-2.43,3-7.5a13.45,13.45,0,0,0-.73-4.68,9.42,9.42,0,0,0-2.42-3.55,17.25,17.25,0,0,0-4.46-2.87A61.76,61.76,0,0,0,141.08,48a54.44,54.44,0,0,1-9.36-4,26.65,26.65,0,0,1-6.59-5,17.53,17.53,0,0,1-3.89-6.54A27.78,27.78,0,0,1,120,23.68q0-11.85,6.65-17.76T144.91,0a39.65,39.65,0,0,1,10,1.18A20.89,20.89,0,0,1,162.79,5,18,18,0,0,1,168,11.78a23.85,23.85,0,0,1,1.86,9.87V23.9H154.27c0-3.83-.67-6.78-2-8.85s-3.6-3.1-6.76-3.1a11.21,11.21,0,0,0-4.51.79,7.67,7.67,0,0,0-2.88,2.09,7.18,7.18,0,0,0-1.46,3,15.58,15.58,0,0,0-.4,3.5,11.62,11.62,0,0,0,1.58,6.25q1.58,2.55,6.77,4.68l12.51,5.42a41.31,41.31,0,0,1,7.5,4.22,20.21,20.21,0,0,1,4.73,4.74,15.66,15.66,0,0,1,2.43,5.58,31.28,31.28,0,0,1,.67,6.76q0,12.75-7.38,18.72t-20.58,6q-13.76,0-19.67-6.14T118.87,60.2V56.94Z"/><path class="cls-1" d="M51.75,52.2a15.66,15.66,0,0,0-2.43-5.58,20.21,20.21,0,0,0-4.73-4.74,41.31,41.31,0,0,0-7.5-4.22L24.58,32.24q-5.19-2.13-6.77-4.68a11.62,11.62,0,0,1-1.58-6.25,15,15,0,0,1,.4-3.5,7.18,7.18,0,0,1,1.46-3A7.67,7.67,0,0,1,21,12.74,11.21,11.21,0,0,1,25.48,12q4.74,0,6.76,3.1c1.36,2.07,2,5,2,8.85H49.83V21.65A23.85,23.85,0,0,0,48,11.78,18,18,0,0,0,42.79,5a20.89,20.89,0,0,0-7.9-3.84A39.65,39.65,0,0,0,24.91,0Q13.3,0,6.65,5.92T0,23.68a27.78,27.78,0,0,0,1.24,8.79A17.53,17.53,0,0,0,5.13,39a26.65,26.65,0,0,0,6.59,5,54.44,54.44,0,0,0,9.36,4,61.76,61.76,0,0,1,6.82,2.65,17.25,17.25,0,0,1,4.46,2.87,9.42,9.42,0,0,1,2.42,3.55,13.45,13.45,0,0,1,.73,4.68q0,5.07-3,7.5a10.37,10.37,0,0,1-6.71,2.42,13.2,13.2,0,0,1-5.3-.9,8.47,8.47,0,0,1-3.27-2.48,8.91,8.91,0,0,1-1.69-3.89,26.91,26.91,0,0,1-.45-5.13V56.94H1.48l6.29,23c4,2.5,9.53,3.75,16.7,3.75q13.19,0,20.57-6T52.42,59A31.28,31.28,0,0,0,51.75,52.2Z"/><circle class="cls-1" cx="55.57" cy="78.39" r="4.86"/><circle class="cls-1" cx="114.76" cy="78.39" r="4.86"/><circle class="cls-1" cx="175.88" cy="78.39" r="4.86"/></g></g></svg>