<?xml version="1.0" encoding="utf-8"?>
<!-- Generator: Adobe Illustrator 24.1.1, SVG Export Plug-In . SVG Version: 6.00 Build 0)  -->
<svg version="1.1" id="Capa_1" xmlns="http://www.w3.org/2000/svg" xmlns:xlink="http://www.w3.org/1999/xlink" x="0px" y="0px"
	 viewBox="0 0 46.6 46.6" style="enable-background:new 0 0 46.6 46.6;" xml:space="preserve">
<style type="text/css">
	.st0{fill:#FF4633;}
</style>
<g id="Capa_2_1_">
	<g id="Capa_1-2">
		<path class="st0" d="M36.6,1.7c0-0.6-0.4-1.2-0.9-1.5c-0.6-0.3-1.3-0.2-1.8,0.2L19.2,12.1l17.4,17.4V1.7z"/>
		<path class="st0" d="M46.1,43.8L2.8,0.5C2.1-0.1,1.1,0,0.5,0.7c-0.5,0.6-0.5,1.6,0,2.2L11,13.3h-1c-1,0-1.9,0.4-2.5,1.2
			c-0.5,0.6-0.8,1.3-0.8,2.1V30c0,1.8,1.5,3.3,3.3,3.3h7.7l16.2,13c0.3,0.2,0.6,0.3,1,0.4c0.3,0,0.5-0.1,0.7-0.2
			c0.6-0.3,0.9-0.9,0.9-1.5v-6l7.1,7.1c0.3,0.3,0.7,0.5,1.2,0.5c0.9,0,1.7-0.7,1.7-1.6C46.6,44.5,46.4,44.1,46.1,43.8L46.1,43.8z"/>
	</g>
</g>
</svg>
