<svg xmlns="http://www.w3.org/2000/svg" viewBox="0 0 59.47 46.61"><defs><style>.cls-1{fill:#fff;}</style></defs><title>soundOnRecurso 18</title><g id="Capa_2" data-name="Capa 2"><g id="Capa_1-2" data-name="Capa 1"><path class="cls-1" d="M29,.17a1.63,1.63,0,0,0-1.77.2l-10,8-6.26,5H3.33A3.25,3.25,0,0,0,.8,14.52,3.25,3.25,0,0,0,0,16.65V30A3.34,3.34,0,0,0,3.33,33.3h7.72l16.21,13a1.73,1.73,0,0,0,1,.36,1.92,1.92,0,0,0,.73-.16A1.68,1.68,0,0,0,30,45V1.67A1.68,1.68,0,0,0,29,.17Z"/><path class="cls-1" d="M39.79,4.33a1.5,1.5,0,0,0,0,3,16.67,16.67,0,1,1,0,33.34,1.5,1.5,0,0,0,0,3,19.67,19.67,0,1,0,0-39.34Z"/><path class="cls-1" d="M50.38,24A11.42,11.42,0,0,0,39,12.59a1.5,1.5,0,0,0,0,3,8.41,8.41,0,1,1,0,16.82,1.5,1.5,0,0,0,0,3A11.42,11.42,0,0,0,50.38,24Z"/></g></g></svg>