<svg xmlns="http://www.w3.org/2000/svg" xmlns:xlink="http://www.w3.org/1999/xlink" viewBox="0 0 145.9 146"><defs><style>.cls-1{fill:none;}.cls-2{fill:#fff;}.cls-3{fill:#041f4a;}.cls-4{fill:url(#Nueva_muestra_de_motivo_1);}.cls-5{fill:#ff4d33;}</style><pattern id="Nueva_muestra_de_motivo_1" data-name="Nueva muestra de motivo 1" width="1922" height="354.28" patternTransform="translate(-196 -140.88)" patternUnits="userSpaceOnUse" viewBox="0 0 1922 354.28"><rect class="cls-1" width="1922" height="354.28"/><rect class="cls-2" width="1922" height="354.28"/></pattern></defs><title>videoTourRecurso 39</title><g id="Capa_2" data-name="Capa 2"><g id="Capa_1-2" data-name="Capa 1"><path class="cls-3" d="M127.9,146H18.1A18.1,18.1,0,0,1,0,127.9V18.2A18.18,18.18,0,0,1,18.1,0H127.8a18.1,18.1,0,0,1,18.1,18.1V127.8a18,18,0,0,1-18,18.2"/><path class="cls-4" d="M92.62,115.39v2.83H88.88v14.31H85.42V118.22H81.68v-2.83Z"/><path class="cls-4" d="M99.58,115.05c5.19,0,5.84,3.7,5.84,8.91s-.65,8.9-5.84,8.9-5.83-3.69-5.83-8.9S94.4,115.05,99.58,115.05Zm0,15.27c2,0,2.38-1.75,2.38-6.36s-.34-6.36-2.38-6.36-2.37,1.77-2.37,6.36S97.54,130.32,99.58,130.32Z"/><path class="cls-4" d="M110.7,115.39v12c0,1.71.4,3,2,3s2-1.27,2-3v-12h3.45v12c0,4.37-2.66,5.52-5.47,5.52s-5.47-.93-5.47-5.52v-12Z"/><path class="cls-4" d="M120.37,115.39h6.38c2.83,0,4.56,1.49,4.56,4.42,0,2.28-.91,3.81-2.85,4.22v0c2.35.31,2.71,1.61,2.76,5.23,0,1.8.12,2.74.76,3.07v.15h-3.74a3.27,3.27,0,0,1-.43-1.8l-.1-3.29c0-1.35-.65-2.16-2-2.16h-1.85v7.25h-3.45Zm3.45,7.49h1.44c1.66,0,2.6-.72,2.6-2.57a2.13,2.13,0,0,0-2.41-2.38h-1.63Z"/><path class="cls-5" d="M115.51,75.7,49.36,120.14a1.45,1.45,0,0,1-2.26-1.2V30.05a1.45,1.45,0,0,1,2.26-1.2l66.15,44.44A1.46,1.46,0,0,1,115.51,75.7Z"/></g></g></svg>