<svg xmlns="http://www.w3.org/2000/svg" viewBox="0 0 181.86 282.49"><defs><style>.cls-1{fill:#fff;}.cls-2{fill:#ff2000;}</style></defs><title>champuRecurso 8</title><g id="Capa_2" data-name="Capa 2"><g id="Capa_1-2" data-name="Capa 1"><path class="cls-1" d="M.92,110.22a277.34,277.34,0,0,0,9.93,54.09,275.06,275.06,0,0,0,58.82,107,33.37,33.37,0,0,0,34.18,9.93l50.57-14.57A33.35,33.35,0,0,0,178.08,240,275.07,275.07,0,0,0,171,118.18,277.93,277.93,0,0,0,150.65,67.1L69.49,72.84Z"/><path class="cls-2" d="M112.19,11.23A33.37,33.37,0,0,0,78,1.3L27.44,15.86A33.39,33.39,0,0,0,3.77,42.45,274.4,274.4,0,0,0,.92,110.22L150.65,67.1A273.9,273.9,0,0,0,112.19,11.23Z"/><path class="cls-2" d="M166.83,104.93l-41,11.81c-13-15.31-30.79-22.93-47.17-18.21S51.27,119.13,48.37,139l-9,2.58L7.34,150.86q1.58,6.72,3.51,13.45A277.53,277.53,0,0,0,30.3,213.62L63,204.21l3.84-1.11C79.86,218.42,97.6,226,114,221.32s27.35-20.61,30.26-40.52l36.51-10.51A277.2,277.2,0,0,0,171,118.18C169.72,113.71,168.32,109.29,166.83,104.93Z"/><path class="cls-1" d="M128.63,166.77A16.67,16.67,0,1,1,108,155.37,16.67,16.67,0,0,1,128.63,166.77Z"/><path class="cls-1" d="M106.06,138.58a8.34,8.34,0,1,1-10.31-5.7A8.34,8.34,0,0,1,106.06,138.58Z"/><path class="cls-1" d="M86,158.32a12.5,12.5,0,1,1-15.47-8.55A12.5,12.5,0,0,1,86,158.32Z"/></g></g></svg>