<svg xmlns="http://www.w3.org/2000/svg" viewBox="0 0 137.75 255.66"><defs><style>.cls-1{fill:#ff2000;}.cls-2{fill:#fff;}.cls-3{fill:#ff4633;}.cls-4{fill:#27d1b3;}.cls-5{fill:#138b80;}</style></defs><title>ketchupRecurso 12</title><g id="Capa_2" data-name="Capa 2"><g id="Capa_1-2" data-name="Capa 1"><path class="cls-1" d="M29.58,60.2,135,78.62l-5.53,31.62L24.06,91.81Z"/><path class="cls-1" d="M3.94,207,.16,228.59a10.43,10.43,0,0,0,8.49,12.08L93.52,255.5A10.43,10.43,0,0,0,105.6,247l3.78-21.63Z"/><path class="cls-2" d="M24.79,87.62,130.24,106,108.6,229.89,3.15,211.46Z"/><path class="cls-2" d="M112.25,44.5,62.59,35.83l5.5-31.51a5.22,5.22,0,0,1,6-4.24L113.51,7a5.22,5.22,0,0,1,4.24,6Z"/><path class="cls-3" d="M123.76,44.7,51.69,32.1A5.21,5.21,0,0,0,47,33.68l-16.76,18a5.26,5.26,0,0,0-1.33,2.66L28,59.58a5.22,5.22,0,0,0,4.25,6l98.49,17.22a5.23,5.23,0,0,0,6-4.25l.93-5.28a5.26,5.26,0,0,0-.35-3l-9.67-22.57A5.23,5.23,0,0,0,123.76,44.7Z"/><path class="cls-3" d="M115.43,26.31l-28.61-5a3.75,3.75,0,1,1,1.28-7.38l28.62,5Z"/><path class="cls-3" d="M68.15,116.88,38,111.61a3.75,3.75,0,1,1,1.29-7.38l30.18,5.27a3.75,3.75,0,1,1-1.29,7.38Z"/><circle class="cls-1" cx="66.47" cy="166.61" r="30.99"/><path class="cls-4" d="M100,180.05l1.22-6.75A35.75,35.75,0,0,0,72,131.65l-6.76-1.13a2.5,2.5,0,0,0-2,4.37l14.9,12.54-8.94,14.34a2.5,2.5,0,0,0,2.61,3.77l16.7-3.35,6.74,18.27A2.5,2.5,0,0,0,100,180.05Z"/><path class="cls-3" d="M28.49,203.48l-6.38-1.12A3.75,3.75,0,1,1,23.4,195l6.38,1.12a3.75,3.75,0,0,1-1.29,7.38Z"/><path class="cls-5" d="M92,149l0,.07a3.66,3.66,0,0,0,5.76,1.85,23.75,23.75,0,0,0,8.39-13.55,3.76,3.76,0,0,0-2.67-4.5l-.09,0a3.75,3.75,0,0,0-4.53,2.76A16.5,16.5,0,0,1,93.17,145,3.65,3.65,0,0,0,92,149Z"/></g></g></svg>