<svg xmlns="http://www.w3.org/2000/svg" viewBox="0 0 134.48 134.48"><defs><style>.cls-1{fill:#fff;}.cls-2{fill:#ff4633;}.cls-3{fill:#ff2000;}</style></defs><title>medicineRecurso 9</title><g id="Capa_2" data-name="Capa 2"><g id="Capa_1-2" data-name="Capa 1"><path class="cls-1" d="M28,112,6.73,133.33a3.94,3.94,0,0,1-5.58-5.57l21.3-21.36Z"/><path class="cls-2" d="M44.51,107l-8.87,8.89a3.93,3.93,0,0,1-5.58,0L18.94,104.73a3.92,3.92,0,0,1,0-5.56l8.87-8.91c7.6,9.5,7.24,9.16,7.64,9.48Z"/><path class="cls-3" d="M58.42,115.35a3.94,3.94,0,0,1-5.25.29L34.63,100.77a4,4,0,0,1-.61-.62L19.17,81.54a4,4,0,0,1,.29-5.24L50.74,44.93H52.6l37.09,37.2V84L58.42,115.35Z"/><path class="cls-1" d="M116.47,57.12a3.94,3.94,0,0,0,0-5.56L83.09,18.08a3.93,3.93,0,0,0-5.58,0L53.64,42l39,39,23.83-23.9Z"/><path class="cls-3" d="M133.33,23.46,111.1,1.16a3.94,3.94,0,1,0-5.58,5.56l8.15,8.18c-1.28,1.27-42,42.13-42,42.17l5.57,5.57,42-42.16L127.75,29a3.94,3.94,0,1,0,5.58-5.57Z"/><path class="cls-2" d="M102.33,37.43,77.2,62.64l-5.57-5.57L96.76,31.86Z"/><path class="cls-2" d="M95.16,78.5,89.6,84.08,50.65,45l5.56-5.58Z"/><path class="cls-2" d="M45.77,79.19a3.94,3.94,0,0,1-5.57,0L28.4,67.34,34,61.76,45.78,73.62a3.94,3.94,0,0,1,0,5.57Z"/><path class="cls-2" d="M56.89,68a3.94,3.94,0,0,1-5.57,0L39.52,56.18l5.57-5.58,11.8,11.85A3.94,3.94,0,0,1,56.89,68Z"/></g></g></svg>