<svg xmlns="http://www.w3.org/2000/svg" viewBox="0 0 155.28 224.26"><defs><style>.cls-1{fill:#e74633;}.cls-2{fill:#fff;}.cls-3{fill:#ff4633;}.cls-4{fill:#ff2000;}.cls-5{fill:#db2000;}.cls-6{fill:#ccc;}</style></defs><title>milkRecurso 5</title><g id="Capa_2" data-name="Capa 2"><g id="Capa_1-2" data-name="Capa 1"><path class="cls-1" d="M100.51,224.26h45.74a9,9,0,0,0,9-9V69.85H100.51Z"/><path class="cls-2" d="M129,21.36H28.46L0,69.85H100.51Z"/><path class="cls-3" d="M100.51,224.26H9a9,9,0,0,1-9-9V69.85H100.51V224.26Z"/><path class="cls-4" d="M0,110.54H100.51v66.78H0Z"/><path class="cls-2" d="M50.25,163.79c8.5,0,15.39-7.28,15.39-16.26,0-12.43-15.39-23.46-15.39-23.46s-15.39,11-15.39,23.46C34.86,156.51,41.75,163.79,50.25,163.79Z"/><path class="cls-5" d="M155.28,177.32H100.51V110.54h54.77Z"/><path class="cls-6" d="M28.46,21.36H129V9a9,9,0,0,0-9-9H37.49a9,9,0,0,0-9,9Z"/><path class="cls-6" d="M155.28,69.85,129,21.36,100.51,69.85Z"/></g></g></svg>