<svg xmlns="http://www.w3.org/2000/svg" viewBox="0 0 232.15 183.34"><defs><style>.cls-1{fill:#ff4633;}.cls-2{fill:#ff2000;}</style></defs><title>packageRecurso 7</title><g id="Capa_2" data-name="Capa 2"><g id="Capa_1-2" data-name="Capa 1"><path class="cls-1" d="M228.28,106H3.88a3.87,3.87,0,1,0,0,7.74H12.7l17,51.11a27.07,27.07,0,0,0,25.69,18.53H176.75a27.07,27.07,0,0,0,25.69-18.53l17-51.11h8.82a3.87,3.87,0,0,0,0-7.74Z"/><path class="cls-1" d="M226.74,60.42a3.89,3.89,0,0,0-4.62-2.94l-8.6,1.91L185.81,13.17A27,27,0,0,0,156.72.65L38.3,26.9A27.06,27.06,0,0,0,17.22,50.54l-5.57,53.6L3,106.05a3.87,3.87,0,0,0,1.67,7.56L114.26,89.32l98.21-21.77L223.8,65A3.88,3.88,0,0,0,226.74,60.42Z"/><path class="cls-2" d="M104.47,167.86A3.87,3.87,0,0,1,100.6,164V125.31a3.87,3.87,0,0,1,7.74,0V164A3.86,3.86,0,0,1,104.47,167.86Z"/><path class="cls-2" d="M127.69,167.86a3.86,3.86,0,0,1-3.87-3.86V125.31a3.87,3.87,0,0,1,7.74,0V164A3.87,3.87,0,0,1,127.69,167.86Z"/><path class="cls-2" d="M85.13,167.86A3.86,3.86,0,0,1,81.26,164V125.31a3.87,3.87,0,1,1,7.74,0V164A3.87,3.87,0,0,1,85.13,167.86Z"/><path class="cls-2" d="M69.65,167.86a3.86,3.86,0,0,1-3.85-3.48l-3.87-38.69a3.87,3.87,0,1,1,7.7-.77l3.87,38.69A3.88,3.88,0,0,1,70,167.85Z"/><path class="cls-2" d="M50.3,167.86a3.87,3.87,0,0,1-3.79-3.1l-7.74-38.7a3.87,3.87,0,1,1,7.59-1.51l7.74,38.69a3.87,3.87,0,0,1-3,4.55A3.35,3.35,0,0,1,50.3,167.86Z"/><path class="cls-2" d="M147,167.86a3.87,3.87,0,0,1-3.87-3.86V125.31a3.87,3.87,0,0,1,7.74,0V164A3.86,3.86,0,0,1,147,167.86Z"/><path class="cls-2" d="M162.51,167.86h-.39a3.92,3.92,0,0,1-2.61-1.4,3.85,3.85,0,0,1-.85-2.84l3.87-38.69a3.87,3.87,0,1,1,7.7.77l-3.87,38.69A3.86,3.86,0,0,1,162.51,167.86Z"/><path class="cls-2" d="M181.86,167.86a3.35,3.35,0,0,1-.77-.07,3.87,3.87,0,0,1-3-4.55l7.74-38.69a3.87,3.87,0,1,1,7.59,1.51l-7.74,38.69A3.87,3.87,0,0,1,181.86,167.86Z"/><path class="cls-2" d="M98.74,76.82a3.86,3.86,0,0,1-3.78-3L86.59,36a3.87,3.87,0,1,1,7.55-1.68l8.38,37.78a3.88,3.88,0,0,1-2.94,4.62A4,4,0,0,1,98.74,76.82Z"/><path class="cls-2" d="M121.4,71.79a3.88,3.88,0,0,1-3.78-3L109.25,31a3.87,3.87,0,1,1,7.55-1.68l8.38,37.78a3.88,3.88,0,0,1-2.94,4.61A4,4,0,0,1,121.4,71.79Z"/><path class="cls-2" d="M79.85,81a3.88,3.88,0,0,1-3.78-3L67.7,40.2a3.87,3.87,0,1,1,7.55-1.67L83.63,76.3a3.88,3.88,0,0,1-2.94,4.62A6,6,0,0,1,79.85,81Z"/><path class="cls-2" d="M61,85.19a3.87,3.87,0,0,1-3.84-3.41L52.53,43.17a3.87,3.87,0,0,1,7.68-.92l4.6,38.61a3.85,3.85,0,0,1-3.39,4.3A3.55,3.55,0,0,1,61,85.19Z"/><path class="cls-2" d="M38.3,90.22a3.88,3.88,0,0,1-3.87-3.79L33.61,47A3.88,3.88,0,0,1,37.4,43h.08a3.87,3.87,0,0,1,3.87,3.79l.82,39.45a3.88,3.88,0,0,1-3.79,4Z"/><path class="cls-2" d="M140.29,67.61a3.88,3.88,0,0,1-3.78-3L128.14,26.8a3.87,3.87,0,1,1,7.55-1.68l8.38,37.78a3.88,3.88,0,0,1-2.94,4.62A4,4,0,0,1,140.29,67.61Z"/><path class="cls-2" d="M159.18,63.42a3.87,3.87,0,0,1-3.68-2.66L143.35,23.82a3.87,3.87,0,0,1,7.35-2.41l12.15,36.93a3.87,3.87,0,0,1-3.68,5.08Z"/><path class="cls-2" d="M181.84,58.39a3.85,3.85,0,0,1-3.54-2.3L162.37,20a3.87,3.87,0,1,1,7.08-3.12L185.38,53a3.84,3.84,0,0,1-.3,3.67,3.9,3.9,0,0,1-3.24,1.76Z"/></g></g></svg>