<svg xmlns="http://www.w3.org/2000/svg" viewBox="0 0 148.02 229.74"><defs><style>.cls-1{fill:#fff;}.cls-2{fill:#ff4633;}.cls-3{fill:#ff2000;}</style></defs><title>pillsRecurso 14</title><g id="Capa_2" data-name="Capa 2"><g id="Capa_1-2" data-name="Capa 1"><path class="cls-1" d="M126.41,67.36l-8-3V44.72h7.4V.31H22.2V44.72h7.4V64.36l-8,3A33.45,33.45,0,0,0,0,98.54v97.9a33.34,33.34,0,0,0,33.3,33.3h81.41A33.34,33.34,0,0,0,148,196.44V98.54A33.45,33.45,0,0,0,126.41,67.36Z"/><path class="cls-2" d="M3.7,100.23V189H144.32V100.23H119.44a77.13,77.13,0,0,0-90.86,0Z"/><rect class="cls-3" x="22.2" width="104.08" height="44.87"/><path class="cls-1" d="M74.19,170.83a5.74,5.74,0,0,1-5.74-5.74v-55a5.74,5.74,0,0,1,11.48,0v55A5.74,5.74,0,0,1,74.19,170.83Z"/><path class="cls-1" d="M101.26,142.94h-55a5.74,5.74,0,0,1,0-11.48h55a5.74,5.74,0,0,1,0,11.48Z"/></g></g></svg>