<svg xmlns="http://www.w3.org/2000/svg" viewBox="0 0 238.48 426.54"><defs><style>.cls-1{fill:#fff;}.cls-2{fill:#ff4633;}.cls-3{fill:#ff2000;}</style></defs><title>softRecurso 1</title><g id="Capa_2" data-name="Capa 2"><g id="Capa_1-2" data-name="Capa 1"><path class="cls-1" d="M156.44,113.67c-6.29-16.1-12.81-27.39-28.1-42.73C107.1,49.62,64.75,40,64.75,40L60,26.33,24.43,38.76l4.83,13.79-16,26.67C-7.61,115.31.89,149.85,7,165.94Z"/><path class="cls-2" d="M238.12,363.34c-3.26,42.5-39.59,34.73-39.59,34.73l-3.73,6.71a15.16,15.16,0,0,1-8.23,6.93l-2.07.72a15.13,15.13,0,0,1-12.58-1.2L164.48,407s-7.62,20.28-29.7,19.58S92,404.67,83.37,384.33s-9.1-42-11.18-58.95c-1.37-11.13-13.54-33.17-21.68-46.88C48,274.33,45.76,270,43.7,265.66c-2.21-4.73,19.44-21.86,17.72-26.8L12.55,179l-1.28-3.65S4.85,164.1,1.7,146.76L148,95.61c5.23,9,8.85,18.49,13.27,31.08,1,2.68-19.25,19.8-18.21,22.78l18.17,51.94c2.39,6.83,27.71,5.89,29.09,13,.44,2.19.82,4.38,1.16,6.58,2.75,17.82,8.63,48.77,17.61,60.39C222,298.1,241.37,320.86,238.12,363.34Z"/><path class="cls-3" d="M62.69,31.12,24.12,44.61a5.52,5.52,0,0,1-7-3.38L10,20.83a5.52,5.52,0,0,1,3.38-7L51.91.31a5.52,5.52,0,0,1,7,3.39l7.13,20.39A5.51,5.51,0,0,1,62.69,31.12Z"/><path class="cls-3" d="M164.21,135.18l20.4,58.3a151.21,151.21,0,0,1,5.66,20.91L43.7,265.66q-3.31-7.1-5.91-14.49L12.45,178.73l148.77-52C162.18,129.37,163.17,132.2,164.21,135.18Z"/></g></g></svg>