<svg xmlns="http://www.w3.org/2000/svg" viewBox="0 0 197.43 280.03"><defs><style>.cls-1{fill:#ff4633;}.cls-2{fill:#fff;}</style></defs><title>strawRecurso 4</title><g id="Capa_2" data-name="Capa 2"><g id="Capa_1-2" data-name="Capa 1"><polygon class="cls-1" points="0 272.24 105.8 8.46 125.6 0 197.43 28.81 189.87 47.65 128.05 22.86 119.39 26.56 17.72 280.03 0 272.24"/><polygon class="cls-2" points="23.87 264.71 13.11 239.55 19.48 223.68 30.23 248.84 23.87 264.71"/><polygon class="cls-2" points="39.93 224.67 29.17 199.51 35.53 183.65 46.29 208.81 39.93 224.67"/><polygon class="cls-2" points="55.51 185.81 44.76 160.65 51.12 144.79 61.88 169.95 55.51 185.81"/><polygon class="cls-2" points="71.57 145.78 60.82 120.61 67.18 104.75 77.94 129.91 71.57 145.78"/><polygon class="cls-2" points="88.1 104.56 77.35 79.4 83.71 63.53 94.47 88.69 88.1 104.56"/><polygon class="cls-2" points="104.63 63.34 93.88 38.18 100.24 22.32 111 47.48 104.63 63.34"/><polygon class="cls-2" points="127.65 23.05 152.79 11.33 169.17 17.48 142.02 29.08 127.65 23.05"/><polygon class="cls-2" points="156.9 34.43 182.12 22.67 197.43 28.81 171.03 40.1 156.9 34.43"/></g></g></svg>