<svg xmlns="http://www.w3.org/2000/svg" xmlns:xlink="http://www.w3.org/1999/xlink" viewBox="0 0 2534.92 1661.19"><defs><style>.cls-1{fill:none;}.cls-2{clip-path:url(#clip-path);}.cls-3{fill:#041f4a;}.cls-4{fill:#ff4633;}.cls-5{fill:#ff7460;}.cls-6{fill:#fff;}.cls-7{fill:#78abff;}</style><clipPath id="clip-path" transform="translate(329.1 440.53)"><rect class="cls-1" width="1920" height="1080"/></clipPath></defs><g id="Capa_2" data-name="Capa 2"><g id="Capa_1-2" data-name="Capa 1"><g class="cls-2"><polygon class="cls-3" points="329.1 439.53 2249.1 440.53 2249.1 1520.53 328.92 1520 329.1 439.53"/><path class="cls-4" d="M533.22,861.88c28.69-.11,228.67,31.58,247.45-130.59s-60.85-207.91,60.57-256S1272.82,590.47,1090,895.47c-181.08,302.13-469,396.11-603.54,272C346.83,1038.65,375.82,862.47,533.22,861.88Z" transform="translate(329.1 440.53)"/><path class="cls-5" d="M455.68-320.42C476.62-306,596.34-167.06,694.45-277S761.83-466.1,870.58-432.88s96.15,248-63.76,443.35c-185,226-516.48,38.47-543.81-130.25C234.64-294.86,403.67-356.2,455.68-320.42Z" transform="translate(329.1 440.53)"/><path class="cls-6" d="M984.31,204.93C974.11,252.3,929.07,282.78,883.7,273S809.82,216.92,820,169.56,898.54,51.16,943.9,60.93,994.51,157.56,984.31,204.93Z" transform="translate(329.1 440.53)"/><path class="cls-5" d="M1337.94,853.48c-28.59-38.47-39.21-86.62-7.43-122.5A86.79,86.79,0,0,1,1453,723.55c35.88,31.78,57.56,123,30.67,162.71C1448.82,937.74,1371.23,898.29,1337.94,853.48Z" transform="translate(329.1 440.53)"/><path class="cls-7" d="M2205.82,491.47c0,180-146,326-326,326s-326-146-326-326,227-249,326-326C2021.94,54.94,2205.82,311.43,2205.82,491.47Z" transform="translate(329.1 440.53)"/><path class="cls-6" d="M0,1135C263,963.13,439,744.53,455,511.74,474,235,273.87,117.69,86.78,90.85c-237-34-264.66,273.75-163,418,105,149,0,372-196,458C-473.68,1055.25-81.59,1188.33,0,1135Z" transform="translate(329.1 440.53)"/><path class="cls-4" d="M1791.94-405.81c-312.54,155.57-482-127.09-655.3,46.15s-61.07,458.72,16.08,631.26c139.45,311.86,381,109.71,410.83-180.31C1582.19-90,1826.59-171.76,2026-94,2231-14,1791.94-405.81,1791.94-405.81Z" transform="translate(329.1 440.53)"/></g></g></g></svg>