<svg xmlns="http://www.w3.org/2000/svg" viewBox="0 0 1920 498.52"><defs><style>.cls-1{fill:#041f4a;}</style></defs><title>deco_marinaRecurso 11</title><g id="Capa_2" data-name="Capa 2"><g id="Capa_1-2" data-name="Capa 1"><path class="cls-1" d="M1458,159.17a119.53,119.53,0,0,0,4.26-22.62,73.6,73.6,0,0,0,.18-10.94c-.12-2.33-1-5.69-5.29-5.69-3.64,0-5.18,2.4-5.87,5.66-1.75,8.32-2.78,12.52-3.21,13.92-5.32,17.3-16,32.62-24,49.09a95.06,95.06,0,0,0-7.22,21.13q-.42-2.59-1.1-5.19c-2.19-8.24-6.52-16.34-9.25-24.55a42.56,42.56,0,0,1-2.47-12.3c-.09-3.48,1.8-7.85,0-11.28l-.14.08c-3.79,2.24-4.32,9-4.86,12.3a37.57,37.57,0,0,0,.44,14.12c2.07,9.62,6.25,19.12,7,28.76-.21-.63-.44-1.26-.67-1.88-8.93-23.72-21.51-44.24-30.41-57.19-1.79-2.69-5.24-8.23-7.79-10.78-1.86-2.43-3-3.77-3-3.77s-.75,1.51-1.84,4.25-2.2,6.61-3.12,8.94c-4.76,15.54-9.91,43-.18,72.39a209.51,209.51,0,0,0,17.81,38.66q-5.91.25-11.87.4c-.06-1.37-.15-2.75-.28-4.14-1.89-20.74-14.09-38.1-14.09-38.1a128,128,0,0,0-2.46,33.7,54.63,54.63,0,0,0,1.35,8.73c-180.3.12-304.26,46.48-439.14,22.74-57.92-10.2-230.59-24.79-376.39-28.88-.71-5.29-1.47-8.5-1.47-8.5a79.46,79.46,0,0,0-4.88,8.33l-5.32-.13c.61-1.66,1.21-3.33,1.76-5,14.93-45-5.13-85.58-5.13-85.58s-25.91,31.23-41.16,71.74c-.24.62-.46,1.24-.68,1.88.73-9.65,4.92-19.14,7-28.76a37.63,37.63,0,0,0,.44-14.13c-.55-3.32-1.07-10.06-4.86-12.29l-.14-.08c-1.83,3.42.06,7.79,0,11.27a42.89,42.89,0,0,1-2.47,12.3c-2.74,8.22-7.06,16.31-9.25,24.56-.46,1.72-.82,3.45-1.11,5.18a93.8,93.8,0,0,0-7.22-21.12c-8-16.47-18.69-31.8-24-49.09-1.41-4.58-2.85-9.2-3.21-13.92-.26-3.33-2.23-5.67-5.87-5.67-5.44,0-5.31,5.37-5.36,7.22a101.13,101.13,0,0,0,4.51,32c3.8,12.53,9.8,24.63,12.45,37.42,1.9,9.15,4.33,20.84,4.31,31.16l-6.6-.08c-2.24-3.43-4.58-6.81-6.63-10.32a48,48,0,0,1-4.37-9.31c-.89-2.74-.88-6.51-2.74-8.91a.47.47,0,0,0-.06.09,6.81,6.81,0,0,0-.76,3.92A379,379,0,0,0,394,135.21s-31.15,48.52-25.41,109c.29,3.1.65,6.18,1.06,9.24l-8.18-.41c-2.44-5.67-5.17-11.18-7.54-16.9a91.33,91.33,0,0,1-4-11.53c-.89-3.36-1.2-7.92-2.77-10.94a.42.42,0,0,0,0,.1c-1,2.81.46,9.43,1.06,12.75a86.52,86.52,0,0,0,3.64,13.64c1.51,4.27,3.22,8.44,4.87,12.63q-11.31-.62-22.3-1.36c.41-1.16.79-2.33,1.12-3.5a35.08,35.08,0,0,0,.72-16.45c-.19-1-.54-3.69-4.59-3.63-2.72,0-4,1.28-3.92,3a22.59,22.59,0,0,1-1.25,7.17,51.11,51.11,0,0,1-5.92,12.45q-9.5-.72-18.69-1.51a47.55,47.55,0,0,0,2.33-43c-4.59-10.21-11.33-19.77-13.87-30.44A31.8,31.8,0,0,1,289,167c.08-2-1.2-3.5-3.91-3.56-4.06-.08-4.41,3.21-4.6,4.34a50,50,0,0,0,.72,19.69c1.8,7.73,5.28,15.24,6.21,23.11.85,7.3,2,17.24-.63,24.47a55.78,55.78,0,0,1-6.46,11.93q-9-.92-17.6-1.91c.27-5.32,2.37-11.54,4-16.19,1.82-5.38,4.8-10.05,7-15.18a51.27,51.27,0,0,0,3.81-13.71c.11-.83.52-3.19-1.43-3.84-1.3-.43-2.17.38-2.49,1.83a31.2,31.2,0,0,1-2.11,5.81c-3.08,7.06-8,12.61-12,19a47.64,47.64,0,0,0-6.66,21.11l-2.2-.28c.07-4.39.3-8.69.82-13.3A171,171,0,0,1,255,210.21c2.66-11.09,6.68-21.31,9.88-32.09a120.28,120.28,0,0,0,3.64-16.33c.6-4,2-11.89,1.06-15.26a.36.36,0,0,0,0-.11c-1.57,3.61-1.88,9.06-2.77,13.09a123.86,123.86,0,0,1-4,13.79c-3.11,9-6.83,17.53-9.73,26.67a156.67,156.67,0,0,0-6.8,34.17c-.24,2.93-.36,5.88-.39,8.82l-7.11-1a411,411,0,0,0,9.37-59c5.74-72.39-25.41-130.45-25.41-130.45s-20.86,53.48-28,119c-2.14,19.59-.29,42.37,3.07,63.89-17.62-3.37-32.27-7-43.31-10.84.21-1.24.43-2.42.66-3.56,2.68.55,8.33,1.34,12.42-.52,5.54-2.52,9.57-7.26,8.51-10.06s-7-3-12.52-.48c-3,1.36-5.65,4.37-7.47,6.85,2.24-9,5.1-14.59,8.08-20.4,1.32-2.57,2.65-5.17,3.93-8.1,2.63.81,7.69,2,11.81,1,5.84-1.51,10.61-5.13,10.07-7.7s-6.23-3.47-12.07-2c-3,.79-6.05,3-8.24,4.84a96.42,96.42,0,0,0,5-20.37c0-.27.07-.53.11-.8,2.41.14,6.76,0,10.29-2.36,5.17-3.45,9.35-9,8.83-11.82s-5.62-2.18-10.79,1.27c-3,2-5.88,5.88-7.82,8.84a83.79,83.79,0,0,0-.63-24.58c3.16.48,9.55,1.11,13.77-.83,5.79-2.65,9.49-7.49,7.79-10.27s-8.4-2.86-14.19-.2c-3.65,1.67-6.39,5.59-7.91,8.25l-.27-1.44a96.33,96.33,0,0,1-2-15.21c2.9-.57,8.79-2,12.5-5.09,5.07-4.18,8.08-9.62,6.33-11.54s-7.85.14-12.92,4.32a24.34,24.34,0,0,0-6,8.34A105.75,105.75,0,0,1,173,97.21c.62-4.2,1.33-7.8,2.12-11,2.48.29,6.35.42,9.31-.92,4.74-2.16,8.25-6,7.42-8.22s-5.82-2.19-10.56,0a15.36,15.36,0,0,0-4.51,3.41,94.93,94.93,0,0,1,6.4-14.58c.66-1.28,1.32-2.57,2-3.9,2.24.65,6.07,1.47,9.22.66,4.77-1.24,8.66-4.2,8.23-6.3s-5.1-2.84-9.87-1.6a16.27,16.27,0,0,0-5.62,3A80,80,0,0,0,191.5,45c1.66.39,5.38,1.07,8.18,0,3.7-1.42,6.52-4.24,6-6s-4.37-2-8.07-.6A15.34,15.34,0,0,0,192,42.93c.64-2.8,1.22-5.89,1.73-9.37a2,2,0,0,0,0-.42c1.1-2.6,2.53-6.8,2-10.31a10.6,10.6,0,0,0-1.93-5.26c-1.53-2.05-5.54-3.05-7.38,1.31a11.47,11.47,0,0,0-.39,5.71c.49,3.55,3,7.09,4.78,9.16A105.1,105.1,0,0,1,188.05,47c-.76-2.59-2.26-6.54-4.74-8.67-3.9-3.35-8.8-4.49-10.4-2.39s.47,7,4.37,10.32c2.86,2.46,7.67,3.06,10,3.2a95,95,0,0,1-6.54,15c-1.37,2.66-2.74,5.35-4.06,8.4-.13-3-.64-7.52-2.54-10.68-3-5-7.59-8.25-9.7-6.78s-1.27,7.3,1.75,12.33c2.33,3.89,7.31,6.58,9.46,7.61a94.62,94.62,0,0,0-5.41,21.45c-.2,1.34-.36,2.63-.51,3.88-.54-2.65-1.95-8.06-4.85-11.18-3.94-4.24-9.06-6.36-10.85-4.46s.17,7.38,4.11,11.62c3.39,3.65,9.72,5.13,11.43,5.48a85.12,85.12,0,0,0,0,19.31c-1.46-2.78-4.06-6.91-7.39-8.72-5.25-2.85-11.19-2.92-12.57-.1s2.09,7.87,7.34,10.73c4.22,2.3,10.66,1.44,13,1,.33,2.21.72,4.29,1.1,6.36a90.47,90.47,0,0,1,2,17.36c-1-2.91-2.66-6.65-5.15-8.84-4.5-4-10.14-5.4-11.93-3s.65,8.05,5.16,12c3.45,3,9.29,3.79,11.84,4a111.1,111.1,0,0,1-1.12,11.41c-.51,3.52-1.1,6.63-1.74,9.42-1.29-3-3.53-7.21-6.71-9.52-5.35-3.9-11.79-5.18-13.65-2.69s1.29,8.2,6.64,12.09c3.76,2.74,9.65,3.45,12.83,3.64A87.34,87.34,0,0,1,161.69,195c-.76,1.49-1.54,3-2.3,4.58-.22-3.52-.92-8.35-3-11.79-3.62-6-9.11-9.89-11.64-8.12s-1.51,8.75,2.11,14.79c2.61,4.35,8,7.46,10.8,8.86a86.47,86.47,0,0,0-5.88,20.3c-2.12-.78-4.1-1.57-5.91-2.36-.19-.24-.38-.49-.58-.71-3.85-4.13-8.62-6.59-11.43-6.13-1.13-.71-2.37-1.43-3.71-2.18,2.79-8.26,7-15.89,10.29-24A59.63,59.63,0,0,0,144.12,175c.49-3.24,1.83-9.72.23-12.59l-.06-.1c-1.86,2.88-1.85,7.39-2.75,10.66a63.69,63.69,0,0,1-4.37,11.15c-3.53,7.22-7.93,14-11.16,21.38-.39.89-.75,1.79-1.11,2.69-.07-.41-.15-.8-.22-1.21-2.26-14.2,1.11-33.52,3.57-47.7,2.65-15.31,8.66-29.79,12.45-44.79a142.9,142.9,0,0,0,4.51-38.33c-.05-2.22.08-8.63-5.35-8.64-3.64,0-5.62,2.8-5.87,6.78-.37,5.64-1.81,11.18-3.22,16.66-5.31,20.7-16,39-24,58.75a128.64,128.64,0,0,0-7.22,25.28q-.42-3.1-1.11-6.21c-2.19-9.87-6.51-19.55-9.24-29.38a59.93,59.93,0,0,1-2.48-14.72c-.08-4.17,1.8-9.4,0-13.5l-.13.1c-3.8,2.67-4.32,10.73-4.87,14.71a54,54,0,0,0,.44,16.91c2.08,11.51,6.26,22.87,7,34.41-.22-.75-.44-1.5-.67-2.24C73.18,126.53,47.27,89.16,47.27,89.16s-15.83,38.29-8.89,84.63C16.57,165.75,0,160,0,160V498.52H1920V180.14c-2,.32-8.07.72-24,1-.68-5.81-1.38-9.29-1.38-9.29a95.92,95.92,0,0,0-4.63,9.4l-5.46.08q.87-2.82,1.66-5.67c14.92-53.91-5.13-102.42-5.13-102.42s-25.92,37.37-41.17,85.85c-.23.75-.45,1.5-.67,2.25.73-11.54,4.91-22.91,7-34.42a54,54,0,0,0,.44-16.9c-.55-4-1.07-12-4.87-14.72l-.14-.09c-1.83,4.1.06,9.33,0,13.49a59.91,59.91,0,0,1-2.47,14.73c-2.73,9.82-7.06,19.51-9.25,29.38-.45,2.07-.82,4.13-1.1,6.2a129.73,129.73,0,0,0-7.22-25.28c-5.45-13.46-14.17-31.8-17.58-39.64a105.87,105.87,0,0,1-6.43-19.1c-1.41-5.49-2.85-11-3.22-16.66-.26-4-2.23-6.79-5.87-6.78-5.43,0-5.3,6.42-5.35,8.63a150.76,150.76,0,0,0,1.45,23,104.23,104.23,0,0,0,1.92,10.6c.44,1.58.73,3.2,1.13,4.79,3.8,15,9.8,29.48,12.46,44.78,2,11.31,4.49,25.88,4.29,38.51-1.91.05-3.84.12-5.77.21-2.47-4.63-5.14-9.16-7.44-13.88a63.29,63.29,0,0,1-4.37-11.14c-.9-3.28-.89-7.78-2.75-10.66l-.06.1c-1.6,2.87-.27,9.34.23,12.59a59.1,59.1,0,0,0,3.67,13.28c1.37,3.4,2.91,6.72,4.46,10q-7.79.5-15.7,1.31a19.56,19.56,0,0,0,4.82-5.16c3.62-6,4.63-13,2.1-14.79s-8,2.09-11.64,8.13c-2.06,3.44-2.76,8.27-3,11.79-.76-1.58-1.54-3.09-2.31-4.59a87.44,87.44,0,0,1-7.54-18.38c3.17-.18,9.07-.89,12.83-3.63,5.35-3.89,8.5-9.59,6.64-12.09s-8.31-1.21-13.66,2.69c-3.17,2.31-5.41,6.5-6.7,9.52-.64-2.79-1.23-5.9-1.74-9.43a114.09,114.09,0,0,1-1.13-11.4c2.55-.19,8.4-.94,11.85-4,4.5-4,7-9.62,5.16-12s-7.43-.94-11.93,3c-2.49,2.18-4.16,5.92-5.15,8.84a91.32,91.32,0,0,1,2-17.36c.39-2.07.78-4.15,1.11-6.36,2.36.42,8.8,1.27,13-1,5.25-2.86,8.73-7.91,7.34-10.73s-7.32-2.76-12.57.1c-3.33,1.81-5.93,5.94-7.39,8.71a85.11,85.11,0,0,0,0-19.31c1.71-.34,8-1.82,11.43-5.47,3.94-4.24,5.89-9.72,4.1-11.62s-6.9.22-10.85,4.46c-2.9,3.12-4.3,8.53-4.84,11.17-.15-1.24-.31-2.53-.51-3.87a94.62,94.62,0,0,0-5.41-21.45c2.15-1,7.12-3.72,9.45-7.61,3-5,3.87-10.85,1.76-12.33s-6.68,1.74-9.71,6.77c-1.89,3.16-2.41,7.73-2.53,10.69-1.32-3.06-2.7-5.74-4.06-8.4a94.08,94.08,0,0,1-6.54-15c2.35-.15,7.16-.74,10-3.2,3.9-3.35,6-8.22,4.37-10.32s-6.51-1-10.4,2.38c-2.48,2.13-4,6.08-4.74,8.67a102.8,102.8,0,0,1-2.79-13.25c1.75-2.08,4.29-5.62,4.78-9.16.76-5.52-1.15-8.17-3.73-8.64s-5.22,1.36-6,6.88c-.48,3.5,1,7.7,2,10.31a1.48,1.48,0,0,0,0,.42c.51,3.47,1.09,6.57,1.73,9.36-1.28-1.56-3.35-3.71-5.59-4.57-3.7-1.42-7.51-1.15-8.07.59s2.27,4.58,6,6c2.8,1.08,6.52.4,8.17,0a80.46,80.46,0,0,0,4.36,12.83,16.53,16.53,0,0,0-5.62-3c-4.77-1.23-9.44-.49-9.87,1.61s3.46,5.06,8.23,6.29c3.15.82,7,0,9.22-.65.65,1.33,1.31,2.62,2,3.89a95.36,95.36,0,0,1,6.4,14.58,15.85,15.85,0,0,0-4.51-3.41c-4.74-2.15-9.73-2.15-10.56,0s2.68,6.06,7.41,8.21c3,1.35,6.84,1.22,9.32.93.79,3.18,1.5,6.78,2.11,11a107.92,107.92,0,0,1,1.2,13.71,24.54,24.54,0,0,0-6-8.33c-5.07-4.18-11.17-6.23-12.92-4.32s1.26,7.36,6.33,11.53c3.71,3.06,9.6,4.53,12.5,5.1a97.67,97.67,0,0,1-2,15.21l-.27,1.44c-1.53-2.67-4.26-6.58-7.91-8.25-5.79-2.66-12.49-2.58-14.19.2s2,7.61,7.79,10.27c4.22,1.93,10.61,1.31,13.77.83a83.73,83.73,0,0,0-.63,24.57c-1.94-3-4.85-6.85-7.82-8.83-5.17-3.45-10.27-4.07-10.79-1.27s3.66,8.37,8.83,11.82c3.52,2.35,7.87,2.5,10.29,2.35,0,.27.07.54.11.81a96,96,0,0,0,5,20.37c-2.19-1.9-5.2-4.06-8.24-4.84-5.84-1.52-11.55-.61-12.08,2s4.24,6.19,10.08,7.7c4.12,1.07,9.18-.15,11.81-1,1.28,2.93,2.61,5.53,3.93,8.09.75,1.47,1.49,2.92,2.22,4.41-10.64,1.36-21.45,3.11-32.46,5.18a196.25,196.25,0,0,0-.32-34.47c-7.15-65.49-28-119-28-119s-31.15,58.06-25.41,130.45c.91,11.53,2.42,22.89,4.29,33.81l-4.68,1.14a155.9,155.9,0,0,0-4.54-17.94c-2.9-9.14-6.62-17.68-9.73-26.67a124.48,124.48,0,0,1-4-13.79c-.89-4-1.2-9.49-2.78-13.1l0,.12c-1,3.36.46,11.29,1.06,15.26a119.78,119.78,0,0,0,3.63,16.32c3.2,10.79,7.23,21,9.88,32.1.71,2.92,1.32,5.89,1.86,8.86l-7.51,1.9c-3.74-5.67-8-10.83-10.82-17.23a31.17,31.17,0,0,1-2.1-5.81c-.32-1.45-1.19-2.26-2.49-1.83-2,.64-1.54,3-1.43,3.84a50.9,50.9,0,0,0,3.81,13.71c1.4,3.24,3.1,6.3,4.63,9.46q-9.5,2.46-19.16,5c-.55-5.92.21-12.42.82-17.59.93-7.88,4.41-15.38,6.21-23.11a50,50,0,0,0,.72-19.69c-.2-1.13-.54-4.42-4.6-4.34-2.72.05-4,1.52-3.91,3.56a31.8,31.8,0,0,1-1.25,8.58c-2.54,10.67-9.28,20.22-13.87,30.44a47.58,47.58,0,0,0-3.35,27.24c-17.08,4.52-34.5,9.13-52.27,13.6-4.21-6.82-9.06-13.46-11.12-20.72a22.49,22.49,0,0,1-1.26-7.16c.09-1.71-1.19-2.93-3.91-3-4.06-.07-4.4,2.68-4.59,3.63a35,35,0,0,0,.72,16.45c1.35,4.87,3.66,9.63,5.12,14.5-3.49.85-7,1.69-10.5,2.52a35.67,35.67,0,0,0,1.68-6.56c.11-.69.53-2.67-1.42-3.21a1.88,1.88,0,0,0-2.49,1.53,24.07,24.07,0,0,1-2.11,4.86,40.57,40.57,0,0,1-3.32,5.17q-6.93,1.6-13.93,3.14c.26-1,.5-1.95.78-2.91,2.66-9.27,6.68-17.8,9.88-26.82a86.23,86.23,0,0,0,3.64-13.64c.59-3.31,2-9.94,1.06-12.74l0-.1c-1.57,3-1.89,7.57-2.78,10.94a91.14,91.14,0,0,1-4,11.52c-3.12,7.51-6.84,14.65-9.74,22.28a114.94,114.94,0,0,0-4,12.59c-15.22,3.28-30.67,6.3-46.35,8.95,1.34-8.07,2.6-16.45,3.7-24.91,2.75-21.2,2.8-40.17,3.57-55.11.16-3.26-.05-8.2-.14-10.66-.53-14.59-1.47-23.78-1.47-23.78s-2.3,9.38-5.41,24.41l-1.85,9.16c-2,9.84-4.07,21.32-6.09,33.74.27-2.22.29-4.48-.6-5.81l-.06-.08c-1.86,2.4-1.85,6.17-2.74,8.9a49,49,0,0,1-4.37,9.32c-3.53,6-7.93,11.71-11.16,17.87-.39.74-.75,1.49-1.11,2.24-.07-.34-.16-.67-.22-1-2.27-11.86,1.1-28,3.56-39.86,2.09-10.06,6.62-19.88,10-29.69C1456.16,165,1457.29,161.4,1458,159.17ZM422.12,235.82l.32,1.71a43.9,43.9,0,0,0,3.67,11.09c1.1,2.28,2.32,4.52,3.55,6.75l-6.88-.13A127.64,127.64,0,0,0,422.12,235.82Zm1026.07,19.74c-1.09-2.5-2.12-5.05-3.06-7.68.47-1.82,1-3.64,1.66-5.43,2.75-7.52,7.42-14.35,10.93-21.63a43.48,43.48,0,0,0,3.66-11.09c.11-.58.25-1.29.4-2.07-.83,5.17-1.63,10.49-2.4,15.91-1.36,9.66-2.29,20.24-2.92,30.77Q1452.34,255,1448.19,255.56ZM1414.66,234a81.1,81.1,0,0,0,4.92,25.09q-4.14.44-8.29.82c.33-6.16.41-12.6.11-19A45.46,45.46,0,0,0,1414.66,234Z"/></g></g></svg>