<svg xmlns="http://www.w3.org/2000/svg" xmlns:xlink="http://www.w3.org/1999/xlink" viewBox="0 0 44.39 43"><defs><style>.cls-1{fill:none;}.cls-2{fill:#fff;}.cls-3{fill:url(#Nueva_muestra_de_motivo_1);}</style><pattern id="Nueva_muestra_de_motivo_1" data-name="Nueva muestra de motivo 1" width="1922" height="354.28" patternUnits="userSpaceOnUse" viewBox="0 0 1922 354.28"><rect class="cls-1" width="1922" height="354.28"/><rect class="cls-2" width="1922" height="354.28"/></pattern></defs><title>infoRecurso 50</title><g id="Capa_2" data-name="Capa 2"><g id="Capa_1-2" data-name="Capa 1"><path class="cls-3" d="M22.2,0C9.94,0,0,9.63,0,21.5S9.94,43,22.2,43s22.19-9.63,22.19-21.5S34.46,0,22.2,0Zm0,9.75a2.59,2.59,0,1,1,0,5.16,2.59,2.59,0,1,1,0-5.16Zm4.2,22H18V30.24l1.34-.32c0-1.45,0-3.22,0-4.45V24c0-1.65,0-2.58-.09-3.78L17.69,20V18.75l7-2.07.54.33-.09,4.47v4c0,1.25,0,3.05,0,4.51l1.25.26Z"/></g></g></svg>