<svg xmlns="http://www.w3.org/2000/svg" xmlns:xlink="http://www.w3.org/1999/xlink" viewBox="0 0 1167.93 845.92"><defs><style>.cls-1{fill:none;}.cls-2{fill:#eaeaea;}.cls-3{clip-path:url(#clip-path);}</style><clipPath id="clip-path"><path class="cls-1" d="M24,494.56c-14.57-18.35-42-61-6-110,10-13,33-31,44-37l7-18,7,10s44-21,79-29,52-12,52-12,2-6,7-6a10.8,10.8,0,0,1,8,4l33-5s-6-15-1-19,14,7,17,16h8l11-26s-12-2-16-6-10-14-6-18,13,1,18,7,5,11,5,11a109.77,109.77,0,0,0,3-11l2-10s-8-11-8-17,2-13,6-13,10,2,10,13-3,16-3,16l-3,15s7-6,11-7,9-1,10,2-4,9-9,10a28.45,28.45,0,0,1-13,0s-2,9-3,12-4,9-4,9,6-4,11-5,12,0,13,3-6,10-12,11-15-1-15-1l-2,4,56-5,5-14,7,14s69-4,108-3,163-4,205-13,79-23,117-76,48-104,208-123c83.62-9.93,174-10,174-10L1166.93,841s-121,5-335,0c-154-11-232.91-56.12-246-65-28-19-45.92-37.39-74-87-30-53-56.07-80.56-150-91-48-3-97,1-164.92-13.44C115.11,567.15,52.93,531,24,494.56Z"/></clipPath></defs><title>bloc2Recurso 9</title><g id="Capa_2" data-name="Capa 2"><g id="Capa_1-2" data-name="Capa 1"><path class="cls-2" d="M1167.93,0c-587.74,0-187,279.56-713.73,279.56-668.8,0-492.5,316-149.13,316,391,0-46.7,291.44,861.86,245.44Z"/><g class="cls-3"><image width="1192" height="1394" transform="matrix(0.37, 0.01, -0.01, 0.37, 53.71, 196.03)" xlink:href="../../../../../2_PLASTIFICADOS_DESARROLLO/WEB/plantasRecurso%207@2x-8.png"/></g></g></g></svg>