<svg xmlns="http://www.w3.org/2000/svg" viewBox="0 0 228.97 303.36"><defs><style>.cls-1{fill:#ff4633;}.cls-2{fill:#fff;}.cls-3{fill:#ff2000;}</style></defs><title>cleanerRecurso 10</title><g id="Capa_2" data-name="Capa 2"><g id="Capa_1-2" data-name="Capa 1"><path class="cls-1" d="M16.74,160l168.07-51.75L218.3,217,50.23,268.74Z"/><path class="cls-2" d="M48.7,263.8l168.08-51.75a5.18,5.18,0,0,1,6.47,3.42l4.56,14.83a25.85,25.85,0,0,1-17.11,32.33L82.18,302.2a25.86,25.86,0,0,1-32.33-17.1l-4.57-14.84A5.17,5.17,0,0,1,48.7,263.8Z"/><path class="cls-3" d="M197,147.77l9.13,29.67L152,194.09a37.65,37.65,0,0,1-25.4,24.06,37.63,37.63,0,0,1-34.53-5.61L38,229.19l-9.13-29.66L83,182.88a37.63,37.63,0,0,1,25.4-24.06,37.61,37.61,0,0,1,34.52,5.61Z"/><path class="cls-2" d="M104.2,198a5.18,5.18,0,0,1-6.47-3.42c-2.47-8,4.49-17.62,15.21-20.92a5.17,5.17,0,1,1,3,9.89c-6.43,2-8.81,6.55-8.37,8A5.17,5.17,0,0,1,104.2,198Z"/><path class="cls-2" d="M122.08,203.32a5.17,5.17,0,0,1-3-9.89c6.43-2,8.81-6.56,8.37-8a5.17,5.17,0,1,1,9.88-3C139.76,190.43,132.79,200,122.08,203.32Z"/><path class="cls-2" d="M73.74,28.75l-9.89,3A10.36,10.36,0,0,1,50.92,25l-3-9.89L8.32,27.24l3,9.89c-22.43,50.21-5.81,104,.4,124.37a5.18,5.18,0,0,0,6.47,3.42l168.1-51.75a5.18,5.18,0,0,0,3.42-6.47l-6.09-19.78A87.94,87.94,0,0,0,73.74,28.75Zm73.87,51.47c-2.32,10.72-20.47,15.45-40.58,10.6S72.5,73.25,74.83,62.52,95.26,47,115.41,51.92,149.92,69.44,147.61,80.22Z"/><path class="cls-1" d="M3.76,12.41,43.31.23a5.18,5.18,0,0,1,6.47,3.42l4.56,14.83A5.17,5.17,0,0,1,50.92,25L11.37,37.13A5.18,5.18,0,0,1,4.9,33.71L.33,18.87A5.17,5.17,0,0,1,3.76,12.41Z"/></g></g></svg>