<svg xmlns="http://www.w3.org/2000/svg" xmlns:xlink="http://www.w3.org/1999/xlink" viewBox="0 0 1134 770.82"><defs><style>.cls-1{fill:none;}.cls-2{fill:#fff;}.cls-3{clip-path:url(#clip-path);}.cls-4{fill:#78a5ff;}.cls-5{fill:#ff2000;}.cls-6{fill:#ff4031;}.cls-7{fill:red;}.cls-8{fill:#ff4d33;}.cls-9{fill:#041f4a;}</style><clipPath id="clip-path"><path class="cls-1" d="M0,0H1179.34a.66.66,0,0,1,.66.66V683.11a4.89,4.89,0,0,1-4.89,4.89H0a0,0,0,0,1,0,0V0A0,0,0,0,1,0,0Z" transform="translate(1180 688) rotate(-180)"/></clipPath></defs><title>plantasRecurso 27</title><g id="Capa_2" data-name="Capa 2"><g id="Capa_1-2" data-name="Capa 1"><path class="cls-2" d="M55.85,0h1022.3A55.85,55.85,0,0,1,1134,55.85V627.91A60.09,60.09,0,0,1,1073.91,688H55.85A55.85,55.85,0,0,1,0,632.15V55.85A55.85,55.85,0,0,1,55.85,0Z" transform="translate(1134 688) rotate(-180)"/><g class="cls-3"><g id="Capa_1-2-2" data-name="Capa 1-2"><path class="cls-4" d="M229,524.66c2.33,4.66.21,15.12-.6,20.37a103.86,103.86,0,0,1-5.73,21.45c-5.42,14.06-12.57,27.22-16.85,41.76a143.91,143.91,0,0,0-5.18,26.5,132.49,132.49,0,0,0,.24,25.5q2.46,27.33,3.82,54.75c.23,4.69,4.14,22.72-4.22,21.81-3.27-.36-3.87-5.51-4-8-.68-16.71-.37-30.2-1.91-43-1.8-15.33-5-31.18-4.22-46.64a134.46,134.46,0,0,1,10.34-45c5-11.88,11.71-22.82,17.11-34.48a109.85,109.85,0,0,0,6.75-18c1.4-5.28,1.48-12.58,4.32-17.22Z"/><path class="cls-5" d="M416.56,500.62c1.38,5.46-1,18.27-1.91,24.68a210.08,210.08,0,0,1-5.72,26.38c-5,17.43-11.22,33.92-15.42,51.84A292.28,292.28,0,0,0,387.83,636a262.15,262.15,0,0,0-1.64,30.81q-.13,32.85-1.11,65.9c-.17,5.64,1.44,27.13-4.66,26.71-2.4-.17-2.47-6.36-2.38-9.3.69-20.16,1.91-36.49,1.68-51.87-.24-18.38-1.48-37.3.19-56a273.23,273.23,0,0,1,10.85-55.23c4.49-14.78,10.28-28.56,15.05-43.07a212.41,212.41,0,0,0,6.27-22.29c1.41-6.49,2-15.33,4.41-21.15Z"/><path class="cls-6" d="M411.89,731.64c-4-3.82-3.08-13.72-2.86-18.48a67.09,67.09,0,0,1,5.1-21.69c7.12-17.72,19.93-29.52,26.29-47.45,4.14-11.67,2.58-27.78,1.44-39.6-1.22-12.76-6.28-24.95-8.81-37.5a87.62,87.62,0,0,1-.67-31.88c.31-1.84.89-7.15,6.95-7,4.07.13,5.95,2.51,5.73,5.82-.23,4.69.75,9.31,1.69,13.89,3.58,17.32,13.46,32.87,20.12,49.46,9,22.37,7.69,51.2-6.89,73.77-5.76,9.11-14.1,17.7-21.2,26.28a225.12,225.12,0,0,0-19.21,27.08c-.95,1.55-3.1,7-5.33,7.76A2.22,2.22,0,0,1,411.89,731.64Z"/><path class="cls-7" d="M471.46,641.39c-.16,1-6.84,2-15.14,1.66s-15-1.72-14.84-2.77l1-4.91c-.15,1,6.15,2.07,14.45,2.37s15-.28,15.19-1.33Z"/><path class="cls-7" d="M461.05,669.57c-.59.95-7.64.58-15.85-1.36s-14.76-4.52-14.25-5.52l3.81-6.39c-.5,1,5.62,3.31,13.85,5.25s15.21,2.75,15.72,1.75A69,69,0,0,1,461.05,669.57Z"/><path class="cls-7" d="M471.24,612.08c.13,1-5.73,3.07-13.56,4.25s-14.59,1-14.8-.09l-.38-4.57c.21,1,6.32.88,14.13-.3s13.88-2.65,13.59-3.82C470.22,607.55,471,610.59,471.24,612.08Z"/><path class="cls-7" d="M462.22,586.62c.31,1-4.22,3.3-10.39,4.77s-11.87,1.54-12.24.55l-1.14-4.36c.38.95,5.39.49,11.56-1s10.67-3.14,10.22-4.27A35.23,35.23,0,0,1,462.22,586.62Z"/><path class="cls-7" d="M452.2,564.75c.33,1-3.19,3.07-8.28,4.28s-10.05,1-10.42,0l-.86-4.29c.38,1,4.37.66,9.46-.55s8.85-2.66,8.4-3.81C450.5,560.43,451.74,563.3,452.2,564.75Z"/><path class="cls-7" d="M446,543.69c.1,1-2.7,2.58-6.47,3s-8.07-.48-8.15-2a34.11,34.11,0,0,1,.29-3.91c.14,1,3.93,1.36,7.22,1.21,2.94-.14,6.63-1.59,6.45-2.78C445.31,539.19,445.88,542.16,446,543.69Z"/><path class="cls-8" d="M226.31,664.29c4.6,2.78,8.38,8.25,11,13.09a143.83,143.83,0,0,1-1-34.19c-4-1-13.92-4.06-19.37-10.56-7-8.29-10.34-19-7.08-22.63s12.4.53,19.34,8.82c4.14,4.92,6.48,12.76,7.71,18.29.27-2.32.59-4.77,1-7.26,2.6-17.68,6.23-29.32,10.15-38.77-4.16-2.3-12.14-7.41-15.95-14.49-5.3-9.82-6.68-21.14-2.86-24s11.94,3.48,17.23,13.31c3,5.59,4,13.42,4.21,19.08,1.19-2.55,2.37-5,3.54-7.39,4.23-8.66,8.28-17,11.66-29.67-4.77-.33-13.55-1.56-19.08-6-7.91-6.37-12.5-15.64-9.67-19.66s12.4-1.85,20.35,4.52c4.7,3.82,8,10.6,9.82,15.51,1-4.51,1.91-9.54,2.8-15.27,1-7,1.62-13,1.91-18.44-3.82-.34-12.52-1.64-17.62-6.59-6.67-6.47-10.2-15.68-7.47-19.51s11.12-1.43,17.77,5c3.67,3.57,6.09,9.65,7.52,14.38.06-11.16-1.26-19.5-2.64-28.13-.53-3.35-1.07-6.74-1.51-10.32-3.54.66-13.18,2-19.44-1.82-7.78-4.68-12.89-12.91-10.76-17.46s11-4.36,18.79.33c4.94,3,8.74,9.69,10.87,14.2a148.48,148.48,0,0,1,.42-31.26c-2.55-.58-12-3.07-17-9-5.8-6.91-8.59-15.81-5.9-18.86s10.32.44,16.13,7.36c4.26,5.08,6.26,13.86,7,18.12.24-2,.51-4.09.84-6.27,2.24-15.19,5.24-25.92,8.52-34.64-3.2-1.7-10.57-6.12-14-12.4-4.41-8.2-5.55-17.63-2.37-20s10,2.87,14.36,11.09c2.77,5.14,3.45,12.54,3.57,17.33,2-4.93,4.15-9.26,6.24-13.54a160.29,160.29,0,0,0,10.09-24.23c-3.52-.25-10.7-1.28-14.93-5.3-5.72-5.48-8.74-13.36-6.31-16.76s9.74-1.48,15.49,4c3.67,3.49,5.82,9.91,6.92,14.11a182.13,182.13,0,0,0,4.44-21.42c-2.58-3.39-6.31-9.15-7-14.91-1-8.85,1.92-13.08,5.74-13.83s7.77,2.27,8.79,11.21c.65,5.72-1.56,12.46-3.26,16.67a3.86,3.86,0,0,1,0,.68c-.83,5.61-1.77,10.61-2.78,15.14,1.91-2.52,5.08-6,8.45-7.34,5.56-2.25,11.24-1.77,12.05,1.07s-3.5,7.37-9.05,9.63c-4.2,1.7-9.75.57-12.21-.1a137.18,137.18,0,0,1-6.77,20.73,24,24,0,0,1,8.46-4.85c7.15-1.9,14.11-.67,14.72,2.72s-5.28,8.15-12.4,10.1c-4.73,1.28-10.43-.1-13.76-1.19-1,2.15-2,4.22-3,6.28a161.61,161.61,0,0,0-9.86,23.53,23.74,23.74,0,0,1,6.81-5.47c7.13-3.42,14.58-3.36,15.78.2s-4.13,9.77-11.25,13.2c-4.45,2.14-10.23,1.91-13.94,1.38-1.24,5.13-2.38,10.95-3.38,17.75a184.91,184.91,0,0,0-2.06,22.17c1.95-4.38,5-9.88,9-13.41,7.63-6.68,16.82-10,19.4-6.83s-2,11.89-9.7,18.59c-5.6,4.89-14.43,7.2-18.77,8.09a168.38,168.38,0,0,0,2.6,24.64l.37,2.35c2.33-4.3,6.5-10.6,12-13.26,8.71-4.23,18.72-4,21.2.49s-3.13,12.31-11.84,16.54c-6.35,3.08-15.89,2-20.6,1.16a147,147,0,0,1,.44,39.8c3-4.77,7.39-11,11.87-14.21,7.8-5.51,15.42-6.45,16.15-1.91s-5.65,13.51-13.44,19c-5.32,3.76-11.82,4-15.42,3.69-.07.43-.13.86-.19,1.3a167.56,167.56,0,0,1-7.87,32.9c3.31-3,7.85-6.49,12.4-7.73,8.75-2.37,17.26-.83,18,3.33s-6.45,10-15.21,12.35c-6.17,1.68-13.71-.36-17.63-1.72-2,4.77-4,8.92-6,13.06-4.58,9.38-9,18.38-12.49,32.94,2.77-4,6.8-8.84,11.3-11,8.33-4,17.17-3.6,18.7,1S270.91,615,262.57,619c-6.14,3-14.57,1.6-18.56.69-.67,3.33-1.29,6.93-1.91,10.84-2.07,14-2.41,24.33-1.91,33.06,1.91-4.83,4.83-10.79,9-14.49,7.92-7.07,17.64-10.08,20.6-6.31s-1.54,13.46-9.46,20.48c-5.64,5-14.73,7-19.5,7.77.5,4.4,1.15,8.54,1.82,12.73.87,5.48,1.76,11,2.26,17.4,2.41-4.24,6.37-9.85,11.45-12.33,8.71-4.23,18.72-4,21.2.51s-3.13,12.3-11.84,16.53c-6.29,3.05-15.72,2-20.48,1.18a172.33,172.33,0,0,1-2.07,31.68,2.25,2.25,0,0,1-2.4,2.07h0a2.33,2.33,0,0,1-1.72-2.76c3.6-24.45,1.91-37.65-.15-50.84-4.89.79-15.26,1.79-22.18-2.38-9.33-5.63-15.44-15.49-12.9-21S217,658.67,226.31,664.29Z"/><path class="cls-5" d="M299.45,288c-3.87.73-6.68,4.91-5.64,13.86.66,5.73,4.38,11.52,7,14.9a181.71,181.71,0,0,1-4.44,21.42c-1.09-4.2-3.25-10.61-6.91-14.1-5.72-5.46-13.06-7.37-15.49-4s.57,11.29,6.31,16.76c4.23,4,11.45,5,14.91,5.31-3,9.75-6.49,16.87-10.08,24.23-2.09,4.27-4.2,8.58-6.23,13.53-.12-4.77-.8-12.18-3.57-17.32-4.42-8.2-11.18-13.45-14.37-11.1s-2,11.8,2.38,20c3.4,6.32,10.78,10.75,14,12.4-3.29,8.72-6.28,19.45-8.53,34.65-.32,2.18-.6,4.26-.83,6.27-.76-4.28-2.75-13.07-7-18.13-5.81-6.94-13.44-10.44-16.11-7.39s.09,12,5.9,18.87c5,5.94,14.41,8.43,17,9a149.74,149.74,0,0,0-.42,31.25c-2.12-4.51-5.93-11.22-10.87-14.19-7.78-4.7-16.65-4.88-18.78-.33s3,12.78,10.75,17.46c6.27,3.82,15.9,2.47,19.43,1.82.46,3.58,1,7,1.53,10.32,1.37,8.58,2.7,17,2.63,28.12-1.43-4.77-3.81-10.81-7.51-14.38-6.68-6.46-15-8.87-17.78-5s.82,13,7.47,19.51c5.1,5,13.82,6.26,17.62,6.59-.28,5.41-.87,11.45-1.9,18.44-.85,5.73-1.79,10.74-2.81,15.27-1.91-4.91-5.11-11.72-9.82-15.51-7.92-6.37-17.51-8.54-20.35-4.52s1.77,13.28,9.68,19.66c5.56,4.48,14.36,5.72,19.08,6-3.37,12.68-7.43,21-11.65,29.67-1.17,2.41-2.37,4.84-3.54,7.39-.26-5.72-1.2-13.53-4.22-19.13-5.29-9.83-13.41-16.13-17.23-13.3s-2.44,14.15,2.86,24c3.82,7.08,11.81,12.18,16,14.48-3.92,9.45-7.54,21.08-10.15,38.77-.38,2.52-.69,4.94-1,7.25-1.23-5.53-3.59-13.35-7.72-18.29-7-8.29-16.08-12.48-19.34-8.82s.12,14.31,7.07,22.63c5.47,6.51,15.37,9.54,19.38,10.57a143.28,143.28,0,0,0,.95,34.19c-2.66-4.84-6.44-10.32-11-13.09-9.34-5.62-20-5.84-22.53-.39S207,679,216.32,684.59c6.93,4.17,17.28,3.18,22.18,2.38,2.08,13.2,3.75,26.39.14,50.85a2.34,2.34,0,0,0,1.72,2.76s1.73-23.68,1.46-38-9.2-31.59-3.42-70.71c7.56-51.26,25.49-54.7,33-105.55,7.25-49.18-7.81-61.21-2.2-99.22,3-20.21,7.94-41,15.38-55.93,15.75-31.63,18.13-53.14,18.22-55Z"/><path class="cls-4" d="M85.46,404.9S54.51,483.18,75.7,570.65c20,82.76,66.93,153.3,66.93,153.3s21.73-110.51,2.6-179.53C123.4,465.74,85.46,404.9,85.46,404.9Z"/><path class="cls-9" d="M142.63,724s21.73-110.51,2.6-179.53C123.4,465.74,85.46,404.9,85.46,404.9s-2.13,57.18,18.63,162.58S142.63,724,142.63,724Z"/><path class="cls-9" d="M138.5,706.83c-7.48-23.26-14.09-46.75-20.29-70.38-3.13-11.8-6-23.66-8.91-35.52-1.38-5.94-2.77-11.88-4.1-17.85s-2.72-11.91-3.93-17.9c-2.48-12-4.89-24-6.89-36-.95-6.06-1.91-12.12-2.72-18.13-.44-3-.79-6.07-1.15-9.1s-.73-6.08-1-9.12c-1.38-12.25-2.33-24.47-3-36.66-.29-6.11-.55-12.22-.63-18.33s-.11-12.22.14-18.33q1.44,18.25,3.6,36.4C91.08,468,92.7,480,94.47,492.06c.43,3,.9,6,1.39,9l1.46,9c1,6,2.06,12,3.15,17.94l1.77,8.94c.57,3,1.14,6,1.77,8.94,1.27,6,2.44,11.92,3.76,17.83q3.77,17.88,7.76,35.71l7.87,35.74C128.6,659,133.76,682.82,138.5,706.83Z"/><path class="cls-9" d="M88.38,482,74.52,461.38,92.07,479a2.39,2.39,0,1,1-3.39,3.38h0A1.64,1.64,0,0,1,88.38,482Z"/><path class="cls-9" d="M95.17,532.52,72,508.85l26.37,20.09a2.4,2.4,0,0,1-2.86,3.82Z"/><path class="cls-4" d="M95.94,529.2l30-32.26-26.29,35.3a2.4,2.4,0,0,1-3.82-2.86Z"/><path class="cls-4" d="M88.34,478.18l17.62-20L92.19,481a2.4,2.4,0,0,1-4.09-2.42A2.16,2.16,0,0,1,88.34,478.18Z"/><path class="cls-4" d="M105.72,579.06l34-39.12-30.25,42a2.39,2.39,0,0,1-3.88-2.79h0Z"/><path class="cls-4" d="M119.94,641.2l26.76-38.87L124,643.7a2.39,2.39,0,1,1-4.18-2.3Z"/><path class="cls-4" d="M129.52,683.33l18.3-24.2-14.31,26.79a2.4,2.4,0,1,1-4.33-2,1.74,1.74,0,0,1,.1-.19A2.71,2.71,0,0,1,129.52,683.33Z"/><path class="cls-9" d="M106.05,582.35l-29-27.78,32,24.14a2.39,2.39,0,1,1-2.86,3.82h0A1,1,0,0,1,106.05,582.35Z"/><path class="cls-9" d="M120.9,644.92,93,614.81l31.25,26.71a2.39,2.39,0,1,1-3.1,3.63Z"/><path class="cls-9" d="M129.88,686.34l-14.82-17.51,18.12,14.06a2.41,2.41,0,1,1-2.94,3.81h0A3.06,3.06,0,0,1,129.88,686.34Z"/><path class="cls-5" d="M143.71,441.13c-5.73,4.28-6.68,17.32-7.58,23.75a94.87,94.87,0,0,0,.32,27.39c2.86,18.7,8.92,37.2,9.75,56a128.17,128.17,0,0,1-2.76,32.92c-2.28,10.49-6.13,19.54-11.07,29.26q-15.42,30.36-29,61.31C101,677,87.15,696,101.05,698.8c5.45,1.12,8.59-4.55,9.77-7.32,8.1-18.93,13.25-34.61,21.05-48.65,9.32-16.81,21.14-33.6,26.36-51.76a121.86,121.86,0,0,0,2.11-56.66c-3.08-16-9.35-31.75-13.23-47.71a103.82,103.82,0,0,1-3.39-23.85c0-6.74,2.86-15.19.22-21.85Z"/><path class="cls-4" d="M348.4,347.81s45.37,94.39,35.3,211.52c-9.54,110.76-50,211.49-50,211.49S293.56,633,304.11,540.06C316.12,434.12,348.4,347.81,348.4,347.81Z"/><path class="cls-9" d="M333.71,770.82S293.58,633,304.13,540.06c12-105.9,44.28-192.25,44.28-192.25S359.3,421,352.36,561.17,333.71,770.82,333.71,770.82Z"/><path class="cls-5" d="M339,747.75c1.1-31.81,2.69-63.57,4.39-95.34l5.15-95.22c.46-7.94.82-15.87,1.2-23.8l1-23.8c.26-7.92.57-15.85.69-23.78l.24-11.91c.07-4,.13-7.93.15-11.9.11-15.87.1-31.76-.22-47.64s-.79-31.77-1.67-47.71c1.14,7.88,2.05,15.8,2.82,23.72s1.4,15.87,2,23.85c1.06,15.89,1.82,31.81,2.14,47.71.11,4,.15,8,.21,11.94s.11,8,.08,12c0,8-.12,15.94-.23,23.9-.33,15.95-1,31.85-1.78,47.75-.35,7.95-.86,15.9-1.33,23.86l-1.49,23.85c-1.17,15.87-2.27,31.74-3.65,47.6C346,684.48,343,716.16,339,747.75Z"/><path class="cls-5" d="M352.38,445.15l16.37-26.85-12.14,29a2.39,2.39,0,0,1-4.41-1.84A2.21,2.21,0,0,1,352.38,445.15Z"/><path class="cls-5" d="M352.91,510.9l25.68-32-21.78,34.75a2.39,2.39,0,1,1-4.05-2.53Z"/><path class="cls-5" d="M352,514.11,318.09,474.8l37.39,36a2.39,2.39,0,0,1-3.31,3.44Z"/><path class="cls-5" d="M352.46,446.57,334,420.75l22.12,22.76a2.4,2.4,0,0,1-3.44,3.33Z"/><path class="cls-5" d="M348.71,580.32l-39.26-47.13,42.8,43.89a2.39,2.39,0,1,1-3.42,3.33h0Z"/><path class="cls-5" d="M343.49,664.11,311.14,615l36.26,46.36a2.39,2.39,0,1,1-3.76,2.94Z"/><path class="cls-5" d="M348.56,577.3l31.31-38.38-27.49,41.21a2.39,2.39,0,0,1-4.05-2.52l.08-.12A1.39,1.39,0,0,1,348.56,577.3Z"/><path class="cls-5" d="M343.39,661.49l28.15-41.67L347.47,664a2.4,2.4,0,1,1-4.33-2.05,1.36,1.36,0,0,1,.13-.24Z"/><path class="cls-4" d="M63.18,564.37s17.82,33.8,20.15,74A293.36,293.36,0,0,1,78,710.14s-18.24-48.66-19.31-80.5A320,320,0,0,1,63.18,564.37Z"/><path class="cls-9" d="M78,710.14s-18.22-48.66-19.29-80.5a320,320,0,0,1,4.48-65.27S69.76,590,74,638.19,78,710.14,78,710.14Z"/><path class="cls-9" d="M77.53,702.25c-1.91-10.92-3.26-21.86-4.41-32.82s-2.06-21.94-2.86-32.84L69,620.2c-.42-5.44-1-10.91-1.42-16.37l-3.09-32.89a235.93,235.93,0,0,1,8.06,32.21c1,5.44,1.91,10.89,2.59,16.41s1.27,11,1.71,16.5q1.35,16.52,1.58,33.06C78.56,680.12,78.45,691.2,77.53,702.25Z"/><path class="cls-9" d="M67.19,597.81l5.26-8.58-.72,10a2.45,2.45,0,1,1-4.54-1.43Z"/><path class="cls-9" d="M70.45,620.28l7.68-9.81-3.38,12a2.44,2.44,0,0,1-4.68-1.35A2.73,2.73,0,0,1,70.45,620.28Z"/><path class="cls-4" d="M70.46,623,59.9,607.46,74,619.86a2.41,2.41,0,0,1-3.17,3.62A2.73,2.73,0,0,1,70.46,623Z"/><path class="cls-4" d="M67.5,599.62,62.2,589.2l9,7.43a2.44,2.44,0,1,1-3.1,3.76h0A2.42,2.42,0,0,1,67.5,599.62Z"/><path class="cls-4" d="M72.47,645.77,60,627.41,76.1,642.67a2.4,2.4,0,0,1-3.26,3.48A2.22,2.22,0,0,1,72.47,645.77Z"/><path class="cls-4" d="M74.16,674l-10-18.3,13.88,15.57a2.4,2.4,0,0,1-3.59,3.18A2.83,2.83,0,0,1,74.16,674Z"/><path class="cls-4" d="M75.07,693.63l-5.39-12.4L79,691a2.42,2.42,0,0,1-3.49,3.36A2.68,2.68,0,0,1,75.07,693.63Z"/><path class="cls-9" d="M72.18,643.08l9-11.87-4.84,14.13a2.41,2.41,0,1,1-4.55-1.61A2.38,2.38,0,0,1,72.18,643.08Z"/><path class="cls-9" d="M73.84,672l8.59-13-4.25,15a2.42,2.42,0,0,1-4.65-1.32h0A2.72,2.72,0,0,1,73.84,672Z"/><path class="cls-9" d="M74.92,691.25,81,684.18l-1.81,9.16a2.47,2.47,0,1,1-4.84-1A2.6,2.6,0,0,1,74.92,691.25Z"/><path class="cls-9" d="M218.64,769.12c6.18-7.17,6.94-26.48,7.63-35.75A179.5,179.5,0,0,0,224,690.81c-5.84-35-20.44-58.9-25.21-94.26-3.1-23,2.34-54.25,6.3-77.18,4.29-24.75,13.55-48.11,19.52-72.35a250.22,250.22,0,0,0,7.52-62c0-3.59.3-14-7.83-14.05-5.44-.06-8.44,4.46-8.9,10.9-.66,9.13-2.93,18.07-5.15,26.92-8.36,33.44-24.76,63-37.07,94.81-16.62,42.93-20.89,99.1-6.13,144.06,5.91,18,15.27,35.3,22.9,52.53a451.06,451.06,0,0,1,20,54.09c.95,3.08,2.67,14,5.49,15.48A2.39,2.39,0,0,0,218.64,769.12Z"/><path class="cls-2" d="M158,589.11c0,2,8.69,4.32,19.83,4.35s20.36-2.3,20.37-4.35l-.33-9.62c0,2-8.63,3.6-19.77,3.57s-20-1.61-20-3.66Z"/><path class="cls-2" d="M166,644.72c.58,2,10.05,1.68,21.42-1.5s20.62-7.74,20.14-9.72l-3.81-12.72c.47,2-8.17,6-19.54,9.22s-20.86,4.27-21.34,2.28C162.83,632.28,164.43,639.45,166,644.72Z"/><path class="cls-2" d="M184.69,689.22c.8,1.86,8.34,2.48,19-1.14s17.52-10.56,17.09-12.56c-.62-2.77-2.87-10.42-2.87-10.42.58,2-7.43,6.33-18.12,10s-19.6,5.06-20.17,3.15C179.62,678.21,182.3,683.65,184.69,689.22Z"/><path class="cls-2" d="M164.31,532.09c-.39,2,7,6.4,17.18,9.25s19.25,2.86,19.75.89l1.46-8.86c-.5,2-8.59,1.27-18.79-1.6s-18-6.16-17.34-8.41C166.59,523.36,164.89,529.2,164.31,532.09Z"/><path class="cls-2" d="M181.6,483.14c-.63,1.91,4.93,6.74,12.86,10.06S210,497,210.68,495.11l2.41-8.4c-.7,1.91-7.26.57-15.19-2.75s-13.6-6.88-12.74-9A88,88,0,0,0,181.6,483.14Z"/><path class="cls-2" d="M199.52,441.35c-.64,1.9,3.62,6.2,10.15,8.94s13.19,2.76,13.91.85l2-8.3c-.69,1.91-6,1-12.49-1.72s-11.25-5.82-10.41-8C202.68,433.07,200.43,438.57,199.52,441.35Z"/><path class="cls-2" d="M212.2,400.74c-.34,2,3.06,5.2,8,6.27s10.85-.34,11.28-3.26c.32-2.15.41-7.64.41-7.64-.38,2-5.52,2.38-9.87,1.85-3.9-.49-8.5-3.58-8-5.88C214,392.09,212.69,397.84,212.2,400.74Z"/><path class="cls-9" d="M402.16,728.62c2.6-1.9,3.89-9,4.62-12.35a70.9,70.9,0,0,0,1.44-16.11c-.23-13.8-4.2-24.56-4-38.35.11-9,3.71-19.92,6.34-28,2.86-8.68,7.38-16.22,10.81-24.47a88.73,88.73,0,0,0,6-22.16c.18-1.33.85-5.17-2.05-6.24-1.91-.71-3.25.59-3.76,2.93a53.58,53.58,0,0,1-3.28,9.39c-4.77,11.4-12.17,20.32-18.27,30.61-8.21,13.87-12.71,34.27-9.81,52.91,1.16,7.45,3.59,15.11,5.41,22.51a210.59,210.59,0,0,1,4.28,22.7c.18,1.27.22,5.55,1.15,6.47a.83.83,0,0,0,1.15.16Z"/><path class="cls-7" d="M390,653.8c-.12.76,2.86,2.72,6.86,4.15s7.4,1.73,7.52.95l.38-3.62c-.12.76-3.28.23-7.25-1.2s-7.06-3.14-6.95-3.91Z"/><path class="cls-7" d="M389.92,675.54c.11.8,3.51,1.91,7.74,2.18s7.78-.26,7.72-1.06l-.7-5.22c.07.8-3.24,1.2-7.47.95s-7.68-1.08-7.75-1.91C389.46,670.51,389.64,673.38,389.92,675.54Z"/><path class="cls-7" d="M395.31,633.37c-.25.7,2.18,3.28,5.66,5.65s6.73,3.52,7,2.86l1-3.11c-.28.68-3.15-.63-6.64-3s-6.09-4.59-5.72-5.35A29.49,29.49,0,0,0,395.31,633.37Z"/><path class="cls-7" d="M404.07,617.32c-.32.64,1.41,3.14,4.07,5.38s5.34,3.42,5.73,2.8l1.31-2.86c-.36.62-2.63-.72-5.29-3s-4.49-4.29-4.07-5A28.87,28.87,0,0,0,404.07,617.32Z"/><path class="cls-7" d="M412.69,604c-.34.64.95,2.78,3.14,4.63s4.57,2.7,4.93,2.07l1.16-2.86c-.35.63-2.18-.38-4.37-2.23s-3.72-3.61-3.3-4.32C414.25,601.34,413.16,603.11,412.69,604Z"/><path class="cls-7" d="M419.36,590.51c-.23.71.82,2.32,2.53,3.35s3.9,1.26,4.21.23c.23-.76.55-2.78.55-2.78-.25.69-2.1.18-3.62-.58s-2.86-2.42-2.56-3.21C420.47,587.52,419.7,589.48,419.36,590.51Z"/></g></g></g></g></svg>