<?xml version="1.0" encoding="utf-8"?>
<!-- Generator: Adobe Illustrator 24.1.1, SVG Export Plug-In . SVG Version: 6.00 Build 0)  -->
<svg version="1.1" id="Capa_1" xmlns="http://www.w3.org/2000/svg" xmlns:xlink="http://www.w3.org/1999/xlink" x="0px" y="0px"
	 viewBox="0 0 335 515" style="enable-background:new 0 0 335 515;" xml:space="preserve">
<style type="text/css">
	.st0{fill:#FFFFFF;}
	.st1{fill:#FF4633;}
	.st2{fill:#FF2000;}
</style>
<path class="st0" d="M217.3,143.9c-6-16.1-22.2-47.8-61.7-61.2L126,73.1l-5.4-13.5l-34.9,14l5.4,13.5c0,0-25.5,35.1-27.5,65.1
	c-1.4,21.6,1.2,34.3,7.1,50.6L217.3,143.9z"/>
<path class="st1" d="M141.3,363.7c-0.9-14.7-16.8-41.8-26.5-57c-1.2-1.9-2.3-3.8-3.4-5.7c-3.6-6.3,16.1-22.2,13.4-28.9l-20.5-51
	c-1.2-2.9-27.7-2.5-28.7-5.2c-5-12.4-8.5-21.9-10.5-32.1l143.8-57.8c9,15.1,11.6,27.8,11.6,27.8l1.4,3.6l2.6,77.2
	c2,4.8,29.6,3.5,31,8.5c1.3,4.6,2.4,9.4,3.3,14.1c2.9,15.7,8.3,40.3,14.5,49.6c9.6,14.1,23.5,30.7,30.4,51.7s5.2,50.5-10.9,65.6
	c-16.2,15.1-35.3,4.8-35.3,4.8l-2.8,8.1c-1.4,4.2-4.6,7.5-8.7,9.2l-2,0.8c-3.4,1.4-7.3,1.5-10.8,0.2l-7.2-2.6
	c0,0-22.2,29.8-52.7-0.1C143,414.7,142.6,384.9,141.3,363.7z"/>
<path class="st2" d="M79.6,76l-8.1-20c-1.1-2.8,0.2-6,3.1-7.2l37.9-15.2c2.8-1.1,6,0.2,7.2,3.1l8.1,20c0,0,0,0,0,0
	c1.1,2.8-0.2,6-3.1,7.2L86.8,79C84,80.1,80.7,78.8,79.6,76z"/>
<path class="st2" d="M75.5,215.8l146.3-58.8l28.6,71.2c1.9,4.8,3.6,9.8,5.1,14.8L111.4,301c-3.6-6.3-6.8-12.8-9.5-19.5l-23-57.3
	C77.6,221.3,76.5,218.5,75.5,215.8z"/>
</svg>
