<svg xmlns="http://www.w3.org/2000/svg" viewBox="0 0 267.94 226.78"><defs><style>.cls-1{fill:#ff4633;}.cls-2{fill:#fff;}</style></defs><title>strawRecurso 13</title><g id="Capa_2" data-name="Capa 2"><g id="Capa_1-2" data-name="Capa 1"><path class="cls-1" d="M0,213.47,181.39,8.85A26,26,0,0,1,199.28.15h0a26,26,0,0,1,18.8,6.5l49.86,44.2L254.47,66,207.91,24.76a10.6,10.6,0,0,0-7.66-2.65h0a12.17,12.17,0,0,0-8.37,4.08L14.06,226.78Z"/><polygon class="cls-2" points="5.22 207.58 29.65 209.19 38.17 199.57 13.84 197.86 5.22 207.58"/><polygon class="cls-2" points="226.13 13.88 224.38 39.46 234 48.11 235.86 22.63 226.13 13.88"/><polygon class="cls-2" points="246.29 31.72 244.54 57.3 254.17 65.96 256.02 40.47 246.29 31.72"/><polygon class="cls-2" points="23.06 187.41 47.49 189.02 56.01 179.41 31.68 177.69 23.06 187.41"/><polygon class="cls-2" points="40.91 167.25 65.33 168.86 73.86 159.24 49.52 157.53 40.91 167.25"/><polygon class="cls-2" points="58.75 147.08 83.18 148.69 91.7 139.08 67.36 137.36 58.75 147.08"/><polygon class="cls-2" points="76.59 126.92 101.02 128.53 109.54 118.91 85.21 117.2 76.59 126.92"/><polygon class="cls-2" points="94.43 106.75 118.86 108.36 127.39 98.75 103.05 97.03 94.43 106.75"/><polygon class="cls-2" points="112.28 86.59 136.7 88.2 145.23 78.58 120.89 76.87 112.28 86.59"/><polygon class="cls-2" points="132.07 63.93 156.5 65.55 165.02 55.93 140.69 54.21 132.07 63.93"/><polygon class="cls-2" points="151.53 42.22 175.96 43.84 184.48 34.22 160.15 32.5 151.53 42.22"/><path class="cls-2" d="M172.47,18.92s20,6.42,20.23,6.25c3.89-2.86,6-2.94,6-2.94L182.49,7.7Z"/><path class="cls-2" d="M197.55.35s5.81,22,6.12,22.16a24.85,24.85,0,0,1,7.08,4.76l3.18-23.71C204.08-1.56,197.55.35,197.55.35Z"/></g></g></svg>