<svg xmlns="http://www.w3.org/2000/svg" viewBox="0 0 147.26 245.41"><defs><style>.cls-1{fill:#fff;}.cls-2{fill:#ff4633;}.cls-3{fill:#ff2000;}.cls-4{fill:#f0f0e2;}</style></defs><title>waterRecurso 18</title><g id="Capa_2" data-name="Capa 2"><g id="Capa_1-2" data-name="Capa 1"><path class="cls-1" d="M107.54,101.19l-.33,22.36L122.4,140,146.17,202a15.48,15.48,0,0,1,1,4.08A16.58,16.58,0,0,1,136.6,223.5L82.29,244.3a16.61,16.61,0,0,1-21.46-9.57L37.06,172.66l.33-22.36L22.2,133.87,4.37,87.32l12.3-49.19,31-11.88,42,28.39Z"/><path class="cls-2" d="M0,17.83,46.55,0l8.91,23.27L8.91,41.1Z"/><path class="cls-3" d="M11.64,13.37l7.76-3L23.85,22l-7.76,3Z"/><path class="cls-3" d="M27.15,7.43l7.76-3,4.46,11.63-7.76,3Z"/><path class="cls-3" d="M144.68,198.17l1.49,3.87a15.48,15.48,0,0,1,1,4.08,32,32,0,0,1-17.26,1.62,25.76,25.76,0,0,0-24.71,9.47,32,32,0,0,1-14.43,10.51A31.71,31.71,0,0,1,73,229.52a23.81,23.81,0,0,0-13.68,1.33l-3-7.76a31.71,31.71,0,0,1,17.73-1.8,25.83,25.83,0,0,0,24.74-9.48A34.19,34.19,0,0,1,131,199.49,23.72,23.72,0,0,0,144.68,198.17Z"/><path class="cls-3" d="M138.74,182.65A31.69,31.69,0,0,1,121,184.46a25.86,25.86,0,0,0-24.74,9.47,31.67,31.67,0,0,1-14.42,10.51,31.64,31.64,0,0,1-17.74,1.81,23.65,23.65,0,0,0-13.66,1.32l-3-7.75A31.66,31.66,0,0,1,65.2,198a23.57,23.57,0,0,0,13.66-1.33,23.61,23.61,0,0,0,11.07-8.14,34.14,34.14,0,0,1,32.16-12.32,23.64,23.64,0,0,0,13.68-1.33Z"/><path class="cls-3" d="M129.83,159.37a31.6,31.6,0,0,1-17.75,1.81,25.89,25.89,0,0,0-24.74,9.48,31.72,31.72,0,0,1-14.42,10.51A31.57,31.57,0,0,1,55.18,183a23.57,23.57,0,0,0-13.66,1.33l-3-7.76a31.59,31.59,0,0,1,17.75-1.8A23.57,23.57,0,0,0,70,173.41,23.71,23.71,0,0,0,81,165.27,34.13,34.13,0,0,1,113.18,153a23.72,23.72,0,0,0,13.68-1.33Z"/><path class="cls-2" d="M4.37,87.32,89.72,54.64l17.82,46.55L22.2,133.87Z"/><path class="cls-4" d="M69.08,93.68a12.46,12.46,0,0,1-23.27,8.91C43.35,96.16,50,78.74,50,78.74S66.62,87.25,69.08,93.68Z"/></g></g></svg>